<svg width="1920" height="754" viewBox="0 0 1920 754" fill="none" xmlns="http://www.w3.org/2000/svg">
<path opacity="0.3" d="M1742.53 610.716L1746.99 612.212M1742.53 610.716L1683.39 638.603M1742.53 610.716L1794.79 581.046M1742.53 610.716L1683.85 592.873M1683.39 638.603L1684.59 639.084M1683.39 638.603L1628.88 618.566M1683.39 638.603L1617.77 664.417M1684.59 639.084L1746.99 612.212M1684.59 639.084L1621.55 666.236M1746.99 612.212L1809.68 585.205M1809.68 585.205L1794.79 581.046M1809.68 585.205L1873.65 557.649M1873.65 557.649L1839.82 549.876M1873.65 557.649L1939.96 529.079M1939.96 529.079L1945.07 526.876M1939.96 529.079L1877.37 517.502M1945.07 526.876L2009.81 499.356M1945.07 526.876L1974.23 493.855M1945.07 526.876L1412.32 756.333M1945.07 526.876L2053.19 480.96M2009.81 499.356L1974.23 493.855M2009.81 499.356L2053.19 480.96M2053.19 480.96L2084.67 467.491M2053.19 480.96L2063.09 465.115M2053.19 480.96L2141.86 443.032M2084.67 467.491L2063.09 465.115M2084.67 467.491L2141.86 443.032M2141.86 443.032L2166.39 432.251M2141.86 443.032L2146.37 431.075M2166.39 432.251L2146.37 431.075M2166.39 432.251L2224.09 406.826M2224.09 406.826L2257.46 392.007M2224.09 406.826L2226.21 391.384M2257.46 392.007L2226.21 391.384M2257.46 392.007L2300.72 372.741M2300.72 372.741L2298.1 346.71M2300.72 372.741L2361.19 346.199C2361.19 346.199 2361.19 346.196 2361.19 346.196V346.196M2300.72 372.741L2361.19 346.196M2361.19 346.196L2289.79 320.952M2361.19 346.196L2298.1 346.71M2289.79 320.952L2298.1 346.71M2289.79 320.952L2239.64 303.514M2239.64 303.514L2201.45 290.187M2239.64 303.514L2209.36 305.002M2201.45 290.187L2209.36 305.002M2201.45 290.187L2136.46 267.312M2136.46 267.312L2109.21 257.687M2136.46 267.312L2117.57 268.824M2109.21 257.687L2117.57 268.824M2109.21 257.687L2046.55 234.889M2109.21 257.687L2012.58 222.544M2046.55 234.889L2012.58 222.544M2046.55 234.889L2026.65 236.886M2012.58 222.544L2026.65 236.886M2012.58 222.544L1966.33 205.563M2012.58 222.544L1898.54 180.743M1966.33 205.563L1934.15 209.775M1966.33 205.563L1898.54 180.743M1898.54 180.743L1893.26 178.836M1898.54 180.743L1934.15 209.775M1898.54 180.743L1391.07 -2.41007M1893.26 178.836L1825.42 154.364M1893.26 178.836L1837.52 188.949M1825.42 154.364L1795.82 160.993M1825.42 154.364L1761.35 131.242M1761.35 131.242L1748.53 134.715M1761.35 131.242L1699.81 109.038M1699.81 109.038L1696.04 110.259M1699.81 109.038L1639.79 87.376M1639.79 87.376L1638.78 87.764M1639.79 87.376L1580.32 65.9118M1580.32 65.9118L1577.18 67.3387M1580.32 65.9118L1520.49 44.3181M1520.49 44.3181L1511.7 49.088M1520.49 44.3181L1459.38 22.2556M1459.38 22.2556L1442.77 33.1009M1459.38 22.2556L1395.95 -0.643626M1395.95 -0.643626L1391.07 -2.41007M1395.95 -0.643626L1370.87 19.4503M1391.07 -2.41007L1329.06 -24.4524M1391.07 -2.41007L1317.82 -13.4211M1391.07 -2.41007L1287.46 -39.1904M1329.06 -24.4524L1317.82 -13.4211M1329.06 -24.4524L1287.46 -39.1904M1287.46 -39.1904L1257.27 -50.0074M1287.46 -39.1904L1252.16 -43.2164M1287.46 -39.1904L1202.37 -69.6607M1257.27 -50.0074L1252.16 -43.2164M1257.27 -50.0074L1202.37 -69.6607M1202.37 -69.6607L1178.8 -78.3677M1202.37 -69.6607L1175.55 -71.799M1202.37 -69.6607L1123.36 -98.9143M1178.8 -78.3677L1175.55 -71.799M1178.8 -78.3677L1123.36 -98.9143M1123.36 -98.9143L1091.27 -110.916M1123.36 -98.9143L1088.45 -100.56M1091.27 -110.916L1088.45 -100.56M1091.27 -110.916L1049.66 -126.531M1049.66 -126.531L991.402 -148.019M1049.66 -126.531L990.153 -127.453M991.402 -148.019V-148.019C991.397 -148.022 991.391 -148.022 991.386 -148.02L930.537 -126.531M991.402 -148.019L990.153 -127.453M930.537 -126.531L887.075 -110.916M930.537 -126.531L990.153 -127.453M887.075 -110.916L853.557 -98.9143M887.075 -110.916L888.68 -100.56M853.557 -98.9143L888.68 -100.56M853.557 -98.9143L795.646 -78.3677M853.557 -98.9143L771.035 -69.6607M795.646 -78.3677L771.035 -69.6607M795.646 -78.3677L798.115 -71.799M771.035 -69.6607L798.115 -71.799M771.035 -69.6607L713.666 -50.0114M771.035 -69.6607L682.119 -39.1904M713.666 -50.0114L682.119 -39.1904M713.666 -50.0114L717.926 -43.2164M682.119 -39.1904L717.926 -43.2164M682.119 -39.1904L638.658 -24.4524M682.119 -39.1904L573.86 -2.41007M638.658 -24.4524L648.475 -13.4211M638.658 -24.4524L573.86 -2.41007M573.86 -2.41007L568.755 -0.643626M573.86 -2.41007L648.475 -13.4211M573.86 -2.41007L43.6559 180.743M568.755 -0.643626L591.345 19.4503M568.755 -0.643626L502.494 22.2556M502.494 22.2556L517.751 33.1009M502.494 22.2556L438.641 44.3181M438.641 44.3181L446.846 49.088M438.641 44.3181L376.135 65.9118M376.135 65.9118L379.093 67.3387M376.135 65.9118L314.004 87.376M314.004 87.376L314.962 87.764M314.004 87.376L251.287 109.038M251.287 109.038L254.913 110.259M251.287 109.038L187.002 131.242M187.002 131.242L199.387 134.711M187.002 131.242L120.054 154.364M120.054 154.364L148.836 160.993M120.054 154.364L49.1771 178.836M49.1771 178.836L43.6559 180.743M49.1771 178.836L103.669 188.949M43.6559 180.743L-27.1564 205.563M43.6559 180.743L4.45031 209.775M43.6559 180.743L-75.4641 222.544M-27.1564 205.563L4.45031 209.775M-27.1564 205.563L-75.4641 222.544M-75.4641 222.544L-110.955 234.889M-75.4641 222.544L-91.3161 236.886M-75.4641 222.544L-176.416 257.687M-110.955 234.889L-91.3161 236.886M-110.955 234.889L-176.416 257.687M-176.416 257.687L-204.895 267.312M-176.416 257.687L-186.161 268.824M-204.895 267.312L-186.161 268.824M-204.895 267.312L-272.813 290.187M-272.813 290.187L-282.554 305.002M-272.813 290.187L-312.726 303.514M-272.813 290.187L-365.136 320.952M-312.726 303.514L-282.554 305.002M-312.726 303.514L-365.136 320.952M-365.136 320.952L-376.647 346.71M-365.136 320.952L-439.749 346.192C-439.751 346.193 -439.75 346.196 -439.748 346.196V346.196M-439.748 346.196L-382.492 372.741M-439.748 346.196L-376.647 346.71M-382.492 372.741L-376.647 346.71M-382.492 372.741L-341.532 392.007M-341.532 392.007L-309.925 406.826M-341.532 392.007L-310.127 391.384M-309.925 406.826L-310.127 391.384M-309.925 406.826L-255.292 432.251M-255.292 432.251L-232.06 443.032M-255.292 432.251L-235.091 431.075M-232.06 443.032L-235.091 431.075M-232.06 443.032L-177.932 467.491M-232.06 443.032L-148.144 480.96M-177.932 467.491L-148.144 480.96M-177.932 467.491L-156.074 465.115M-148.144 480.96L-156.074 465.115M-148.144 480.96L-107.091 499.356M-148.144 480.96L-45.8216 526.876M-107.091 499.356L-70.8808 493.855M-107.091 499.356L-45.8216 526.876M-45.8216 526.876L-40.9874 529.079M-45.8216 526.876L-70.2582 494.679L-70.8808 493.855M-45.8216 526.876L458.462 756.333M-40.9874 529.079L21.7817 557.649M-40.9874 529.079L23.0509 517.502M21.7817 557.649L56.5815 549.876M21.7817 557.649L82.3359 585.205M82.3359 585.205L97.7394 581.046M82.3359 585.205L141.682 612.212M141.682 612.212L146.318 610.716M141.682 612.212L200.737 639.084M200.737 639.084L202.002 638.603M200.737 639.084L260.414 666.236M260.414 666.236L264.419 664.417M260.414 666.236L321.655 694.099M321.655 694.099L333.094 687.902M321.655 694.099L385.504 723.147M385.504 723.147L407.491 708.809M385.504 723.147L453.183 753.932M453.183 753.932L458.462 756.333M453.183 753.932L486.973 726.906M458.462 756.333L526.207 787.531M458.462 756.333L541.752 771.415M458.462 756.333L572.477 808.894M526.207 787.531L541.752 771.415M526.207 787.531L572.477 808.894M572.477 808.894L606.485 824.457M572.477 808.894L573.718 809.064L613.76 814.586M572.477 808.894L669.267 853.222M606.485 824.457L613.76 814.586M606.485 824.457L669.267 853.222M669.267 853.222L696.577 865.417M669.267 853.222L701.342 856.334M669.267 853.222L761.751 894.46M696.577 865.417L701.342 856.334M696.577 865.417L761.751 894.46M761.751 894.46L800.071 911.413M761.751 894.46L804.352 896.922M800.071 911.413L804.352 896.922M800.071 911.413L850.436 933.625M850.436 933.625L854.963 935.651L855.23 935.768L855.606 935.938L856.398 936.293L857.162 936.633L859.627 937.737L861.341 938.505L862.99 939.24L865.064 940.166L865.088 940.178L867.222 941.132L872.298 943.404L878.171 946.031L878.911 946.359L884.796 948.99L885.002 949.083L892.111 952.264L900.062 955.821L908.574 959.625L915.655 962.794L917.567 963.647L922.259 965.745M850.436 933.625L924.215 935.044M922.259 965.745V965.745C922.264 965.748 922.27 965.748 922.276 965.746L924.64 964.747L926.802 963.829L936.248 959.831L943.648 956.699L946.025 955.696L953.45 952.551L956.053 951.452L966.242 947.139L973.137 944.22L976.528 942.785L986.888 938.399L997.231 934.022L998.172 933.625M922.259 965.745L924.215 935.044M998.172 933.625L1007.45 929.753L1017.43 925.59L1027.07 921.568L1028.62 920.921L1036.26 917.732L1036.52 917.627L1037.79 917.093L1044.9 914.13L1051.4 911.413M998.172 933.625L924.215 935.044M1051.4 911.413L1051.58 911.337L1052.89 910.795L1060.15 907.755L1066.6 905.051L1072.19 902.715L1074.7 901.664L1076.85 900.762L1078.67 899.998L1080.56 899.21L1083.29 898.066L1084.15 897.706L1085.03 897.338L1085.59 897.104L1085.77 897.025C1085.78 897.024 1085.78 897.023 1085.78 897.023V897.023M1051.4 911.413L1049 896.922M1085.78 897.023L1086.14 896.874L1091.91 894.46M1085.78 897.023L1085.77 897.108M1091.91 894.46L1086.25 894.784L1086.18 894.788L1086.07 894.792L1049 896.922M1091.91 894.46L1160.78 865.417M1091.91 894.46L1189.64 853.222M1160.78 865.417L1189.64 853.222M1160.78 865.417L1157.18 856.334M1189.64 853.222L1157.18 856.334M1189.64 853.222L1255.96 824.457M1189.64 853.222L1291.89 808.894M1255.96 824.457L1291.89 808.894M1255.96 824.457L1249.9 814.586M1291.89 808.894L1340.76 787.531M1291.89 808.894L1249.9 814.586M1291.89 808.894L1412.32 756.333M1340.76 787.531L1327.15 771.415M1340.76 787.531L1412.32 756.333M1412.32 756.333L1417.89 753.932M1412.32 756.333L1327.15 771.415M1417.89 753.932L1387.46 726.906M1417.89 753.932L1489.39 723.147M1489.39 723.147L1469.19 708.809M1489.39 723.147L1556.85 694.099M1556.85 694.099L1546.18 687.902M1556.85 694.099L1621.55 666.236M1621.55 666.236L1617.77 664.417M1794.79 581.046L1839.82 549.876M1794.79 581.046L1732.52 565.516M1683.85 592.873L1732.52 565.516M1683.85 592.873L1624.07 577.331M1683.85 592.873L1628.88 618.566M1839.82 549.876L1877.37 517.502M1839.82 549.876L1774.55 536.747M1732.52 565.516L1774.55 536.747M1732.52 565.516L1669.02 552.302M1624.07 577.331L1573.39 600.812M1624.07 577.331L1669.02 552.302M1624.07 577.331L1564 563.612M1628.88 618.566L1573.39 600.812M1628.88 618.566L1567.98 642.33M1617.77 664.417L1546.18 687.902M1617.77 664.417L1567.98 642.33M1573.39 600.812L1517.69 584.898M1573.39 600.812L1517.35 622.519M1567.98 642.33L1501.63 663.936M1567.98 642.33L1517.35 622.519M1774.55 536.747L1809.71 506.843M1774.55 536.747L1707.93 525.958M1669.02 552.302L1707.93 525.958M1669.02 552.302L1605.16 540.902M1564 563.612L1605.16 540.902M1564 563.612L1504.42 551.622M1564 563.612L1517.69 584.898M1707.93 525.958L1740.59 498.548M1707.93 525.958L1640.88 516.98M1605.16 540.902L1640.88 516.98M1605.16 540.902L1541.76 531.201M1504.42 551.622L1462.49 570.75M1504.42 551.622L1541.76 531.201M1504.42 551.622L1446.06 544.274M1517.69 584.898L1462.49 570.75M1517.69 584.898L1466.56 604.555M1517.35 622.519L1456.37 642.237M1517.35 622.519L1466.56 604.555M1462.49 570.75L1408.47 561.308M1462.49 570.75L1416.26 588.403M1466.56 604.555L1410.99 622.402M1466.56 604.555L1416.26 588.403M1640.88 516.98L1670.94 492.068M1640.88 516.98L1574.25 509.672M1541.76 531.201L1574.25 509.672M1541.76 531.201L1479.6 526.071M1446.06 544.274L1479.6 526.071M1446.06 544.274L1409.25 560.952L1408.47 561.308M1446.06 544.274L1389.63 544.532M1574.25 509.672L1601.67 487.226M1574.25 509.672L1508.85 506.863M1479.6 526.071L1508.85 506.863M1479.6 526.071L1419.44 528.452M1389.63 544.532L1356.28 559.565M1389.63 544.532L1419.44 528.452M1389.63 544.532L1335.85 552.851M1408.47 561.308L1356.28 559.565M1408.47 561.308L1367.09 577.012M1416.26 588.403L1366.11 604.414M1416.26 588.403L1367.09 577.012M1356.28 559.565L1319.63 573.422M1356.28 559.565L1306.59 566.001M1367.09 577.012L1322.24 591.252M1367.09 577.012L1319.63 573.422M1508.85 506.863L1533.61 486.817M1508.85 506.863L1445.49 511.467M1419.44 528.452L1445.49 511.467M1419.44 528.452L1362.04 538.78M1335.85 552.851L1362.04 538.78M1335.85 552.851L1306.59 566.001M1335.85 552.851L1285.37 569.028M1445.49 511.467L1467.6 493.73M1445.49 511.467L1384.98 523.905M1362.04 538.78L1384.98 523.905M1362.04 538.78L1308.13 556.833M1285.37 569.028L1275.91 573.277M1285.37 569.028L1308.13 556.833M1306.59 566.001L1274.48 578.111M1306.59 566.001L1264.49 579.029L1262.25 579.72L1260 580.415M1319.63 573.422L1281.09 585.614L1279.96 585.973M1319.63 573.422L1274.48 578.111M1275.91 573.277L1308.13 556.833M1275.91 573.277L1263.84 578.693M1263.84 578.693L1262.99 579.077M1263.84 578.693L1275.5 571.167M1262.99 579.077L1260 580.415M1262.99 579.077L1290.18 559.561M1260 580.415L1253.95 582.699M1253.95 582.699L1251.93 583.459M1253.95 582.699L1302.29 547.532M1251.93 583.459L1247.88 584.987M1251.93 583.459L1258.79 574.53M1247.88 584.987L1239.73 588.059M1247.88 584.987L1258.79 574.53M1239.73 588.059L1232.2 590.897M1239.73 588.059L1264.6 563.79M1232.2 590.897L1229.21 591.843M1232.2 590.897L1255.15 583.956L1257.32 583.297L1274.48 578.111M1229.21 591.843L1220.59 594.098M1229.21 591.843L1268.08 552.928M1229.21 591.843L1239.78 589.07M1274.48 578.111L1239.78 589.07M1384.98 523.905L1404.5 508.35M1384.98 523.905L1328.09 543.926M1308.13 556.833L1328.09 543.926M1328.09 543.926L1345.12 530.429M1328.09 543.926L1275.5 571.167M1877.37 517.502L1907.25 484.218M1877.37 517.502L1809.71 506.843M1907.25 484.218L1929.4 450.312M1907.25 484.218L1974.23 493.855M1907.25 484.218L1837.82 476.065M1809.71 506.843L1810.56 505.913L1837.82 476.065M1809.71 506.843L1740.59 498.548M1837.82 476.065L1858.78 444.685M1837.82 476.065L1766.81 470.313M1740.59 498.548L1766.81 470.313M1740.59 498.548L1670.94 492.068M1766.81 470.313L1786.49 441.492M1766.81 470.313L1695.18 466.376M1670.94 492.068L1695.18 466.376M1670.94 492.068L1601.67 487.226M1695.18 466.376L1713.5 440.13M1695.18 466.376L1623.87 464.056M1601.67 487.226L1623.87 464.056M1601.67 487.226L1533.61 486.817M1623.87 464.056L1640.75 440.36M1623.87 464.056L1553.73 466.109M1533.61 486.817L1553.73 466.109M1533.61 486.817L1467.6 493.73M1553.73 466.109L1569.13 444.907M1553.73 466.109L1485.65 475.382M1467.6 493.73L1485.65 475.382M1467.6 493.73L1404.5 508.35M1485.65 475.382L1499.52 456.585M1485.65 475.382L1420.49 492.254M1404.5 508.35L1420.49 492.254M1404.5 508.35L1345.12 530.429M1420.49 492.254L1432.85 475.746M1420.49 492.254L1359.12 516.443M1345.12 530.429L1359.12 516.443M1345.12 530.429L1290.18 559.561M1275.5 571.167L1290.18 559.561M1359.12 516.443L1369.99 502.085M1359.12 516.443L1302.29 547.532M1290.18 559.561L1302.29 547.532M1302.29 547.532L1311.72 535.175M2063.09 465.115L2063.64 463.716L2078.37 426.079M2063.09 465.115L1997.44 457.499M2078.37 426.079L2084.85 387.051M2078.37 426.079L2146.37 431.075M2078.37 426.079L2012.3 420.824M1997.44 457.499L2012.3 420.824M1997.44 457.499L1974.23 493.855M1997.44 457.499L1929.4 450.312M2012.3 420.824L2018.89 384.124M2012.3 420.824L1943.76 416.078M1929.4 450.312L1943.76 416.078M1929.4 450.312L1858.78 444.685M1943.76 416.078L1950.39 381.788M1943.76 416.078L1872.55 412.966M1858.78 444.685L1872.55 412.966M1858.78 444.685L1786.49 441.492M1872.55 412.966L1879.16 381.165M1872.55 412.966L1799.58 412.331M1786.49 441.492L1799.58 412.331M1786.49 441.492L1713.5 440.13M1799.58 412.331L1806.1 383.069M1799.58 412.331L1725.83 413.544M1713.5 440.13L1725.83 413.544M1713.5 440.13L1640.75 440.36M1725.83 413.544L1732.17 386.837M1725.83 413.544L1652.24 416.337M1640.75 440.36L1652.24 416.337M1640.75 440.36L1569.13 444.907M1652.24 416.337L1658.34 392.177M1652.24 416.337L1579.72 423.391M1569.13 444.907L1579.72 423.391M1569.13 444.907L1499.52 456.585M1579.72 423.391L1585.49 401.728M1579.72 423.391L1509.17 437.49M1499.52 456.585L1509.17 437.49M1499.52 456.585L1432.85 475.746M1509.17 437.49L1514.55 418.245M1509.17 437.49L1441.52 458.958M1432.85 475.746L1441.52 458.958M1432.85 475.746L1369.99 502.085M1441.52 458.958L1446.47 442.025M1441.52 458.958L1377.68 487.472M1369.99 502.085L1377.68 487.472M1369.99 502.085L1311.72 535.175M1377.68 487.472L1382.15 472.722M1377.68 487.472L1318.45 522.587M1311.72 535.175L1318.45 522.587M1311.72 535.175L1258.79 574.53M1318.45 522.587L1322.43 509.866M1318.45 522.587L1264.6 563.79M1258.79 574.53L1264.6 563.79M1264.6 563.79L1268.08 552.928M2226.21 391.384L2222.5 347.809M2226.21 391.384L2152.67 389.654M2222.5 347.809L2298.1 346.71M2222.5 347.809L2209.36 305.002M2222.5 347.809L2149.8 348.605M2152.67 389.654L2152.62 388.927L2149.8 348.605M2152.67 389.654L2146.37 431.075M2152.67 389.654L2084.85 387.051M2149.8 348.605L2149.34 347.033L2138 308.236M2149.8 348.605L2082.67 348.339M2084.85 387.051L2082.67 348.339M2084.85 387.051L2018.89 384.124M2082.67 348.339L2072.06 310.232M2082.67 348.339L2017.33 347.692M2018.89 384.124L2017.33 347.692M2018.89 384.124L1950.39 381.788M2017.33 347.692L2007.8 311.793M2017.33 347.692L1949.4 347.712M1950.39 381.788L1949.4 347.712M1950.39 381.788L1879.16 381.165M1949.4 347.712L1940.96 314.105M1949.4 347.712L1878.7 349.531M1879.16 381.165L1878.7 349.531M1879.16 381.165L1806.1 383.069M1878.7 349.531L1871.3 318.301M1878.7 349.531L1806.1 353.925M1806.1 383.069L1806.1 353.925M1806.1 383.069L1732.17 386.837M1806.1 353.925L1799.72 325.128M1806.1 353.925L1732.58 360.211M1732.17 386.837L1732.58 360.211M1732.17 386.837L1658.34 392.177M1732.58 360.211L1727.14 333.875M1732.58 360.211L1659.06 368.069M1658.34 392.177L1659.06 368.069M1658.34 392.177L1585.49 401.728M1659.06 368.069L1654.5 344.191M1659.06 368.069L1586.46 380.094M1585.49 401.728L1586.46 380.094M1585.49 401.728L1514.55 418.245M1586.46 380.094L1582.69 358.646M1586.46 380.094L1515.69 399.004M1514.55 418.245L1515.69 399.004M1514.55 418.245L1446.47 442.025M1515.69 399.004L1512.62 379.908M1515.69 399.004L1447.7 425.076M1446.47 442.025L1447.7 425.076M1446.47 442.025L1382.15 472.722M1447.7 425.076L1445.23 408.24M1447.7 425.076L1383.4 457.944M1382.15 472.722L1383.4 457.944M1382.15 472.722L1322.43 509.866M1383.4 457.944L1381.46 443.25M1383.4 457.944L1323.65 497.109M1322.43 509.866L1323.65 497.109M1322.43 509.866L1268.08 552.928M1323.65 497.109L1322.13 484.42M1323.65 497.109L1269.24 542.03M1268.08 552.928L1269.24 542.03M1269.24 542.03L1268.06 531.181M1269.24 542.03L1220.83 592.049M2209.36 305.002L2138 308.236M2138 308.236L2117.57 268.824M2138 308.236L2072.06 310.232M2117.57 268.824L2053.27 272.999M2072.06 310.232L2053.27 272.999M2072.06 310.232L2007.8 311.793M2053.27 272.999L2026.65 236.886M2053.27 272.999L1990.56 276.682M2007.8 311.793L1990.56 276.682M2007.8 311.793L1940.96 314.105M1990.56 276.682L1989.6 275.352L1965.9 242.602M1990.56 276.682L1925.26 281.205M1940.96 314.105L1925.26 281.205M1940.96 314.105L1871.3 318.301M1925.26 281.205L1902.59 249.243M1925.26 281.205L1857.16 287.701M1871.3 318.301L1857.16 287.701M1871.3 318.301L1799.72 325.128M1857.16 287.701L1836.49 257.942M1857.16 287.701L1787.09 296.881M1799.72 325.128L1787.09 296.881M1799.72 325.128L1727.14 333.875M1787.09 296.881L1768.43 269.386M1787.09 296.881L1715.98 308.017M1727.14 333.875L1715.98 308.017M1727.14 333.875L1654.5 344.191M1715.98 308.017L1699.3 282.818M1715.98 308.017L1644.75 320.73M1654.5 344.191L1644.75 320.73M1654.5 344.191L1582.69 358.646M1644.75 320.73L1629.97 297.843M1644.75 320.73L1574.25 337.542M1582.69 358.646L1574.25 337.542M1582.69 358.646L1512.62 379.908M1574.25 337.542L1561.29 316.942M1574.25 337.542L1505.4 361.108M1512.62 379.908L1505.4 361.108M1512.62 379.908L1445.23 408.24M1505.4 361.108L1494.15 342.732M1505.4 361.108L1439.13 391.647M1445.23 408.24L1439.13 391.647M1445.23 408.24L1381.46 443.25M1439.13 391.647L1429.47 375.417M1439.13 391.647L1376.35 428.755M1381.46 443.25L1376.35 428.755M1381.46 443.25L1322.13 484.42M1376.35 428.755L1368.15 414.566M1376.35 428.755L1317.9 471.889M1322.13 484.42L1317.9 471.889M1322.13 484.42L1268.06 531.181M1317.9 471.889L1311.02 459.613M1317.9 471.889L1264.59 520.457M1268.06 531.181L1264.59 520.457M1268.06 531.181L1219.93 582.849M1220.83 592.049L1219.93 582.849M1220.83 592.049L1218.92 594.539M1220.83 592.049L1220.59 594.098M1264.59 520.457L1258.86 509.943M1264.59 520.457L1217.1 573.754M1219.93 582.849L1217.1 573.754M1219.93 582.849L1209.37 597.041M1218.92 594.539L1220.59 594.098M1218.92 594.539L1209.37 597.041M1217.1 573.754L1212.37 564.832M1217.1 573.754L1198.52 599.685M1209.37 597.041L1202.74 598.783M2026.65 236.886L1965.9 242.602M1965.9 242.602L1934.15 209.775M1965.9 242.602L1902.59 249.243M1934.15 209.775L1873.22 218.429M1902.59 249.243L1873.22 218.429M1902.59 249.243L1836.49 257.942M1873.22 218.429L1837.52 188.949M1873.22 218.429L1809.58 229.222M1836.49 257.942L1809.58 229.222M1836.49 257.942L1768.43 269.386M1809.58 229.222L1776.72 201.727M1809.58 229.222L1743.98 242.824M1768.43 269.386L1743.98 242.824M1768.43 269.386L1699.3 282.818M1743.98 242.824L1714 217.374M1743.98 242.824L1677.28 258.459M1699.3 282.818L1677.28 258.459M1699.3 282.818L1629.97 297.843M1677.28 258.459L1650.16 235.091M1677.28 258.459L1610.32 275.692M1629.97 297.843L1610.32 275.692M1629.97 297.843L1561.29 316.942M1610.32 275.692L1586.03 254.425M1610.32 275.692L1543.95 296.982M1561.29 316.942L1543.95 296.982M1561.29 316.942L1494.15 342.732M1543.95 296.982L1522.39 277.806M1543.95 296.982L1478.99 324.914M1494.15 342.732L1478.99 324.914M1494.15 342.732L1429.47 375.417M1478.99 324.914L1460.08 307.779M1478.99 324.914L1416.37 359.665M1429.47 375.417L1416.37 359.665M1429.47 375.417L1368.15 414.566M1416.37 359.665L1399.94 344.502M1416.37 359.665L1356.94 400.778M1368.15 414.566L1356.94 400.778M1368.15 414.566L1311.02 459.613M1356.94 400.778L1342.83 387.5M1356.94 400.778L1301.53 447.676M1311.02 459.613L1301.53 447.676M1311.02 459.613L1258.86 509.943M1301.53 447.676L1289.55 436.168M1301.53 447.676L1250.92 499.712M1258.86 509.943L1250.92 499.712M1258.86 509.943L1212.37 564.832M1250.92 499.712L1240.85 489.841M1250.92 499.712L1205.78 556.142M1212.37 564.832L1205.78 556.142M1212.37 564.832L1186.77 602.207M1198.52 599.685L1202.74 598.783M1198.52 599.685L1186.77 602.207M1205.78 556.142L1197.39 547.754M1205.78 556.142L1174.04 604.935M1186.77 602.207L1174.04 604.935M1837.52 188.949L1795.82 160.993M1837.52 188.949L1776.72 201.727M1795.82 160.993L1748.53 134.715M1795.82 160.993L1738.23 175.63M1776.72 201.727L1738.23 175.63M1776.72 201.727L1714 217.374M1738.23 175.63L1694.48 151.078M1738.23 175.63L1678.78 193.194M1714 217.374L1712.1 216.073L1678.78 193.194M1714 217.374L1650.16 235.091M1678.78 193.194L1638.64 170.428M1678.78 193.194L1618.21 212.871M1650.16 235.091L1618.21 212.871M1650.16 235.091L1586.03 254.425M1618.21 212.871L1581.73 191.932M1618.21 212.871L1557.32 234.186M1586.03 254.425L1557.32 234.186M1586.03 254.425L1522.39 277.806M1557.32 234.186L1524.45 215.098M1557.32 234.186L1496.85 259.535M1522.39 277.806L1496.85 259.535M1522.39 277.806L1460.08 307.779M1496.85 259.535L1467.53 242.295M1496.85 259.535L1437.58 291.436M1460.08 307.779L1437.58 291.436M1460.08 307.779L1399.94 344.502M1437.58 291.436L1411.7 276.003M1437.58 291.436L1380.34 330.031M1399.94 344.502L1380.34 330.031M1399.94 344.502L1342.83 387.5M1380.34 330.031L1357.75 316.352M1380.34 330.031L1325.95 374.815M1342.83 387.5L1325.95 374.815M1342.83 387.5L1289.55 436.168M1325.95 374.815L1306.44 362.818M1325.95 374.815L1275.17 425.169M1289.55 436.168L1275.17 425.169M1289.55 436.168L1240.85 489.841M1275.17 425.169L1258.52 414.756M1275.17 425.169L1228.73 480.402M1240.85 489.841L1228.73 480.402M1240.85 489.841L1197.39 547.754M1228.73 480.402L1214.67 471.461M1228.73 480.402L1187.27 539.726M1197.39 547.754L1187.27 539.726M1197.39 547.754L1160.64 607.676M1174.04 604.935L1163.67 607.159M1187.27 539.726L1175.51 532.119M1187.27 539.726L1151.37 602.312M1160.64 607.676L1163.67 607.159M1160.64 607.676L1158.47 608.044M1748.53 134.715L1696.04 110.259M1748.53 134.715L1694.48 151.078M1696.04 110.259L1638.78 87.764M1696.04 110.259L1645.84 128.215M1694.48 151.078L1645.84 128.215M1694.48 151.078L1638.64 170.428M1645.84 128.215L1592.7 107.167M1645.84 128.215L1593.95 149.214M1638.64 170.428L1593.95 149.214M1638.64 170.428L1581.73 191.932M1593.95 149.214L1545.04 129.666M1593.95 149.214L1541 172.404M1581.73 191.932L1541 172.404M1581.73 191.932L1524.45 215.098M1541 172.404L1496.38 154.4M1541 172.404L1487.7 197.284M1524.45 215.098L1524.06 214.912L1487.7 197.284M1524.45 215.098L1467.53 242.295M1487.7 197.284L1447.35 180.849M1487.7 197.284L1434.67 226.186M1467.53 242.295L1434.67 226.186M1467.53 242.295L1411.7 276.003M1434.67 226.186L1398.56 211.311M1434.67 226.186L1382.64 261.572M1411.7 276.003L1382.64 261.572M1411.7 276.003L1357.75 316.352M1382.64 261.572L1350.65 248.241M1382.64 261.572L1332.33 303.551M1357.75 316.352L1332.33 303.551M1357.75 316.352L1306.44 362.818M1332.33 303.551L1304.3 291.719M1332.33 303.551L1284.47 351.584M1306.44 362.818L1284.47 351.584M1306.44 362.818L1258.52 414.756M1284.47 351.584L1260.19 341.188M1284.47 351.584L1239.73 405.003M1258.52 414.756L1239.73 405.003M1258.52 414.756L1214.67 471.461M1239.73 405.003L1218.95 395.968M1239.73 405.003L1198.78 463.077M1214.67 471.461L1198.78 463.077M1214.67 471.461L1175.51 532.119M1198.78 463.077L1181.18 455.312M1198.78 463.077L1162.19 524.98M1175.51 532.119L1162.19 524.98M1175.51 532.119L1141.59 595.877M1151.37 602.312L1158.47 608.044M1151.37 602.312L1141.59 595.877M1151.37 602.312L1147.9 609.851M1158.47 608.044L1147.9 609.851M1162.19 524.98L1147.43 518.367M1162.19 524.98L1130.5 589.838M1141.59 595.877L1130.5 589.838M1141.59 595.877L1134.64 612.114M1147.9 609.851L1134.64 612.114M1130.5 589.838L1118.2 584.235M1130.5 589.838L1120.82 614.39M1134.64 612.114L1122.89 614.119M1638.78 87.764L1577.18 67.3387M1638.78 87.764L1592.7 107.167M1577.18 67.3387L1511.7 49.088M1577.18 67.3387L1535.47 88.047M1592.7 107.167L1535.47 88.047M1592.7 107.167L1545.04 129.666M1535.47 88.047L1474.55 70.9524M1535.47 88.047L1492.29 111.9M1545.04 129.666L1492.29 111.9M1545.04 129.666L1496.38 154.4M1492.29 111.9L1436.09 96.0061M1492.29 111.9L1448.19 138.025M1496.38 154.4L1448.19 138.025M1496.38 154.4L1447.35 180.849M1448.19 138.025L1396.79 123.368M1448.19 138.025L1403.72 165.884M1447.35 180.849L1403.72 165.884M1447.35 180.849L1398.56 211.311M1403.72 165.884L1357.14 152.484M1403.72 165.884L1359.45 197.765M1398.56 211.311L1397.64 210.996L1359.45 197.765M1398.56 211.311L1350.65 248.241M1359.45 197.765L1317.64 185.627M1359.45 197.765L1315.96 236.09M1350.65 248.241L1315.96 236.09M1350.65 248.241L1304.3 291.719M1315.96 236.09L1278.84 225.192M1315.96 236.09L1273.88 280.926M1304.3 291.719L1273.88 280.926M1304.3 291.719L1260.19 341.188M1273.88 280.926L1241.27 271.241M1273.88 280.926L1233.81 331.705M1260.19 341.188L1233.81 331.705M1260.19 341.188L1218.95 395.968M1233.81 331.705L1205.5 323.188M1233.81 331.705L1196.33 387.722M1218.95 395.968L1196.33 387.722M1218.95 395.968L1181.18 455.312M1196.33 387.722L1172.05 380.317M1196.33 387.722L1162.01 448.218M1181.18 455.312L1162.01 448.218M1181.18 455.312L1147.43 518.367M1162.01 448.218L1141.41 441.839M1162.01 448.218L1131.34 512.32M1147.43 518.367L1131.34 512.32M1147.43 518.367L1118.2 584.235M1131.34 512.32L1114.03 506.883M1131.34 512.32L1104.77 579.118M1118.2 584.235L1104.77 579.118M1118.2 584.235L1106.72 616.225M1120.82 614.39L1122.89 614.119M1120.82 614.39L1106.72 616.225M1104.77 579.118L1090.33 574.514M1104.77 579.118L1092.37 617.592L1092.2 618.113M1106.72 616.225L1092.2 618.113M1511.7 49.088L1442.77 33.1009M1511.7 49.088L1474.55 70.9524M1442.77 33.1009L1410.38 55.9678M1442.77 33.1009L1370.87 19.4503M1474.55 70.9524L1410.38 55.9678M1474.55 70.9524L1436.09 96.0061M1410.38 55.9678L1343.39 43.1661M1410.38 55.9678L1376.83 82.0685M1436.09 96.0061L1376.83 82.0685M1436.09 96.0061L1396.79 123.368M1376.83 82.0685L1314.93 70.152M1376.83 82.0685L1342.54 110.506M1396.79 123.368L1342.54 110.506M1396.79 123.368L1357.14 152.484M1342.54 110.506L1285.82 99.5067M1342.54 110.506L1307.92 140.721M1357.14 152.484L1307.92 140.721M1357.14 152.484L1317.64 185.627M1307.92 140.721L1256.43 130.656M1307.92 140.721L1273.44 174.963M1317.64 185.627L1273.44 174.963M1317.64 185.627L1278.84 225.192M1273.44 174.963L1227.14 165.836M1273.44 174.963L1239.55 215.616M1278.84 225.192L1239.55 215.616M1278.84 225.192L1241.27 271.241M1239.55 215.616L1238.01 215.313L1198.37 207.418M1239.55 215.616L1206.74 262.728M1241.27 271.241L1206.74 262.728M1241.27 271.241L1205.5 323.188M1206.74 262.728L1170.52 255.436M1206.74 262.728L1175.5 315.697M1205.5 323.188L1175.5 315.697M1205.5 323.188L1172.05 380.317M1175.5 315.697L1144.01 309.274M1175.5 315.697L1146.28 373.796M1172.05 380.317L1146.28 373.796M1172.05 380.317L1141.41 441.839M1146.28 373.796L1119.22 368.206M1146.28 373.796L1119.53 436.229M1141.41 441.839L1119.53 436.229M1141.41 441.839L1114.03 506.883M1119.53 436.229L1096.55 431.414M1119.53 436.229L1095.64 502.097M1114.03 506.883L1095.64 502.097M1114.03 506.883L1090.33 574.514M1095.64 502.097L1076.3 497.99M1095.64 502.097L1074.97 570.455M1090.33 574.514L1074.97 570.455M1090.33 574.514L1077.42 619.908M1092.2 618.113L1080.73 619.605M1074.97 570.455L1058.81 566.971M1074.97 570.455L1062.49 621.278M1077.42 619.908L1080.73 619.605M1077.42 619.908L1062.49 621.278M1370.87 19.4503L1343.39 43.1661M1370.87 19.4503L1296.46 8.20079M1296.46 8.20079L1317.82 -13.4211M1296.46 8.20079L1274.03 32.6159M1296.46 8.20079L1220 -0.603195M1343.39 43.1661L1314.93 70.152M1343.39 43.1661L1274.03 32.6159M1274.03 32.6159L1250.78 60.3294M1274.03 32.6159L1202.72 24.3535M1314.93 70.152L1286.47 98.8519L1285.82 99.5067M1314.93 70.152L1250.78 60.3294M1250.78 60.3294L1227 90.4319M1250.78 60.3294L1184.8 52.6371M1285.82 99.5067L1227 90.4319M1285.82 99.5067L1256.43 130.656M1227 90.4319L1203 122.349M1227 90.4319L1166.49 83.3257M1256.43 130.656L1203 122.349M1256.43 130.656L1227.14 165.836M1203 122.349L1147.99 115.841M1203 122.349L1179.08 158.301M1227.14 165.836L1179.08 158.301M1227.14 165.836L1198.37 207.418M1179.08 158.301L1129.58 152.395M1179.08 158.301L1155.59 200.643M1198.37 207.418L1155.59 200.643M1198.37 207.418L1170.52 255.436M1155.59 200.643L1111.51 195.336M1155.59 200.643L1132.87 249.405M1170.52 255.436L1132.87 249.405M1170.52 255.436L1144.01 309.274M1132.87 249.405L1094.05 244.679M1132.87 249.405L1111.26 303.967M1144.01 309.274L1111.26 303.967M1144.01 309.274L1119.22 368.206M1111.26 303.967L1077.47 299.807M1111.26 303.967L1091.07 363.586M1119.22 368.206L1091.07 363.586M1119.22 368.206L1096.55 431.414M1091.07 363.586L1062 359.956M1091.07 363.586L1072.61 427.429M1096.55 431.414L1072.61 427.429M1096.55 431.414L1076.3 497.99M1072.61 427.429L1047.89 424.304M1072.61 427.429L1056.16 494.591M1076.3 497.99L1056.16 494.591M1076.3 497.99L1058.81 566.971M1056.16 494.591L1035.35 491.923M1056.16 494.591L1041.97 564.093M1058.81 566.971L1041.97 564.093M1058.81 566.971L1047.34 622.665M1062.49 621.278L1047.34 622.665M1041.97 564.093L1024.57 561.829M1041.97 564.093L1032.07 623.857M1047.34 622.665L1037.57 623.558M1252.16 -43.2164L1236.46 -22.7425M1252.16 -43.2164L1164.41 -50.2459M1164.41 -50.2459L1175.55 -71.799M1164.41 -50.2459L1153.46 -29.4243M1164.41 -50.2459L1075.46 -54.474M1236.46 -22.7425L1220 -0.603195M1236.46 -22.7425L1316.78 -13.5424L1317.82 -13.4211M1236.46 -22.7425L1153.46 -29.4243M1153.46 -29.4243L1141.97 -6.91718M1153.46 -29.4243L1069.3 -33.4423M1220 -0.603195L1202.72 24.3535M1220 -0.603195L1141.97 -6.91718M1141.97 -6.91718L1129.91 18.4317M1141.97 -6.91718L1062.83 -10.7209M1202.72 24.3535L1184.8 52.6371M1202.72 24.3535L1129.91 18.4317M1129.91 18.4317L1117.42 47.1153M1129.91 18.4317L1056.05 14.8624M1184.8 52.6371L1166.49 83.3257M1184.8 52.6371L1117.42 47.1153M1117.42 47.1153L1104.66 78.2244M1117.42 47.1153L1049.05 43.7927M1166.49 83.3257L1147.99 115.841M1166.49 83.3257L1104.66 78.2244M1104.66 78.2244L1091.77 111.169M1104.66 78.2244L1041.9 75.1564M1147.99 115.841L1091.77 111.169M1147.99 115.841L1129.58 152.395M1091.77 111.169L1078.96 148.155M1091.77 111.169L1034.7 108.355M1129.58 152.395L1078.96 148.155M1129.58 152.395L1111.51 195.336M1078.96 148.155L1027.56 145.6M1078.96 148.155L1066.41 191.52M1111.51 195.336L1066.41 191.52M1111.51 195.336L1094.05 244.679M1066.41 191.52L1020.62 189.224M1066.41 191.52L1054.33 241.284M1094.05 244.679L1054.33 241.284M1094.05 244.679L1077.47 299.807M1054.33 241.284L1013.98 239.239M1054.33 241.284L1042.88 296.816M1077.47 299.807L1042.88 296.816M1077.47 299.807L1062 359.956M1042.88 296.816L1007.74 295.013M1042.88 296.816L1032.24 357.353M1062 359.956L1032.24 357.353M1062 359.956L1047.89 424.304M1032.24 357.353L1002 355.78M1032.24 357.353L1022.58 422.057M1047.89 424.304L1022.58 422.057M1047.89 424.304L1035.35 491.923M1022.58 422.057L996.851 420.703M1022.58 422.057L1014.04 490.003M1035.35 491.923L1014.04 490.003M1035.35 491.923L1024.57 561.829M1014.04 490.003L992.364 488.847M1014.04 490.003L1006.75 560.2M1024.57 561.829L1006.75 560.2M1024.57 561.829L1016.74 624.694M1032.07 623.857L1037.57 623.558M1032.07 623.857L1016.74 624.694M1006.75 560.2L988.613 559.222M1006.75 560.2L1001.31 625.535M1016.74 624.694L1001.31 625.535M1088.45 -100.56L1081.74 -76.2374M1088.45 -100.56L988.658 -102.112M988.658 -102.112L990.153 -127.453M988.658 -102.112L987.203 -77.7169M988.658 -102.112L888.68 -100.56M1081.74 -76.2374L1075.46 -54.474M1081.74 -76.2374L1175.55 -71.799M1081.74 -76.2374L987.203 -77.7169M987.203 -77.7169L985.828 -55.8848M987.203 -77.7169L892.483 -76.2374M1075.46 -54.474L1069.3 -33.4423M1075.46 -54.474L985.828 -55.8848M985.828 -55.8848L984.475 -34.7843M985.828 -55.8848L896.016 -54.474M1069.3 -33.4423L1062.83 -10.7209M1069.3 -33.4423L984.475 -34.7843M984.475 -34.7843L983.06 -11.9861M984.475 -34.7843L899.484 -33.4423M1062.83 -10.7209L1056.05 14.8624M1062.83 -10.7209L983.06 -11.9861M983.06 -11.9861L981.597 13.674M983.06 -11.9861L903.133 -10.7169M1056.05 14.8624L1049.05 43.7927M1056.05 14.8624L981.597 13.674M981.597 13.674L980.118 42.6851M981.597 13.674L906.997 14.8624M1049.05 43.7927L1041.9 75.1564M1049.05 43.7927L980.118 42.6851M980.118 42.6851L978.626 74.1296M980.118 42.6851L911.047 43.7927M1041.9 75.1564L1034.7 108.355M1041.9 75.1564L978.626 74.1296M978.626 74.1296L977.139 107.417M978.626 74.1296L915.222 75.1564M1034.7 108.355L1027.56 145.6M1034.7 108.355L977.139 107.417M977.139 107.417L975.716 144.747M977.139 107.417L919.466 108.355M1027.56 145.6L975.716 144.747M1027.56 145.6L1020.62 189.224M975.716 144.747L923.767 145.6M975.716 144.747L974.415 188.456M1020.62 189.224L974.415 188.456M1020.62 189.224L1013.98 239.239M974.415 188.456L928.12 189.224M974.415 188.456L973.262 238.555M1013.98 239.239L973.262 238.555M1013.98 239.239L1007.74 295.013M973.262 238.555L932.469 239.239M973.262 238.555L972.28 294.411M1007.74 295.013L972.28 294.411M1007.74 295.013L1002 355.78M972.28 294.411L936.749 295.013M972.28 294.411L971.484 355.255M1002 355.78L971.484 355.255M1002 355.78L996.851 420.703M971.484 355.255L940.9 355.78M971.484 355.255L970.886 420.254M996.851 420.703L970.886 420.254M996.851 420.703L992.364 488.847M970.886 420.254L944.865 420.703M970.886 420.254L970.494 488.463M992.364 488.847L970.494 488.463M992.364 488.847L988.613 559.222M970.494 488.463L948.575 488.847M970.494 488.463L970.316 558.894M988.613 559.222L970.316 558.894M988.613 559.222L985.849 626.092M1001.31 625.535L993.747 625.947M970.316 558.894L951.978 559.222M970.316 558.894L970.353 626.371M985.849 626.092L993.747 625.947M985.849 626.092L970.353 626.371M888.68 -100.56L892.483 -76.2374M892.483 -76.2374L896.016 -54.474M892.483 -76.2374L798.115 -71.799M798.115 -71.799L806.542 -50.2459M896.016 -54.474L899.484 -33.4423M896.016 -54.474L806.542 -50.2459M806.542 -50.2459L814.824 -29.4243M806.542 -50.2459L717.926 -43.2164M899.484 -33.4423L903.133 -10.7169M899.484 -33.4423L814.824 -29.4243M814.824 -29.4243L823.522 -6.91718M814.824 -29.4243L730.985 -22.7425M903.133 -10.7169L906.997 14.8624M903.133 -10.7169L823.522 -6.91718M823.522 -6.91718L832.701 18.4317M823.522 -6.91718L744.707 -0.603195M906.997 14.8624L911.047 43.7927M906.997 14.8624L832.701 18.4317M832.701 18.4317L842.264 47.1153M832.701 18.4317L759.16 24.3535M911.047 43.7927L915.222 75.1564M911.047 43.7927L842.264 47.1153M842.264 47.1153L852.089 78.2244M842.264 47.1153L774.196 52.6371M915.222 75.1564L919.466 108.355M915.222 75.1564L852.089 78.2244M852.089 78.2244L862.044 111.169M852.089 78.2244L789.627 83.3257M919.466 108.355L923.767 145.6M919.466 108.355L862.044 111.169M862.044 111.169L872.056 148.155M862.044 111.169L805.245 115.841M923.767 145.6L872.056 148.155M923.767 145.6L928.12 189.224M872.056 148.155L820.915 152.395M872.056 148.155L882.039 191.52M928.12 189.224L882.039 191.52M928.12 189.224L932.469 239.239M882.039 191.52L836.48 195.336M882.039 191.52L891.865 241.284M932.469 239.239L891.865 241.284M932.469 239.239L936.749 295.013M891.865 241.284L851.73 244.679M891.865 241.284L901.387 296.816M936.749 295.013L901.387 296.816M936.749 295.013L940.9 355.78M901.387 296.816L866.442 299.807M901.387 296.816L910.469 357.353M940.9 355.78L910.469 357.353M940.9 355.78L944.865 420.703M910.469 357.353L880.402 359.956M910.469 357.353L918.973 422.057M944.865 420.703L918.973 422.057M944.865 420.703L948.575 488.847M918.973 422.057L893.397 424.304M918.973 422.057L926.766 490.003M948.575 488.847L926.766 490.003M948.575 488.847L951.978 559.222M926.766 490.003L905.227 491.923M926.766 490.003L933.738 560.2M951.978 559.222L933.738 560.2M951.978 559.222L954.852 626.65M970.353 626.371L954.852 626.65M933.738 560.2L915.724 561.829M933.738 560.2L939.352 626.561M954.852 626.65L949.646 626.747M717.926 -43.2164L730.985 -22.7425M730.985 -22.7425L744.707 -0.603195M730.985 -22.7425L648.475 -13.4211M648.475 -13.4211L667.157 8.20079M744.707 -0.603195L759.16 24.3535M744.707 -0.603195L667.157 8.20079M667.157 8.20079L686.824 32.6159M667.157 8.20079L591.345 19.4503M759.16 24.3535L774.196 52.6371M759.16 24.3535L686.824 32.6159M686.824 32.6159L707.271 60.3294M686.824 32.6159L616.141 43.1661M774.196 52.6371L789.627 83.3257M774.196 52.6371L707.271 60.3294M707.271 60.3294L728.228 90.4319M707.271 60.3294L641.903 70.152M789.627 83.3257L805.245 115.841M789.627 83.3257L728.228 90.4319M728.228 90.4319L749.436 122.349M728.228 90.4319L668.297 99.5067M805.245 115.841L820.915 152.395M805.245 115.841L749.436 122.349M749.436 122.349L770 157.149L770.683 158.301M749.436 122.349L694.98 130.656M820.915 152.395L770.683 158.301M820.915 152.395L836.48 195.336M770.683 158.301L721.693 165.836M770.683 158.301L791.745 200.643M836.48 195.336L791.745 200.643M836.48 195.336L851.73 244.679M791.745 200.643L748.134 207.418M791.745 200.643L812.334 249.405M851.73 244.679L812.334 249.405M851.73 244.679L866.442 299.807M812.334 249.405L773.949 255.436M812.334 249.405L832.151 303.967M866.442 299.807L832.151 303.967M866.442 299.807L880.402 359.956M832.151 303.967L798.758 309.274M832.151 303.967L850.909 363.586M880.402 359.956L850.909 363.586M880.402 359.956L893.397 424.304M850.909 363.586L822.192 368.206M850.909 363.586L868.313 427.429M893.397 424.304L868.313 427.429M893.397 424.304L905.227 491.923M868.313 427.429L843.905 431.414M868.313 427.429L884.113 494.591M905.227 491.923L884.113 494.591M905.227 491.923L915.724 561.829M884.113 494.591L863.572 497.99M884.113 494.591L898.065 564.093M915.724 561.829L898.065 564.093M915.724 561.829L923.872 626.278M939.352 626.561L949.646 626.747M939.352 626.561L923.872 626.278M898.065 564.093L880.891 566.971M898.065 564.093L908.469 625.999M923.872 626.278L908.469 625.999M591.345 19.4503L616.141 43.1661M591.345 19.4503L517.751 33.1009M517.751 33.1009L547.568 55.9678M517.751 33.1009L446.846 49.088M616.141 43.1661L641.903 70.152M616.141 43.1661L547.568 55.9678M547.568 55.9678L578.52 82.0645M547.568 55.9678L481.541 70.9524M641.903 70.152L668.297 99.5067M641.903 70.152L578.52 82.0645M578.52 82.0645L517.541 96.0061M578.52 82.0645L610.216 110.506M668.297 99.5067L610.216 110.506M668.297 99.5067L694.98 130.656M610.216 110.506L554.374 123.368M610.216 110.506L642.247 140.721M694.98 130.656L642.247 140.721M694.98 130.656L721.693 165.836M642.247 140.721L591.579 152.484M642.247 140.721L674.278 174.963M721.693 165.836L674.278 174.963M721.693 165.836L748.134 207.418M674.278 174.963L628.759 185.627M674.278 174.963L705.954 215.616M748.134 207.418L705.954 215.616M748.134 207.418L773.949 255.436M705.954 215.616L704.822 215.887L665.491 225.192M705.954 215.616L736.845 262.728M773.949 255.436L736.845 262.728M773.949 255.436L798.758 309.274M736.845 262.728L701.274 271.241M736.845 262.728L766.492 315.697M798.758 309.274L766.492 315.697M798.758 309.274L822.192 368.206M766.492 315.697L735.584 323.188M766.492 315.697L794.465 373.796M822.192 368.206L794.465 373.796M822.192 368.206L843.905 431.414M794.465 373.796L767.923 380.317M794.465 373.796L820.345 436.229M843.905 431.414L820.345 436.229M843.905 431.414L863.572 497.99M820.345 436.229L797.808 441.839M820.345 436.229L843.751 502.097M863.572 497.99L843.751 502.097M863.572 497.99L880.891 566.971M843.751 502.097L824.803 506.883M843.751 502.097L864.332 570.455M880.891 566.971L864.332 570.455M880.891 566.971L893.085 625.26M908.469 625.999L905.643 625.947M864.332 570.455L848.504 574.514M864.332 570.455L877.82 624.423M893.085 625.26L905.643 625.947M893.085 625.26L877.82 624.423M446.846 49.088L481.044 70.6371L481.541 70.9524M446.846 49.088L379.093 67.3387M379.093 67.3387L314.962 87.764M379.093 67.3387L418.509 88.047M481.541 70.9524L418.509 88.047M481.541 70.9524L517.541 96.0061M418.509 88.047L358.9 107.167M418.509 88.047L459.372 111.9M517.541 96.0061L459.372 111.9M517.541 96.0061L554.374 123.368M459.372 111.9L404.423 129.666M459.372 111.9L501.16 138.025M554.374 123.368L501.16 138.025M554.374 123.368L591.579 152.484M501.16 138.025L450.945 154.4M501.16 138.025L543.34 165.884M591.579 152.484L543.34 165.884M591.579 152.484L628.759 185.627M543.34 165.884L497.866 180.849M543.34 165.884L585.46 197.765M628.759 185.627L585.46 197.765M628.759 185.627L665.491 225.192M585.46 197.765L544.682 211.311M585.46 197.765L627.034 236.09M665.491 225.192L627.034 236.09M665.491 225.192L701.274 271.241M627.034 236.09L590.855 248.241M627.034 236.09L667.496 280.926M701.274 271.241L667.496 280.926M701.274 271.241L735.584 323.188M667.496 280.926L635.756 291.719M667.496 280.926L706.257 331.705M735.584 323.188L706.257 331.705M735.584 323.188L767.923 380.317M706.257 331.705L678.724 341.188M706.257 331.705L742.759 387.722M767.923 380.317L742.759 387.722M767.923 380.317L797.808 441.839M742.759 387.722L719.154 395.968M742.759 387.722L776.455 448.218M797.808 441.839L776.455 448.218M797.808 441.839L824.803 506.883M776.455 448.218L756.444 455.312M776.455 448.218L806.862 512.32M824.803 506.883L806.862 512.32M824.803 506.883L848.504 574.514M806.862 512.32L790.06 518.367M806.862 512.32L833.525 579.118M848.504 574.514L833.525 579.118M848.504 574.514L862.731 623.594M877.82 624.423L862.731 623.594M833.525 579.118L819.512 584.235M833.525 579.118L847.712 622.224M862.731 623.594L862.113 623.558M314.962 87.764L254.913 110.259M314.962 87.764L358.9 107.167M254.913 110.259L199.387 134.711M254.913 110.259L303.148 128.215M358.9 107.167L303.148 128.215M358.9 107.167L404.423 129.666M303.148 128.215L251.671 151.078M303.148 128.215L353.092 149.214M404.423 129.666L353.092 149.214M404.423 129.666L450.945 154.4M353.092 149.214L305.763 170.428M353.092 149.214L404.088 172.404M450.945 154.4L404.088 172.404M450.945 154.4L497.866 180.849M404.088 172.404L360.954 191.932M404.088 172.404L455.492 197.284M497.866 180.849L455.492 197.284M497.866 180.849L544.682 211.311M455.492 197.284L416.537 215.098M455.492 197.284L506.737 226.186M544.682 211.311L506.737 226.186M544.682 211.311L590.855 248.241M506.737 226.186L471.901 242.295M506.737 226.186L557.232 261.572M590.855 248.241L557.232 261.572M590.855 248.241L635.756 291.719M557.232 261.572L526.409 276.003M557.232 261.572L606.287 303.551M635.756 291.719L606.287 303.551M635.756 291.719L678.724 341.188M606.287 303.551L579.312 316.352M606.287 303.551L653.196 351.584M678.724 341.188L653.196 351.584M678.724 341.188L719.154 395.968M653.196 351.584L629.859 362.818M653.196 351.584L697.292 405.003M719.154 395.968L697.292 405.003M719.154 395.968L756.444 455.312M697.292 405.003L677.334 414.756M697.292 405.003L737.929 463.077M756.444 455.312L737.929 463.077M756.444 455.312L790.06 518.367M737.929 463.077L721.042 471.461M737.929 463.077L774.527 524.98M790.06 518.367L774.527 524.98M790.06 518.367L819.512 584.235M774.527 524.98L760.381 532.119M774.527 524.98L806.563 589.838M819.512 584.235L806.563 589.838M819.512 584.235L832.96 620.858M847.712 622.224L862.113 623.558M847.712 622.224L832.96 620.858M806.563 589.838L794.785 595.877M806.563 589.838L818.551 619.492M832.96 620.858L819.424 619.605M199.387 134.711L148.836 160.993M199.387 134.711L251.671 151.078M148.836 160.993L103.669 188.949M148.836 160.993L204.88 175.63M251.671 151.078L204.88 175.63M251.671 151.078L305.763 170.428M204.88 175.63L163.156 201.727M204.88 175.63L262.815 193.194M305.763 170.428L262.815 193.194M305.763 170.428L360.954 191.932M262.815 193.194L224.595 217.374M262.815 193.194L321.877 212.871M360.954 191.932L321.877 212.871M360.954 191.932L416.537 215.098M321.877 212.871L321.219 213.292L287.179 235.091M321.877 212.871L381.308 234.186M416.537 215.098L381.308 234.186M416.537 215.098L471.901 242.295M381.308 234.186L350.097 254.425M381.308 234.186L440.46 259.535M471.901 242.295L440.46 259.535M471.901 242.295L526.409 276.003M440.46 259.535L412.66 277.806M440.46 259.535L498.634 291.436M526.409 276.003L498.634 291.436M526.409 276.003L579.312 316.352M498.634 291.436L474.136 307.779M498.634 291.436L555.053 330.031M579.312 316.352L555.053 330.031M579.312 316.352L629.859 362.818M555.053 330.031L533.692 344.502M555.053 330.031L608.906 374.815M629.859 362.818L608.906 374.815M629.859 362.818L677.334 414.756M608.906 374.815L590.492 387.5M608.906 374.815L659.437 425.169M677.334 414.756L659.437 425.169M677.334 414.756L721.042 471.461M659.437 425.169L643.746 436.168M659.437 425.169L705.926 480.402M721.042 471.461L705.926 480.402M721.042 471.461L760.381 532.119M705.926 480.402L692.697 489.841M705.926 480.402L747.73 539.726M760.381 532.119L747.73 539.726M760.381 532.119L794.785 595.877M747.73 539.726L736.676 547.754M747.73 539.726L784.26 602.312M794.785 595.877L784.26 602.312M794.785 595.877L804.344 617.612M818.551 619.492L819.424 619.605M818.551 619.492L804.344 617.612M784.26 602.312L775.077 609.095M784.26 602.312L790.654 615.801M804.344 617.612L790.654 615.801M103.669 188.949L64.3055 218.429M103.669 188.949L163.156 201.727M64.3055 218.429L4.45031 209.775M64.3055 218.429L31.1182 249.243M64.3055 218.429L126.885 229.222M163.156 201.727L126.885 229.222M163.156 201.727L224.595 217.374M126.885 229.222L96.4055 257.942M126.885 229.222L191.461 242.824M224.595 217.374L223.516 218.207L191.461 242.824M224.595 217.374L287.179 235.091M191.461 242.824L163.71 269.386M191.461 242.824L257.176 258.455M287.179 235.091L257.176 258.455M287.179 235.091L350.097 254.425M257.176 258.455L232.137 282.818M257.176 258.455L323.183 275.692M350.097 254.425L323.183 275.692M350.097 254.425L412.66 277.806M323.183 275.692L300.804 297.843M323.183 275.692L388.753 296.982M412.66 277.806L388.753 296.982M412.66 277.806L474.136 307.779M388.753 296.982L368.948 316.942M388.753 296.982L453.119 324.914M474.136 307.779L453.119 324.914M474.136 307.779L533.692 344.502M453.119 324.914L435.775 342.732M453.119 324.914L515.423 359.665M533.692 344.502L515.423 359.665M533.692 344.502L590.492 387.5M515.423 359.665L500.4 375.417M515.423 359.665L574.785 400.778M590.492 387.5L574.785 400.778M590.492 387.5L643.746 436.168M574.785 400.778L561.912 414.566M574.785 400.778L630.388 447.676M643.746 436.168L630.388 447.676M643.746 436.168L692.697 489.841M630.388 447.676L619.48 459.613M630.388 447.676L681.461 499.712M692.697 489.841L681.461 499.712M692.697 489.841L736.676 547.754M681.461 499.712L672.31 509.943M681.461 499.712L727.307 556.142M736.676 547.754L727.307 556.142M736.676 547.754L775.077 609.095M727.307 556.142L719.704 564.832M727.307 556.142L764.358 611.755M775.077 609.095L770.914 612.895M775.077 609.095L777.591 614.059M790.654 615.801L777.938 614.119M770.914 612.895L777.591 614.059M770.914 612.895L764.358 611.755M777.591 614.059L777.938 614.119M-91.3161 236.886L-122.418 272.999M-91.3161 236.886L-31.3802 242.602M-122.418 272.999L-186.161 268.824M-122.418 272.999L-145.824 310.232M-122.418 272.999L-60.2669 276.682M-31.3802 242.602L4.45031 209.775M-31.3802 242.602L-60.2669 276.682M-31.3802 242.602L31.1182 249.243M-60.2669 276.682L-60.6873 277.361L-81.8663 311.793M-60.2669 276.682L4.47868 281.205M31.1182 249.243L30.3584 250.157L4.47868 281.205M31.1182 249.243L96.4055 257.942M4.47868 281.205L-15.2979 314.105M4.47868 281.205L72.0536 287.701M96.4055 257.942L72.0536 287.701M96.4055 257.942L163.71 269.386M72.0536 287.701L54.1121 318.301M72.0536 287.701L141.649 296.881M163.71 269.386L141.649 296.881M163.71 269.386L232.137 282.818M141.649 296.881L125.523 325.128M141.649 296.881L212.337 308.017M232.137 282.818L212.337 308.017M232.137 282.818L300.804 297.843M212.337 308.017L197.984 333.875M212.337 308.017L283.197 320.726M300.804 297.843L283.197 320.726M300.804 297.843L368.948 316.942M283.197 320.726L270.551 344.191M283.197 320.726L353.448 337.542M368.948 316.942L353.448 337.542M368.948 316.942L435.775 342.732M353.448 337.542L342.422 358.646M353.448 337.542L422.28 361.108M435.775 342.732L422.28 361.108M435.775 342.732L500.4 375.417M422.28 361.108L412.762 379.908M422.28 361.108L488.768 391.647M500.4 375.417L488.768 391.647M500.4 375.417L561.912 414.566M488.768 391.647L480.644 408.24M488.768 391.647L552.002 428.755M561.912 414.566L552.002 428.755M561.912 414.566L619.48 459.613M552.002 428.755L545.143 443.25M552.002 428.755L611.125 471.889M619.48 459.613L611.125 471.889M619.48 459.613L672.31 509.943M611.125 471.889L605.394 484.42M611.125 471.889L665.334 520.457M672.31 509.943L665.334 520.457M672.31 509.943L719.704 564.832M665.334 520.457L660.593 531.181M665.334 520.457L713.928 573.754M719.704 564.832L713.928 573.754M719.704 564.832L751.113 609.442M764.358 611.755L751.113 609.442M713.928 573.754L710.036 582.849M713.928 573.754L737.949 606.265L738.697 607.28M751.113 609.442L738.697 607.28M-282.554 305.002L-301.017 347.809M-282.554 305.002L-211.475 308.236M-301.017 347.809L-376.647 346.71M-301.017 347.809L-310.127 391.384M-301.017 347.809L-228.285 348.605M-211.475 308.236L-186.161 268.824M-211.475 308.236L-228.285 348.605M-211.475 308.236L-145.824 310.232M-228.285 348.605L-228.551 349.972L-236.255 389.654M-228.285 348.605L-161.166 348.339M-145.824 310.232L-146.066 310.843L-161.166 348.339M-145.824 310.232L-81.8663 311.793M-161.166 348.339L-168.151 387.051M-161.166 348.339L-95.8429 347.692M-81.8663 311.793L-95.8429 347.692M-81.8663 311.793L-15.2979 314.105M-95.8429 347.692L-101.93 384.124M-95.8429 347.692L-27.9164 347.712M-15.2979 314.105L-27.9164 347.712M-15.2979 314.105L54.1121 318.301M-27.9164 347.712L-33.1342 381.788M-27.9164 347.712L42.8435 349.531M54.1121 318.301L42.8435 349.531M54.1121 318.301L125.523 325.128M42.8435 349.531L38.4541 381.165M42.8435 349.531L115.572 353.925M125.523 325.128L115.572 353.925M125.523 325.128L197.984 333.875M115.572 353.925L111.966 383.069M115.572 353.925L189.29 360.211M197.984 333.875L189.29 360.211M197.984 333.875L270.551 344.191M189.29 360.211L186.4 386.837M189.29 360.211L263.041 368.069M270.551 344.191L263.041 368.069M270.551 344.191L342.422 358.646M263.041 368.069L260.79 392.177M263.041 368.069L336.008 380.094M342.422 358.646L336.008 380.094M342.422 358.646L412.762 379.908M336.008 380.094L334.314 401.728M336.008 380.094L407.35 399.004M412.762 379.908L407.35 399.004M412.762 379.908L480.644 408.24M407.35 399.004L406.129 418.245M407.35 399.004L476.133 425.076M480.644 408.24L476.133 425.076M480.644 408.24L545.143 443.25M476.133 425.076L475.296 442.025M476.133 425.076L541.42 457.944M545.143 443.25L541.42 457.944M545.143 443.25L605.394 484.42M541.42 457.944L540.891 472.722M541.42 457.944L602.358 497.109M605.394 484.42L602.358 497.109M605.394 484.42L660.593 531.181M602.358 497.109L602.059 509.866M602.358 497.109L658.139 542.03M660.593 531.181L658.139 542.03M660.593 531.181L710.036 582.849M658.139 542.03L658.006 552.928M658.139 542.03L708.064 592.049M710.036 582.849L708.064 592.049M710.036 582.849L726.874 604.709M738.697 607.28L738.005 607.159M708.064 592.049L708.044 600.562M708.064 592.049L716.313 602.381M726.874 604.709L738.005 607.159M726.874 604.709L716.313 602.381M-310.127 391.384L-236.255 389.654M-236.255 389.654L-235.091 431.075M-236.255 389.654L-168.151 387.051M-235.091 431.075L-166.514 426.079M-168.151 387.051L-166.514 426.079M-168.151 387.051L-101.93 384.124M-166.514 426.079L-156.074 465.115M-166.514 426.079L-99.8967 420.824M-101.93 384.124L-99.8967 420.824M-101.93 384.124L-33.1342 381.788M-99.8967 420.824L-89.5821 457.499M-99.8967 420.824L-30.7536 416.078M-33.1342 381.788L-30.7536 416.078M-33.1342 381.788L38.4541 381.165M-30.7536 416.078L-20.641 450.312M-30.7536 416.078L41.1258 412.966M38.4541 381.165L41.1258 412.966M38.4541 381.165L111.966 383.069M41.1258 412.966L50.9594 444.685M41.1258 412.966L114.86 412.331M111.966 383.069L114.86 412.331M111.966 383.069L186.4 386.837M114.86 412.331L124.334 441.492M114.86 412.331L189.444 413.544M186.4 386.837L189.444 413.544M186.4 386.837L260.79 392.177M189.444 413.544L198.481 440.13M189.444 413.544L263.906 416.337M260.79 392.177L263.906 416.337M260.79 392.177L334.314 401.728M263.906 416.337L272.43 440.36M263.906 416.337L337.422 423.391M334.314 401.728L337.422 423.391M334.314 401.728L406.129 418.245M337.422 423.391L345.364 444.907M337.422 423.391L409.16 437.49M406.129 418.245L409.16 437.49M406.129 418.245L475.296 442.025M409.16 437.49L416.464 456.585M409.16 437.49L478.186 458.958M475.296 442.025L478.186 458.958M475.296 442.025L540.891 472.722M478.186 458.958L484.815 475.746M478.186 458.958L543.587 487.472M540.891 472.722L543.587 487.472M540.891 472.722L602.059 509.866M543.587 487.472L549.512 502.085M543.587 487.472L604.521 522.587M602.059 509.866L604.521 522.587M602.059 509.866L658.006 552.928M604.521 522.587L609.739 535.175M604.521 522.587L660.209 563.79M658.006 552.928L660.209 563.79M658.006 552.928L707.081 600.352M660.209 563.79L664.744 574.53M660.209 563.79L695.849 597.223M707.081 600.352L708.044 600.562M707.081 600.352L701.928 599.216M708.044 600.562L716.313 602.381M-156.074 465.115L-89.5821 457.499M-89.5821 457.499L-89.3719 457.911L-70.8808 493.855M-89.5821 457.499L-20.641 450.312M-70.8808 493.855L-2.7077 484.218M-20.641 450.312L-2.7077 484.218M-20.641 450.312L50.9594 444.685M-2.7077 484.218L-1.68492 485.536L23.0509 517.502M-2.7077 484.218L68.032 476.065M50.9594 444.685L68.032 476.065M50.9594 444.685L124.334 441.492M68.032 476.065L92.3193 506.843M68.032 476.065L140.445 470.313M124.334 441.492L140.445 470.313M124.334 441.492L198.481 440.13M140.445 470.313L163.164 498.548M140.445 470.313L213.549 466.376M198.481 440.13L213.549 466.376M198.481 440.13L272.43 440.36M213.549 466.376L234.611 492.068M213.549 466.376L286.382 464.056M272.43 440.36L286.382 464.056M272.43 440.36L345.364 444.907M286.382 464.056L305.722 487.226M286.382 464.056L358.149 466.109M345.364 444.907L358.149 466.109M345.364 444.907L416.464 456.585M358.149 466.109L375.726 486.817M358.149 466.109L428.039 475.382M416.464 456.585L428.039 475.382M416.464 456.585L484.815 475.746M428.039 475.382L443.839 493.73M428.039 475.382L495.166 492.254M484.815 475.746L495.166 492.254M484.815 475.746L549.512 502.085M495.166 492.254L509.195 508.35M495.166 492.254L558.65 516.443M549.512 502.085L558.65 516.443M549.512 502.085L609.739 535.175M558.65 516.443L570.958 530.429M558.65 516.443L617.705 547.532M609.739 535.175L617.705 547.532M609.739 535.175L664.744 574.53M617.705 547.532L628.363 559.561M617.705 547.532L671.595 585.064M664.744 574.53L671.595 585.064M664.744 574.53L685.955 593.973M695.849 597.223L685.955 593.973M695.849 597.223L701.928 599.216M671.595 585.064L676.869 590.99M671.595 585.064L678.898 591.657M685.955 593.973L678.898 591.657M23.0509 517.502L56.5815 549.876M23.0509 517.502L92.3193 506.843M56.5815 549.876L97.7394 581.046M56.5815 549.876L123.773 536.751M92.3193 506.843L123.773 536.751M92.3193 506.843L163.164 498.548M123.773 536.751L162.234 565.516M123.773 536.751L192.427 525.958M163.164 498.548L192.427 525.958M163.164 498.548L234.611 492.068M192.427 525.958L228.079 552.302M192.427 525.958L261.594 516.98M234.611 492.068L261.594 516.98M234.611 492.068L305.722 487.226M261.594 516.98L294.353 540.902M261.594 516.98L330.377 509.672M305.722 487.226L330.377 509.672M305.722 487.226L375.726 486.817M330.377 509.672L360.198 531.201M330.377 509.672L398.021 506.863M375.726 486.817L398.021 506.863M375.726 486.817L443.839 493.73M398.021 506.863L424.899 526.071M398.021 506.863L463.781 511.467M443.839 493.73L463.781 511.467M443.839 493.73L509.195 508.35M463.781 511.467L487.745 528.452M463.781 511.467L526.829 523.905M509.195 508.35L526.829 523.905M509.195 508.35L570.958 530.429M526.829 523.905L547.952 538.78M526.829 523.905L586.365 543.926M570.958 530.429L586.365 543.926M570.958 530.429L628.363 559.561M586.365 543.926L604.767 556.833M586.365 543.926L641.661 571.167M628.363 559.561L641.661 571.167M628.363 559.561L671.053 588.714M641.661 571.167L657.501 582.246M641.661 571.167L661.288 584.417M671.053 588.714L663.766 585.836M671.053 588.714L676.586 590.897M97.7394 581.046L146.318 610.716M97.7394 581.046L162.234 565.516M146.318 610.716L202.002 638.603M146.318 610.716L207.511 592.873M162.234 565.516L207.511 592.873M162.234 565.516L228.079 552.302M207.511 592.873L259.298 618.566M207.511 592.873L269.928 577.331M228.079 552.302L269.928 577.331M228.079 552.302L294.353 540.902M269.928 577.331L317.694 600.812M269.928 577.331L332.705 563.612M294.353 540.902L332.705 563.612M294.353 540.902L360.198 531.201M332.705 563.612L376.381 584.898M332.705 563.612L395.018 551.622M360.198 531.201L395.018 551.622M360.198 531.201L424.899 526.071M395.018 551.622L434.591 570.75M395.018 551.622L456.199 544.274M424.899 526.071L456.199 544.274M424.899 526.071L487.745 528.452M456.199 544.274L491.698 561.308M456.199 544.274L515.581 544.528M487.745 528.452L515.581 544.528M487.745 528.452L547.952 538.78M515.581 544.528L547.091 559.565M515.581 544.528L572.433 552.851M547.952 538.78L572.433 552.851M547.952 538.78L604.767 556.833M572.433 552.851L600.091 566.001M572.433 552.851L626.043 569.028M604.767 556.833L626.043 569.028M604.767 556.833L657.501 582.246M626.043 569.028L650.044 580.415M657.501 582.246L661.288 584.417M663.766 585.836L661.288 584.417M663.766 585.836L662.86 585.476L661.494 584.939L650.044 580.415M202.002 638.603L264.419 664.417M202.002 638.603L259.298 618.566M264.419 664.417L333.094 687.902M264.419 664.417L317.246 642.33M259.298 618.566L317.246 642.33M259.298 618.566L317.694 600.812M317.246 642.33L380.912 663.936M317.246 642.33L371.05 622.519M317.694 600.812L371.05 622.519M317.694 600.812L376.381 584.898M371.05 622.519L429.588 642.237M371.05 622.519L425.085 604.555M376.381 584.898L425.085 604.555M376.381 584.898L434.591 570.75M425.085 604.555L478.437 622.402M425.085 604.555L478.639 588.403M434.591 570.75L478.639 588.403M434.591 570.75L491.698 561.308M478.639 588.403L526.821 604.414M478.639 588.403L531.142 577.012M491.698 561.308L493.594 562.059L531.142 577.012M491.698 561.308L547.091 559.565M531.142 577.012L574.232 591.252M531.142 577.012L582.044 573.422M547.091 559.565L582.044 573.422M547.091 559.565L600.091 566.001M582.044 573.422L620.179 585.973M582.044 573.422L630.724 578.111M600.091 566.001L630.724 578.111M600.091 566.001L649.825 580.355L650.044 580.415M676.586 590.897L676.869 590.99M676.586 590.897L665.924 587.926L665.427 587.784L630.724 578.111M676.869 590.99L678.898 591.657M701.928 599.216L699.956 598.783M630.724 578.111L664.101 589.07M333.094 687.902L407.491 708.809M333.094 687.902L380.912 663.936M407.491 708.809L486.973 726.906M407.491 708.809L449.801 683.153M380.912 663.936L449.801 683.153M380.912 663.936L429.588 642.237M449.801 683.153L523.325 699.786M449.801 683.153L492.846 659.764M429.588 642.237L492.846 659.764M429.588 642.237L478.437 622.402M492.846 659.764L560.295 674.927M492.846 659.764L536.02 638.256M478.437 622.402L536.02 638.256M478.437 622.402L526.821 604.414M536.02 638.256L597.363 651.963M536.02 638.256L578.762 618.626M526.821 604.414L578.762 618.626M526.821 604.414L574.232 591.252M578.762 618.626L634.038 630.907M578.762 618.626L620.631 603.884M574.232 591.252L620.631 603.884M574.232 591.252L620.179 585.973M620.631 603.884L660.496 597.215L661.191 597.098M620.631 603.884L669.954 614.79M620.179 585.973L622.183 586.515L661.191 597.098M620.179 585.973L664.101 589.07M661.191 597.098L689.742 603.391L690.078 603.468L704.749 606.702M661.191 597.098L699.568 598.767L699.956 598.783M664.101 589.07L669.994 590.666L670.911 590.917L673.429 591.596L673.612 591.645L676.489 592.425L678.672 593.019L699.956 598.783M1239.78 589.07L1246.59 588.544L1247.09 588.508L1279.96 585.973M1202.74 598.783L1208.03 598.524L1208.38 598.508L1237.58 597.098M1163.67 607.159L1192.85 606.702M1122.89 614.119L1146.13 614.685M1080.73 619.605L1097.8 620.979M1037.57 623.558L1048.29 625.514M993.747 625.947L998.023 628.255M949.646 626.747L947.423 629.173M905.643 625.947L896.937 628.255M862.113 623.558L847.005 625.514M819.424 619.605L798.05 620.979M777.938 614.119L750.499 614.685M738.005 607.159L704.749 606.702M486.973 726.906L570.861 741.999M486.973 726.906L523.325 699.786M570.861 741.999L542.431 770.732L541.752 771.415M570.861 741.999L600.236 714.237L600.859 713.647M570.861 741.999L658.39 753.924M523.325 699.786L600.859 713.647M523.325 699.786L560.295 674.927M600.859 713.647L631.363 687.555M600.859 713.647L681.707 724.594M560.295 674.927L594.655 653.636L597.363 651.963M560.295 674.927L631.363 687.555M631.363 687.555L661.939 663.374M631.363 687.555L705.42 697.523M597.363 651.963L632.413 631.836L634.038 630.907M597.363 651.963L661.939 663.374M661.939 663.374L692.18 641.126M661.939 663.374L729.186 672.376M634.038 630.907L669.954 614.79M634.038 630.907L692.18 641.126M692.18 641.126L752.693 649.186M692.18 641.126L721.798 623.865M669.954 614.79L670.56 614.896L721.798 623.865M669.954 614.79L704.749 606.702M721.798 623.865L750.499 614.685M721.798 623.865L775.719 631.016M704.749 606.702L750.499 614.685M750.499 614.685L798.05 620.979M613.76 814.586L635.76 784.301M613.76 814.586L717.408 824.586M717.408 824.586L701.342 856.334M717.408 824.586L732.86 793.615M717.408 824.586L823.405 830.638M635.76 784.301L658.39 753.924M635.76 784.301L541.752 771.415M635.76 784.301L732.86 793.615M732.86 793.615L748.757 762.538M732.86 793.615L832.131 799.25M658.39 753.924L681.707 724.594M658.39 753.924L748.757 762.538M748.757 762.538L765.138 732.496M748.757 762.538L841.108 767.749M681.707 724.594L705.42 697.523M681.707 724.594L765.138 732.496M765.138 732.496L850.376 737.278M765.138 732.496L781.806 704.722M705.42 697.523L729.186 672.376M705.42 697.523L781.806 704.722M781.806 704.722L798.515 678.872M781.806 704.722L859.821 709.071M729.186 672.376L798.515 678.872M729.186 672.376L752.693 649.186M798.515 678.872L815.046 655.003M798.515 678.872L869.299 682.801M752.693 649.186L775.719 631.016M752.693 649.186L815.046 655.003M815.046 655.003L831.254 636.178M815.046 655.003L878.688 658.515M775.719 631.016L798.05 620.979M775.719 631.016L831.254 636.178M831.254 636.178L847.005 625.514M831.254 636.178L887.92 639.294M798.05 620.979L847.005 625.514M847.005 625.514L896.937 628.255M804.352 896.922L814.327 862.822M804.352 896.922L926.531 899.254M926.531 899.254L924.215 935.044M926.531 899.254L928.726 864.992M926.531 899.254L1049 896.922M814.327 862.822L823.405 830.638M814.327 862.822L701.342 856.334M814.327 862.822L928.726 864.992M928.726 864.992L930.706 832.663M928.726 864.992L1043.39 862.822M823.405 830.638L930.706 832.663M823.405 830.638L832.131 799.25M930.706 832.663L932.61 801.133M930.706 832.663L1038.26 830.638M832.131 799.25L841.108 767.749M832.131 799.25L932.61 801.133M932.61 801.133L934.575 769.491M932.61 801.133L1033.32 799.25M841.108 767.749L850.376 737.278M841.108 767.749L934.575 769.491M934.575 769.491L936.624 738.875M934.575 769.491L1028.26 767.749M850.376 737.278L859.821 709.071M850.376 737.278L936.624 738.875M936.624 738.875L938.746 710.527M936.624 738.875L1023.07 737.278M859.821 709.071L869.299 682.801M859.821 709.071L938.746 710.527M938.746 710.527L940.9 684.115M938.746 710.527L1017.85 709.071M869.299 682.801L878.688 658.515M869.299 682.801L940.9 684.115M940.9 684.115L943.05 659.691M940.9 684.115L1012.66 682.801M878.688 658.515L887.92 639.294M878.688 658.515L943.05 659.691M943.05 659.691L945.221 640.337M943.05 659.691L1007.56 658.515M887.92 639.294L896.937 628.255M887.92 639.294L945.221 640.337M945.221 640.337L947.423 629.173M945.221 640.337L1002.65 639.294M896.937 628.255L947.423 629.173M947.423 629.173L998.023 628.255M1049 896.922L1043.39 862.822M1043.39 862.822L1038.26 830.638M1043.39 862.822L1157.18 856.334M1157.18 856.334L1145.01 824.586M1038.26 830.638L1033.32 799.25M1038.26 830.638L1145.01 824.586M1145.01 824.586L1133.29 793.615M1145.01 824.586L1249.9 814.586M1033.32 799.25L1028.26 767.749M1033.32 799.25L1133.29 793.615M1133.29 793.615L1121.25 762.538M1133.29 793.615L1231.55 784.301M1028.26 767.749L1023.07 737.278M1028.26 767.749L1121.25 762.538M1121.25 762.538L1121.12 762.215L1108.9 732.496M1121.25 762.538L1212.69 753.924M1023.07 737.278L1017.85 709.071M1023.07 737.278L1108.9 732.496M1108.9 732.496L1096.41 704.722M1108.9 732.496L1193.31 724.594M1017.85 709.071L1012.66 682.801M1017.85 709.071L1096.41 704.722M1096.41 704.722L1083.93 678.872M1096.41 704.722L1173.68 697.523M1012.66 682.801L1007.56 658.515M1012.66 682.801L1083.93 678.872M1083.93 678.872L1071.64 655.003M1083.93 678.872L1154.06 672.376M1007.56 658.515L1002.65 639.294M1007.56 658.515L1071.64 655.003M1071.64 655.003L1059.7 636.178M1071.64 655.003L1134.7 649.186M1002.65 639.294L998.023 628.255M1002.65 639.294L1059.7 636.178M1059.7 636.178L1048.29 625.514M1059.7 636.178L1115.87 631.016M998.023 628.255L1048.29 625.514M1048.29 625.514L1097.8 620.979M1249.9 814.586L1231.55 784.301M1231.55 784.301L1212.69 753.924M1231.55 784.301L1327.15 771.415M1327.15 771.415L1301.7 741.999M1212.69 753.924L1193.31 724.594M1212.69 753.924L1301.7 741.999M1301.7 741.999L1275.52 713.647M1301.7 741.999L1387.46 726.906M1193.31 724.594L1195.39 724.315L1275.52 713.647M1193.31 724.594L1173.68 697.523M1275.52 713.647L1248.98 687.555M1275.52 713.647L1354.77 699.786M1173.68 697.523L1248.98 687.555M1173.68 697.523L1154.06 672.376M1248.98 687.555L1222.43 663.374M1248.98 687.555L1321.61 674.927M1154.06 672.376L1170.95 670.153L1171.03 670.141L1171.24 670.112L1222.43 663.374M1154.06 672.376L1134.7 649.186M1222.43 663.374L1196.21 641.126M1222.43 663.374L1288.41 651.963M1134.7 649.186L1115.87 631.016M1134.7 649.186L1196.21 641.126M1196.21 641.126L1195.23 640.467L1170.67 623.865M1196.21 641.126L1255.62 630.907M1115.87 631.016L1097.8 620.979M1115.87 631.016L1170.67 623.865M1170.67 623.865L1146.13 614.685M1170.67 623.865L1223.63 614.79M1097.8 620.979L1146.13 614.685M1146.13 614.685L1192.85 606.702M1387.46 726.906L1469.19 708.809M1387.46 726.906L1354.77 699.786M1469.19 708.809L1546.18 687.902M1469.19 708.809L1430.36 683.153M1354.77 699.786L1430.36 683.153M1354.77 699.786L1321.61 674.927M1430.36 683.153L1501.63 663.936M1430.36 683.153L1390.94 659.764M1321.61 674.927L1288.41 651.963M1321.61 674.927L1390.94 659.764M1390.94 659.764L1456.37 642.237M1390.94 659.764L1351.45 638.256M1288.41 651.963L1255.62 630.907M1288.41 651.963L1351.45 638.256M1351.45 638.256L1410.99 622.402M1351.45 638.256L1312.41 618.626M1255.62 630.907L1223.63 614.79M1255.62 630.907L1312.41 618.626M1312.41 618.626L1274.71 604.046L1274.3 603.884M1312.41 618.626L1366.11 604.414M1223.63 614.79L1274.3 603.884M1223.63 614.79L1192.85 606.702M1274.3 603.884L1322.24 591.252M1274.3 603.884L1238 597.174L1237.58 597.098M1192.85 606.702L1237.58 597.098M1237.58 597.098L1238.36 596.895L1279.96 585.973M1546.18 687.902L1501.63 663.936M1501.63 663.936L1456.37 642.237M1456.37 642.237L1410.99 622.402M1410.99 622.402L1366.11 604.414M1366.11 604.414L1322.24 591.252M1322.24 591.252L1279.96 585.973" stroke="url(#paint0_linear_12_11511)" stroke-width="1.5"/>
<defs>
<linearGradient id="paint0_linear_12_11511" x1="961.064" y1="1205.63" x2="892.795" y2="-144.392" gradientUnits="userSpaceOnUse">
<stop offset="0.429291" stop-color="white"/>
<stop offset="0.989245" stop-color="white"/>
</linearGradient>
</defs>
</svg>
