<svg width="133" height="129" viewBox="0 0 133 129" fill="none" xmlns="http://www.w3.org/2000/svg">
<g filter="url(#filter0_d_386_1601)">
<path d="M63.4991 80.7566C59.5704 67.524 67.1127 53.612 80.3453 49.6833C93.5779 45.7546 107.49 53.2969 111.419 66.5295C115.347 79.7621 107.805 93.6741 94.5724 97.6028C81.3398 101.532 67.4278 93.9892 63.4991 80.7566Z" fill="#2D2D2D"/>
</g>
<g filter="url(#filter1_bd_386_1601)">
<path d="M42.4605 15.3715C39.5422 20.6983 36.8576 24.9026 39.4282 32.8859C40.7214 36.9024 44.3341 40.8355 47.2687 43.4574C45.9548 44.405 43.5547 45.5635 41.9295 46.0868C33.5908 48.7718 24.6544 44.1885 21.9695 35.8499C19.2845 27.5112 23.8678 18.5748 32.2064 15.8899C35.3564 14.8756 39.5092 14.5008 42.4605 15.3715Z" fill="white" fill-opacity="0.1" shape-rendering="crispEdges"/>
<path d="M75.839 56.9918C76.6938 59.6468 75.6607 62.4577 73.4817 63.9876L75.0149 63.4143C76.716 62.8666 78.1977 61.799 79.237 60.3677L86.4988 50.3869C88.3116 47.8967 91.7011 47.0584 94.4509 48.4211C97.5051 49.9346 98.6852 53.5995 97.0867 56.607L91.4936 67.1514C89.988 69.9897 87.6597 72.3464 84.8097 73.9178L74.02 79.8636C71.8802 81.0418 69.5098 81.746 67.0736 81.9231L55.8482 82.7453C54.5044 82.8406 53.1784 83.0988 51.8938 83.5125C50.5299 83.9516 49.8479 84.1712 49.2379 84.1521C48.1813 84.1189 47.1954 83.6132 46.5519 82.7745C46.1804 82.2902 45.9608 81.6083 45.5217 80.2444L41.817 68.7389C41.5082 67.7799 41.3539 67.3004 41.3347 66.8188C41.3177 66.3923 41.3784 65.9661 41.5138 65.5613C41.6666 65.1042 41.9486 64.6868 42.5128 63.8521L45.4865 59.4525C45.4865 59.4525 51.0863 54.2477 54.7281 53.075C56.2367 52.5893 57.7965 52.2897 59.3789 52.1812L69.104 51.5203C71.9631 51.324 74.5836 53.0931 75.4578 55.8081L75.839 56.9918Z" fill="white" fill-opacity="0.1" shape-rendering="crispEdges"/>
<path fill-rule="evenodd" clip-rule="evenodd" d="M27.3051 60.5523C27.3347 60.5428 27.3643 60.5333 27.3939 60.5237C27.4236 60.5142 27.4532 60.5047 27.4827 60.4951C28.1875 60.2681 28.874 60.047 29.4709 59.8988C30.1237 59.7367 30.914 59.5951 31.804 59.6675C33.6675 59.8192 35.3945 60.7049 36.605 62.1298C37.1831 62.8104 37.5292 63.5348 37.7785 64.1595C38.0064 64.7308 38.2274 65.4173 38.4542 66.1221C38.4637 66.1517 38.4733 66.1813 38.4828 66.2109L43.9131 83.0759C44.1401 83.7806 44.3612 84.4671 44.5094 85.064C44.6715 85.7168 44.8131 86.5071 44.7407 87.3971C44.5891 89.2606 43.7034 90.9876 42.2784 92.1981C41.5979 92.7762 40.8734 93.1223 40.2487 93.3715C39.6775 93.5995 38.9909 93.8205 38.2861 94.0473L38.1085 94.1045C37.4037 94.3315 36.7172 94.5526 36.1203 94.7009C35.4675 94.8629 34.6772 95.0046 33.7872 94.9321C31.9237 94.7805 30.1967 93.8948 28.9862 92.4698C28.4081 91.7893 28.062 91.0649 27.8128 90.4401C27.5848 89.8689 27.3638 89.1823 27.137 88.4775L21.7067 71.6126C21.6972 71.583 21.6876 71.5534 21.6781 71.5238C21.4511 70.8191 21.23 70.1325 21.0818 69.5356C20.9197 68.8829 20.7781 68.0926 20.8505 67.2026C21.0021 65.339 21.8879 63.6121 23.3128 62.4016C23.9933 61.8235 24.7178 61.4773 25.3425 61.2281C25.9137 61.0002 26.6003 60.7792 27.3051 60.5523Z" fill="white" fill-opacity="0.1" shape-rendering="crispEdges"/>
<path d="M73.6568 64.456L73.1943 63.5784C75.2004 62.1699 76.1484 59.5842 75.363 57.145L74.9819 55.9613C74.1786 53.4664 71.7695 51.8385 69.1382 52.0191L69.1378 52.0192L59.4131 52.68C57.8711 52.7857 56.3512 53.0777 54.8813 53.551C53.1543 54.1071 50.9064 55.6483 49.0493 57.0977C48.1304 57.8147 47.3237 58.496 46.7466 58.9981C46.4582 59.2491 46.2275 59.4549 46.0693 59.5977C45.9902 59.6691 45.9292 59.7248 45.8882 59.7624L45.8682 59.7807L42.9271 64.1321C42.3471 64.9902 42.114 65.3428 41.988 65.7198C41.8718 66.0672 41.8198 66.4329 41.8343 66.799C41.8501 67.1962 41.9755 67.5998 42.293 68.5856L45.9976 80.0912C46.4498 81.4957 46.6431 82.0719 46.9486 82.4701C47.5008 83.1899 48.3469 83.6238 49.2536 83.6523C49.7553 83.6681 50.336 83.4888 51.7405 83.0365C53.0626 82.6108 54.4278 82.3449 55.8117 82.2467L73.6568 64.456ZM73.6568 64.456L75.1793 63.8867M73.6568 64.456L75.1793 63.8867M75.1793 63.8867C76.975 63.3059 78.541 62.177 79.6413 60.6619L75.1793 63.8867ZM67.0371 81.4244L55.8129 82.2466L79.6416 60.6615L86.903 50.6811C86.9031 50.6811 86.9031 50.6811 86.9031 50.681C88.5733 48.3868 91.6988 47.6153 94.2289 48.8691C97.031 50.2577 98.1113 53.614 96.6452 56.3723L96.645 56.3727L91.0518 66.9171C89.5925 69.6683 87.3344 71.9548 84.5683 73.48L73.7788 79.4256C71.7019 80.5692 69.4013 81.2526 67.0374 81.4244L67.0371 81.4244ZM41.7125 15.6942C41.6703 15.7706 41.6282 15.847 41.5862 15.9232C40.2931 18.267 39.0626 20.4976 38.4025 23.0052C37.6613 25.8209 37.6405 28.9654 38.9522 33.0392C40.2178 36.9698 43.6033 40.7722 46.4601 43.3993C45.1412 44.2358 43.1643 45.164 41.7762 45.6109C33.7004 48.2112 25.0457 43.7724 22.4454 35.6966C19.8451 27.6208 24.2839 18.9661 32.3597 16.3658C35.2346 15.4401 38.9363 15.07 41.7125 15.6942ZM27.4583 61.0283L27.5472 60.9997L27.636 60.971C28.3455 60.7425 29.0144 60.5273 29.5914 60.3841C30.2192 60.2282 30.9499 60.0997 31.7634 60.1659C33.4948 60.3068 35.0993 61.1297 36.2239 62.4535C36.7523 63.0756 37.0744 63.744 37.314 64.3448C37.5344 64.897 37.7499 65.5658 37.9783 66.2753L38.0069 66.3642L43.4372 83.2291C43.6657 83.9386 43.8809 84.6075 44.0242 85.1845C44.1801 85.8123 44.3086 86.543 44.2424 87.3565C44.1015 89.0879 43.2786 90.6924 41.9547 91.817C41.3327 92.3454 40.6642 92.6675 40.0634 92.9071C39.5113 93.1274 38.8424 93.343 38.1329 93.5714L37.9552 93.6286C37.2457 93.8571 36.5768 94.0723 35.9998 94.2156C35.3721 94.3715 34.6413 94.5 33.8278 94.4338C32.0964 94.2929 30.4919 93.47 29.3673 92.1461C28.8389 91.5241 28.5169 90.8556 28.2772 90.2549C28.0569 89.7027 27.8413 89.0338 27.613 88.3243L22.1827 71.4594L22.154 71.3705C21.9255 70.6611 21.7103 69.9921 21.567 69.4151C21.4112 68.7874 21.2827 68.0566 21.3488 67.2431C21.4897 65.5118 22.3126 63.9073 23.6365 62.7826C24.2586 62.2542 24.927 61.9322 25.5278 61.6925C26.0799 61.4722 26.7488 61.2567 27.4583 61.0283Z" stroke="url(#paint0_linear_386_1601)" stroke-opacity="0.5" shape-rendering="crispEdges"/>
</g>
<g filter="url(#filter2_d_386_1601)">
<circle cx="64.8333" cy="25.5005" r="15.5" fill="#EEFF00"/>
</g>
<ellipse cx="29.9176" cy="17.0005" rx="0.160718" ry="10" fill="url(#paint1_linear_386_1601)"/>
<ellipse cx="-0.208336" cy="2.9167" rx="-0.208336" ry="2.9167" transform="matrix(0.707114 -0.7071 0.707114 0.7071 28.042 14.7954)" fill="url(#paint2_linear_386_1601)"/>
<ellipse cx="-0.208336" cy="2.9167" rx="-0.208336" ry="2.9167" transform="matrix(0.707114 0.7071 -0.707114 0.7071 32.167 15.0894)" fill="url(#paint3_linear_386_1601)"/>
<ellipse cx="29.9175" cy="16.9999" rx="0.160715" ry="10.0002" transform="rotate(-90 29.9175 16.9999)" fill="url(#paint4_linear_386_1601)"/>
<g opacity="0.5">
<ellipse cx="88.1607" cy="70.6672" rx="0.160718" ry="6.66669" fill="url(#paint5_linear_386_1601)"/>
<ellipse cx="88.0001" cy="70.9238" rx="0.160715" ry="6.66682" transform="rotate(-90 88.0001 70.9238)" fill="url(#paint6_linear_386_1601)"/>
</g>
<defs>
<filter id="filter0_d_386_1601" x="42.4589" y="38.6431" width="90" height="90" filterUnits="userSpaceOnUse" color-interpolation-filters="sRGB">
<feFlood flood-opacity="0" result="BackgroundImageFix"/>
<feColorMatrix in="SourceAlpha" type="matrix" values="0 0 0 0 0 0 0 0 0 0 0 0 0 0 0 0 0 0 127 0" result="hardAlpha"/>
<feOffset dy="10"/>
<feGaussianBlur stdDeviation="10"/>
<feComposite in2="hardAlpha" operator="out"/>
<feColorMatrix type="matrix" values="0 0 0 0 0 0 0 0 0 0 0 0 0 0 0 0 0 0 0.2 0"/>
<feBlend mode="normal" in2="BackgroundImageFix" result="effect1_dropShadow_386_1601"/>
<feBlend mode="normal" in="SourceGraphic" in2="effect1_dropShadow_386_1601" result="shape"/>
</filter>
<filter id="filter1_bd_386_1601" x="-25.1689" y="-31.1147" width="168.969" height="172.066" filterUnits="userSpaceOnUse" color-interpolation-filters="sRGB">
<feFlood flood-opacity="0" result="BackgroundImageFix"/>
<feGaussianBlur in="BackgroundImageFix" stdDeviation="23"/>
<feComposite in2="SourceAlpha" operator="in" result="effect1_backgroundBlur_386_1601"/>
<feColorMatrix in="SourceAlpha" type="matrix" values="0 0 0 0 0 0 0 0 0 0 0 0 0 0 0 0 0 0 127 0" result="hardAlpha"/>
<feOffset dy="10"/>
<feGaussianBlur stdDeviation="10"/>
<feComposite in2="hardAlpha" operator="out"/>
<feColorMatrix type="matrix" values="0 0 0 0 0 0 0 0 0 0 0 0 0 0 0 0 0 0 0.1 0"/>
<feBlend mode="normal" in2="effect1_backgroundBlur_386_1601" result="effect2_dropShadow_386_1601"/>
<feBlend mode="normal" in="SourceGraphic" in2="effect2_dropShadow_386_1601" result="shape"/>
</filter>
<filter id="filter2_d_386_1601" x="29.3333" y="0.000488281" width="71" height="71" filterUnits="userSpaceOnUse" color-interpolation-filters="sRGB">
<feFlood flood-opacity="0" result="BackgroundImageFix"/>
<feColorMatrix in="SourceAlpha" type="matrix" values="0 0 0 0 0 0 0 0 0 0 0 0 0 0 0 0 0 0 127 0" result="hardAlpha"/>
<feOffset dy="10"/>
<feGaussianBlur stdDeviation="10"/>
<feComposite in2="hardAlpha" operator="out"/>
<feColorMatrix type="matrix" values="0 0 0 0 0 0 0 0 0 0 0 0 0 0 0 0 0 0 0.2 0"/>
<feBlend mode="normal" in2="BackgroundImageFix" result="effect1_dropShadow_386_1601"/>
<feBlend mode="normal" in="SourceGraphic" in2="effect1_dropShadow_386_1601" result="shape"/>
</filter>
<linearGradient id="paint0_linear_386_1601" x1="13.9865" y1="34.5378" x2="87.3937" y2="90.0584" gradientUnits="userSpaceOnUse">
<stop stop-color="white"/>
<stop offset="1" stop-color="white" stop-opacity="0"/>
</linearGradient>
<linearGradient id="paint1_linear_386_1601" x1="29.9176" y1="7.00049" x2="29.9176" y2="27.0005" gradientUnits="userSpaceOnUse">
<stop stop-color="white" stop-opacity="0"/>
<stop offset="0.504792" stop-color="white"/>
<stop offset="1" stop-color="white" stop-opacity="0"/>
</linearGradient>
<linearGradient id="paint2_linear_386_1601" x1="-0.208336" y1="0" x2="-0.208336" y2="5.83341" gradientUnits="userSpaceOnUse">
<stop stop-color="white" stop-opacity="0"/>
<stop offset="0.504792" stop-color="white"/>
<stop offset="1" stop-color="white" stop-opacity="0"/>
</linearGradient>
<linearGradient id="paint3_linear_386_1601" x1="-0.208336" y1="0" x2="-0.208336" y2="5.83341" gradientUnits="userSpaceOnUse">
<stop stop-color="white" stop-opacity="0"/>
<stop offset="0.504792" stop-color="white"/>
<stop offset="1" stop-color="white" stop-opacity="0"/>
</linearGradient>
<linearGradient id="paint4_linear_386_1601" x1="29.9175" y1="6.9997" x2="29.9175" y2="27.0002" gradientUnits="userSpaceOnUse">
<stop stop-color="white" stop-opacity="0"/>
<stop offset="0.504792" stop-color="white"/>
<stop offset="1" stop-color="white" stop-opacity="0"/>
</linearGradient>
<linearGradient id="paint5_linear_386_1601" x1="88.1607" y1="64.0005" x2="88.1607" y2="77.3339" gradientUnits="userSpaceOnUse">
<stop stop-color="white" stop-opacity="0"/>
<stop offset="0.504792" stop-color="white"/>
<stop offset="1" stop-color="white" stop-opacity="0"/>
</linearGradient>
<linearGradient id="paint6_linear_386_1601" x1="88.0001" y1="64.2569" x2="88.0001" y2="77.5906" gradientUnits="userSpaceOnUse">
<stop stop-color="white" stop-opacity="0"/>
<stop offset="0.504792" stop-color="white"/>
<stop offset="1" stop-color="white" stop-opacity="0"/>
</linearGradient>
</defs>
</svg>
