<svg width="136" height="130" viewBox="0 0 136 130" fill="none" xmlns="http://www.w3.org/2000/svg">
<g filter="url(#filter0_d_12_11961)">
<path d="M116 46.0909C116 38.861 110.139 33 102.909 33C95.6792 33 89.8182 38.861 89.8182 46.0909C89.8182 53.3208 95.6792 59.1818 102.909 59.1818C110.139 59.1818 116 53.3208 116 46.0909Z" fill="#2D2D2D"/>
<path d="M69.0261 49.5766C71.5895 49.3663 75.1666 49.3636 80.2146 49.3636H81.6363C83.4438 49.3636 84.909 47.8984 84.909 46.0909C84.909 44.2834 83.4438 42.8182 81.6363 42.8182H80.0502C75.2029 42.8182 71.3551 42.8181 68.4911 43.053C67.0324 43.1727 65.6821 43.3629 64.5001 43.6976C63.3214 44.0314 62.1069 44.5646 61.1132 45.5049C58.6589 47.8273 57.5712 51.2485 58.2338 54.5618C58.5021 55.9032 59.1858 57.0399 59.9554 57.9931C60.7271 58.9489 61.7197 59.884 62.8415 60.824C65.044 62.6696 68.1854 64.8916 72.1427 67.6906L78.8985 72.4691L78.9283 72.4904L85.5794 77.1948C89.7007 80.1099 92.6195 82.1777 94.5909 83.8296C95.5685 84.6488 96.1983 85.2726 96.5881 85.7553C96.9107 86.155 96.9792 86.3486 96.9861 86.369C97.2019 87.4666 96.8421 88.5985 96.0321 89.37C96.0146 89.3826 95.8469 89.5013 95.3527 89.6412C94.7557 89.8102 93.8813 89.9558 92.6101 90.0601C90.0468 90.2703 86.4697 90.273 81.4216 90.273H78.3636C76.5561 90.273 75.0909 91.7382 75.0909 93.5457C75.0909 95.3532 76.5561 96.8185 78.3636 96.8185H81.586C86.4333 96.8185 90.2812 96.8185 93.1452 96.5836C94.6038 96.464 95.9542 96.2737 97.1361 95.939C98.3149 95.6052 99.5294 95.072 100.523 94.1318C102.977 91.8094 104.065 88.3882 103.402 85.0749C103.134 83.7334 102.45 82.5968 101.681 81.6435C100.909 80.6878 99.9166 79.7526 98.7948 78.8126C97.834 78.0076 96.6946 77.1309 95.3868 76.166C95.2627 76.0442 95.1273 75.9306 94.9807 75.827L76.0569 62.4418C71.9356 59.5268 69.0167 57.4589 67.0454 55.807C66.0678 54.9879 65.4379 54.364 65.0482 53.8813C64.7256 53.4817 64.6571 53.288 64.6501 53.2677C64.4343 52.17 64.7942 51.0381 65.6042 50.2666C65.6216 50.254 65.7893 50.1354 66.2835 49.9955C66.8805 49.8264 67.755 49.6808 69.0261 49.5766Z" fill="#2D2D2D"/>
</g>
<g filter="url(#filter1_bd_12_11961)">
<path d="M77.4781 17.1921C86.1634 12.4151 95.9265 9.93964 105.839 10.0011C108.14 10.0154 109.999 11.8853 109.999 14.187C109.999 25.065 107.177 43.413 89.992 58.3903C87.3691 60.6763 86.099 64.1703 86.5437 67.621C86.8498 69.9961 87.0221 72.73 86.772 75.4203C86.5253 78.0745 85.8401 80.9954 84.1797 83.4861L84.176 83.4916C81.334 87.74 75.9738 90.2032 72.2295 91.5614C70.2174 92.2912 68.3584 92.8089 67.0058 93.1444C65.9862 93.3973 65.2381 93.5508 64.8989 93.6171C63.6087 93.8624 62.2943 93.6045 61.2701 92.7495C60.3174 91.9542 59.7668 90.7771 59.7668 89.5361V77.4842C59.7668 72.9092 57.9494 68.5216 54.7144 65.2866C51.4794 62.0516 47.0917 60.2342 42.5168 60.2342H30.4648C29.2237 60.2342 28.0467 59.6835 27.2514 58.7308C26.456 57.7781 26.1244 56.5216 26.3461 55.3005C26.4873 54.5265 26.6671 53.7585 26.8565 52.9951C27.192 51.6425 27.7097 49.7835 28.4395 47.7714C29.7977 44.0271 32.2608 38.6669 36.5093 35.8249L36.5148 35.8212C39.0054 34.1608 41.9264 33.4755 44.5806 33.2289C47.2708 32.9788 50.0048 33.1511 52.3798 33.4572C55.8489 33.9042 59.3517 32.6 61.6478 29.9613C66.1172 24.8251 71.4708 20.4961 77.4781 17.1921Z" fill="white" fill-opacity="0.1" shape-rendering="crispEdges"/>
<path fill-rule="evenodd" clip-rule="evenodd" d="M38.85 68.5573C35.5717 68.4559 32.3714 69.5684 29.8629 71.6813C27.6578 73.5345 26.0387 76.0875 24.8395 78.5426C23.6164 81.0466 22.6869 83.7489 21.9926 86.1761C21.2945 88.6167 20.8093 90.8677 20.4985 92.5049C20.3425 93.3265 20.229 94.0008 20.1537 94.476C20.1128 94.7341 20.0744 94.9925 20.0379 95.2512L20.037 95.2581C19.8641 96.5509 20.3036 97.8521 21.2259 98.7744C22.1482 99.6967 23.4513 100.136 24.7441 99.963C25.0045 99.9263 25.2645 99.8878 25.5242 99.8466C25.9995 99.7713 26.6738 99.6578 27.4953 99.5018C29.1326 99.1909 31.3836 98.7057 33.8241 98.0076C36.2514 97.3133 38.9536 96.3839 41.4576 95.1608C43.9119 93.962 46.4639 92.3436 48.317 90.1396C52.591 85.078 52.6548 77.1941 47.6801 72.2824L47.6293 72.233C45.2558 69.9677 42.1294 68.6587 38.85 68.5573Z" fill="white" fill-opacity="0.1" shape-rendering="crispEdges"/>
<path d="M30.185 72.0637L30.1845 72.0641C28.0554 73.8535 26.4735 76.3365 25.2887 78.7621C24.0828 81.2309 23.1628 83.9032 22.4733 86.3136C21.7805 88.7358 21.2986 90.9713 20.9897 92.5982C20.8347 93.4142 20.7221 94.0835 20.6475 94.5543C20.6072 94.8085 20.5694 95.0635 20.5332 95.3194C20.5331 95.32 20.5331 95.3205 20.533 95.3211L20.5326 95.3244L30.185 72.0637ZM30.185 72.0637C32.5992 70.0302 35.6793 68.9594 38.8345 69.057C41.9901 69.1546 44.9984 70.4139 47.2825 72.5933C47.283 72.5938 47.2835 72.5942 47.2841 72.5947L47.3288 72.6382C47.3293 72.6387 47.3298 72.6392 47.3303 72.6397C52.103 77.3536 52.0538 84.9392 47.935 89.8171L47.9343 89.8179M30.185 72.0637L47.9343 89.8179M47.9343 89.8179C46.145 91.9459 43.6629 93.5271 41.2382 94.7115C38.7693 95.9174 36.097 96.8374 33.6866 97.5269C31.2644 98.2198 29.0289 98.7017 27.402 99.0106C26.586 99.1655 25.9168 99.2781 25.4459 99.3528C25.1902 99.3933 24.9338 99.4313 24.6763 99.4676C23.538 99.6194 22.3909 99.2323 21.5794 98.4208C20.7676 97.609 20.3805 96.4634 20.5325 95.3249L47.9343 89.8179ZM77.719 17.6302C86.3296 12.8943 96.0087 10.4402 105.836 10.5011C107.862 10.5137 109.499 12.1602 109.499 14.187C109.499 24.9816 106.701 43.165 89.6635 58.0134C86.9102 60.413 85.5825 64.0744 86.0478 67.6849C86.3511 70.0381 86.5197 72.7327 86.2742 75.374C86.0316 77.9835 85.3608 80.8131 83.7637 83.2087L83.7604 83.2136C81.0152 87.3174 75.7948 89.7362 72.059 91.0913C70.0675 91.8137 68.2261 92.3266 66.8854 92.6591C65.8757 92.9096 65.1361 93.0613 64.8034 93.1263C63.6386 93.3472 62.4828 93.1106 61.5905 92.3657C60.7517 91.6654 60.2668 90.6289 60.2668 89.5361V77.4842C60.2668 72.7766 58.3967 68.2618 55.0679 64.933C51.7391 61.6042 47.2244 59.7342 42.5168 59.7342H30.4648C29.372 59.7342 28.3355 59.2493 27.6352 58.4104C26.9349 57.5715 26.6429 56.4653 26.838 55.3901C26.9764 54.6315 27.1533 53.8755 27.3418 53.1155C27.6743 51.7748 28.1872 49.9334 28.9096 47.9419C30.2646 44.2061 32.6835 38.9857 36.7873 36.2405L36.7921 36.2372C39.1878 34.6401 42.0173 33.9693 44.6268 33.7267C47.2681 33.4812 49.9627 33.6498 52.3159 33.9531C55.948 34.4212 59.6173 33.0565 62.025 30.2895C66.456 25.1975 71.7634 20.9057 77.719 17.6302Z" stroke="url(#paint0_linear_12_11961)" stroke-opacity="0.5" shape-rendering="crispEdges"/>
</g>
<g filter="url(#filter2_d_12_11961)">
<ellipse cx="86.0597" cy="27.4238" rx="14.9195" ry="7" transform="rotate(-37.1955 86.0597 27.4238)" fill="white"/>
</g>
<ellipse cx="55.5843" cy="33" rx="0.160718" ry="10" fill="url(#paint1_linear_12_11961)"/>
<ellipse cx="-0.208336" cy="2.9167" rx="-0.208336" ry="2.9167" transform="matrix(0.707114 -0.7071 0.707114 0.7071 53.7087 30.7949)" fill="url(#paint2_linear_12_11961)"/>
<ellipse cx="-0.208336" cy="2.9167" rx="-0.208336" ry="2.9167" transform="matrix(0.707114 0.7071 -0.707114 0.7071 57.8337 31.0889)" fill="url(#paint3_linear_12_11961)"/>
<ellipse cx="55.5842" cy="32.9994" rx="0.160715" ry="10.0002" transform="rotate(-90 55.5842 32.9994)" fill="url(#paint4_linear_12_11961)"/>
<g opacity="0.5">
<ellipse cx="17.8275" cy="64.6667" rx="0.160718" ry="6.66669" fill="url(#paint5_linear_12_11961)"/>
<ellipse cx="17.6668" cy="64.9233" rx="0.160715" ry="6.66682" transform="rotate(-90 17.6668 64.9233)" fill="url(#paint6_linear_12_11961)"/>
</g>
<defs>
<filter id="filter0_d_12_11961" x="38.043" y="23" width="97.957" height="103.818" filterUnits="userSpaceOnUse" color-interpolation-filters="sRGB">
<feFlood flood-opacity="0" result="BackgroundImageFix"/>
<feColorMatrix in="SourceAlpha" type="matrix" values="0 0 0 0 0 0 0 0 0 0 0 0 0 0 0 0 0 0 127 0" result="hardAlpha"/>
<feOffset dy="10"/>
<feGaussianBlur stdDeviation="10"/>
<feComposite in2="hardAlpha" operator="out"/>
<feColorMatrix type="matrix" values="0 0 0 0 0 0 0 0 0 0 0 0 0 0 0 0 0 0 0.2 0"/>
<feBlend mode="normal" in2="BackgroundImageFix" result="effect1_dropShadow_12_11961"/>
<feBlend mode="normal" in="SourceGraphic" in2="effect1_dropShadow_12_11961" result="shape"/>
</filter>
<filter id="filter1_bd_12_11961" x="0" y="-6" width="129.999" height="136" filterUnits="userSpaceOnUse" color-interpolation-filters="sRGB">
<feFlood flood-opacity="0" result="BackgroundImageFix"/>
<feGaussianBlur in="BackgroundImageFix" stdDeviation="8"/>
<feComposite in2="SourceAlpha" operator="in" result="effect1_backgroundBlur_12_11961"/>
<feColorMatrix in="SourceAlpha" type="matrix" values="0 0 0 0 0 0 0 0 0 0 0 0 0 0 0 0 0 0 127 0" result="hardAlpha"/>
<feOffset dy="10"/>
<feGaussianBlur stdDeviation="10"/>
<feComposite in2="hardAlpha" operator="out"/>
<feColorMatrix type="matrix" values="0 0 0 0 0 0 0 0 0 0 0 0 0 0 0 0 0 0 0.1 0"/>
<feBlend mode="normal" in2="effect1_backgroundBlur_12_11961" result="effect2_dropShadow_12_11961"/>
<feBlend mode="normal" in="SourceGraphic" in2="effect2_dropShadow_12_11961" result="shape"/>
</filter>
<filter id="filter2_d_12_11961" x="73.4408" y="16.8184" width="33.2378" height="29.2109" filterUnits="userSpaceOnUse" color-interpolation-filters="sRGB">
<feFlood flood-opacity="0" result="BackgroundImageFix"/>
<feColorMatrix in="SourceAlpha" type="matrix" values="0 0 0 0 0 0 0 0 0 0 0 0 0 0 0 0 0 0 127 0" result="hardAlpha"/>
<feOffset dx="4" dy="4"/>
<feGaussianBlur stdDeviation="2"/>
<feComposite in2="hardAlpha" operator="out"/>
<feColorMatrix type="matrix" values="0 0 0 0 0 0 0 0 0 0 0 0 0 0 0 0 0 0 0.25 0"/>
<feBlend mode="normal" in2="BackgroundImageFix" result="effect1_dropShadow_12_11961"/>
<feBlend mode="normal" in="SourceGraphic" in2="effect1_dropShadow_12_11961" result="shape"/>
</filter>
<linearGradient id="paint0_linear_12_11961" x1="32" y1="-5" x2="34.5026" y2="91.4999" gradientUnits="userSpaceOnUse">
<stop stop-color="white"/>
<stop offset="1" stop-color="white" stop-opacity="0"/>
</linearGradient>
<linearGradient id="paint1_linear_12_11961" x1="55.5843" y1="23" x2="55.5843" y2="43.0001" gradientUnits="userSpaceOnUse">
<stop stop-color="white" stop-opacity="0"/>
<stop offset="0.504792" stop-color="white"/>
<stop offset="1" stop-color="white" stop-opacity="0"/>
</linearGradient>
<linearGradient id="paint2_linear_12_11961" x1="-0.208336" y1="0" x2="-0.208336" y2="5.83341" gradientUnits="userSpaceOnUse">
<stop stop-color="white" stop-opacity="0"/>
<stop offset="0.504792" stop-color="white"/>
<stop offset="1" stop-color="white" stop-opacity="0"/>
</linearGradient>
<linearGradient id="paint3_linear_12_11961" x1="-0.208336" y1="0" x2="-0.208336" y2="5.83341" gradientUnits="userSpaceOnUse">
<stop stop-color="white" stop-opacity="0"/>
<stop offset="0.504792" stop-color="white"/>
<stop offset="1" stop-color="white" stop-opacity="0"/>
</linearGradient>
<linearGradient id="paint4_linear_12_11961" x1="55.5842" y1="22.9992" x2="55.5842" y2="42.9997" gradientUnits="userSpaceOnUse">
<stop stop-color="white" stop-opacity="0"/>
<stop offset="0.504792" stop-color="white"/>
<stop offset="1" stop-color="white" stop-opacity="0"/>
</linearGradient>
<linearGradient id="paint5_linear_12_11961" x1="17.8275" y1="58" x2="17.8275" y2="71.3334" gradientUnits="userSpaceOnUse">
<stop stop-color="white" stop-opacity="0"/>
<stop offset="0.504792" stop-color="white"/>
<stop offset="1" stop-color="white" stop-opacity="0"/>
</linearGradient>
<linearGradient id="paint6_linear_12_11961" x1="17.6668" y1="58.2565" x2="17.6668" y2="71.5901" gradientUnits="userSpaceOnUse">
<stop stop-color="white" stop-opacity="0"/>
<stop offset="0.504792" stop-color="white"/>
<stop offset="1" stop-color="white" stop-opacity="0"/>
</linearGradient>
</defs>
</svg>
