<svg width="29" height="24" viewBox="0 0 29 24" fill="none" xmlns="http://www.w3.org/2000/svg">
<path d="M0.324951 3.97968V19.6548C0.324951 19.736 0.36556 19.8578 0.406169 19.9391C0.446779 20.0203 0.527997 20.1015 0.609215 20.1421L7.47216 24V7.99998L0.324951 4.02028V3.97968Z" fill="#D5D5D5"/>
<path d="M21.7666 0L28.6295 3.85787C28.7108 3.89848 28.792 3.9797 28.8326 4.06091C28.8732 4.14213 28.9138 4.22335 28.9138 4.34518V20.0203L21.7666 16.0406V0.0406091V0Z" fill="#D5D5D5"/>
<path d="M7.47266 24L14.6199 19.9797L7.47266 16V24Z" fill="white"/>
<path d="M7.75642 0.162456L21.7666 8.00002V16L0.324951 4.02032L7.1879 0.162456C7.26911 0.121847 7.35033 0.0812378 7.47216 0.0812378C7.55338 0.0812378 7.6752 0.121847 7.75642 0.162456Z" fill="#F5F5F5"/>
<path d="M21.7663 0L14.6191 3.9797L21.7663 8V0Z" fill="#CDCDCD"/>
<path d="M28.9143 19.9797L22.0513 23.8376C21.9701 23.8782 21.8889 23.9188 21.7671 23.9188C21.6859 23.9188 21.564 23.8782 21.4828 23.8376L7.47266 16V8L28.9143 20.0203V19.9797Z" fill="#E1E1E1"/>
</svg>
