<svg width="32" height="32" viewBox="0 0 32 32" fill="none" xmlns="http://www.w3.org/2000/svg">
<path d="M31.5039 15.969V16C31.6279 18.4496 30.6667 20.4961 28.8682 21.6744C27.4109 22.5736 25.6434 22.6667 24.248 21.8605C22.6977 20.9922 21.7985 19.1938 21.7985 16.9612V13.9225C21.6744 14.0465 21.5814 14.2326 21.4574 14.4186L17.7675 20.4031C16.4961 22.4186 15.3178 22.5737 14.5426 22.3566C13.7674 22.1395 12.8372 21.3643 12.8372 18.9767V13.9845L6.10852 24.7752C8.46511 27.4419 11.876 29.1163 15.6899 29.1163C18.9457 29.1163 22.1085 27.845 24.4651 25.6124L24.4961 25.5814C25.0853 25.0543 25.9845 25.0853 26.5116 25.6744C27.0698 26.2636 27.0388 27.1628 26.4496 27.7209C23.5349 30.4806 19.7519 32 15.7519 32C7.06975 32 0 24.8062 0 16C0 7.16279 7.06975 0 15.7519 0C24.4031 0 31.4729 7.1628 31.5039 15.938V15.969Z" fill="white"/>
</svg>
