<svg width="33" height="32" viewBox="0 0 33 32" fill="none" xmlns="http://www.w3.org/2000/svg">
<path d="M10.6306 13.4471L16.8487 7.22907L23.0667 13.4471L26.6812 9.83254L16.8487 0L7.01611 9.83254L10.6306 13.4471Z" fill="white"/>
<path d="M4.46251 12.3911L0.852173 16.0015L4.46251 19.6118L8.07285 16.0015L4.46251 12.3911Z" fill="white"/>
<path d="M10.6306 18.5527L16.8487 24.7707L23.0667 18.5527L26.6812 22.1673L16.8487 31.9998L7.01611 22.1673L10.6306 18.5527Z" fill="white"/>
<path d="M29.2319 12.3915L25.6216 16.0018L29.2319 19.6122L32.8423 16.0018L29.2319 12.3915Z" fill="white"/>
<path d="M20.5133 16L16.8482 12.3349L14.1436 15.0395L13.815 15.3428L13.1831 16L16.8482 19.6651L20.5133 16Z" fill="white"/>
</svg>
