<svg xmlns="http://www.w3.org/2000/svg" fill="none" viewBox="15.481611208406305 7.378 101.22591943957968 80.92" style="max-height: 500px" width="101.22591943957968" height="80.92">
<g filter="url(#filter0_d_12_12051)">
<ellipse fill="#2D2D2D" ry="33.3333" rx="33.3338" cy="48.0022" cx="82.6677"/>
</g>
<g filter="url(#filter1_bd_12_12051)">
<ellipse shape-rendering="crispEdges" fill-opacity="0.1" fill="white" ry="39.9994" rx="40.0005" cy="48.0024" cx="56.0015"/>
<path shape-rendering="crispEdges" stroke-width="0.799998" stroke-opacity="0.5" stroke="url(#paint0_linear_12_12051)" d="M95.602 48.0024C95.602 69.8725 77.8723 87.6018 56.0015 87.6018C34.1307 87.6018 16.401 69.8725 16.401 48.0024C16.401 26.1322 34.1307 8.40293 56.0015 8.40293C77.8723 8.40293 95.602 26.1322 95.602 48.0024Z"/>
</g>
<path fill="white" d="M70.1826 53.7998V36.6689H73.627V53.7998H70.1826Z"/>
<path fill="white" d="M30.0483 58.8869H22.666V41.7588H29.7522C33.1939 41.7588 35.2029 43.6367 35.2029 46.571C35.2029 48.4729 33.9142 49.6973 33.0205 50.1081C34.085 50.5883 35.4483 51.6713 35.4483 53.9574C35.4483 57.153 33.1939 58.8869 30.0483 58.8869ZM29.48 44.7437H26.1077V48.689H29.48C30.9421 48.689 31.7612 47.8941 31.7612 46.715C31.7612 45.536 30.9421 44.7437 29.48 44.7437ZM29.7015 51.6953H26.1077V55.9046H29.6988C31.2623 55.9046 32.004 54.9417 32.004 53.7866C32.004 52.6316 31.2596 51.6953 29.7015 51.6953Z"/>
<path fill="white" d="M45.9521 51.8607V58.8869H42.5317V51.8607L37.2305 41.7588H40.9736L44.2659 48.6623L47.5129 41.7588H51.2534L45.9521 51.8607Z"/>
<path fill="white" d="M61.0156 58.8869H53.6333V41.7588H60.7195C64.1612 41.7588 66.1701 43.6367 66.1701 46.571C66.1701 48.4729 64.8815 49.6973 63.9877 50.1081C65.0523 50.5883 66.4156 51.6713 66.4156 53.9574C66.4156 57.153 64.1638 58.8869 61.0156 58.8869ZM60.4473 44.7437H57.0777V48.689H60.4473C61.9094 48.689 62.7284 47.8941 62.7284 46.715C62.7258 45.536 61.9067 44.7437 60.4473 44.7437ZM60.6688 51.6953H57.0777V55.9046H60.6688C62.2322 55.9046 62.9739 54.9417 62.9739 53.7866C62.9739 52.6316 62.2295 51.6953 60.6688 51.6953Z"/>
<path fill="white" d="M84.7263 44.7437V58.8896H81.2819V44.7437H76.6743V41.7588H89.3339V44.7437H84.7263Z"/>
<ellipse fill="url(#paint1_linear_12_12051)" ry="16" rx="0.257146" cy="24" cx="87.335"/>
<ellipse fill="url(#paint2_linear_12_12051)" transform="matrix(0.707112 -0.707102 0.707112 0.707102 84.3337 20.4727)" ry="4.66669" rx="-0.333335" cy="4.66669" cx="-0.333335"/>
<ellipse fill="url(#paint3_linear_12_12051)" transform="matrix(0.707112 0.707102 -0.707112 0.707102 90.9333 20.9434)" ry="4.66669" rx="-0.333335" cy="4.66669" cx="-0.333335"/>
<ellipse fill="url(#paint4_linear_12_12051)" transform="rotate(-90 87.3342 24.0007)" ry="16.0002" rx="0.257142" cy="24.0007" cx="87.3342"/>
<g opacity="0.5">
<ellipse fill="url(#paint5_linear_12_12051)" ry="10.6667" rx="0.257146" cy="74.6666" cx="26.9239"/>
<ellipse fill="url(#paint6_linear_12_12051)" transform="rotate(-90 26.6668 75.0788)" ry="10.6668" rx="0.257142" cy="75.0788" cx="26.6668"/>
</g>
<defs>
<filter color-interpolation-filters="sRGB" filterUnits="userSpaceOnUse" height="106.667" width="106.668" y="11.7356" x="29.3339" id="filter0_d_12_12051">
<feFlood result="BackgroundImageFix" flood-opacity="0"/>
<feColorMatrix result="hardAlpha" values="0 0 0 0 0 0 0 0 0 0 0 0 0 0 0 0 0 0 127 0" type="matrix" in="SourceAlpha"/>
<feOffset dy="17.0668"/>
<feGaussianBlur stdDeviation="10.0001"/>
<feComposite operator="out" in2="hardAlpha"/>
<feColorMatrix values="0 0 0 0 0 0 0 0 0 0 0 0 0 0 0 0 0 0 0.5 0" type="matrix"/>
<feBlend result="effect1_dropShadow_12_12051" in2="BackgroundImageFix" mode="normal"/>
<feBlend result="shape" in2="effect1_dropShadow_12_12051" in="SourceGraphic" mode="normal"/>
</filter>
<filter color-interpolation-filters="sRGB" filterUnits="userSpaceOnUse" height="127.999" width="128.001" y="-15.997" x="-7.99895" id="filter1_bd_12_12051">
<feFlood result="BackgroundImageFix" flood-opacity="0"/>
<feGaussianBlur stdDeviation="12" in="BackgroundImageFix"/>
<feComposite result="effect1_backgroundBlur_12_12051" operator="in" in2="SourceAlpha"/>
<feColorMatrix result="hardAlpha" values="0 0 0 0 0 0 0 0 0 0 0 0 0 0 0 0 0 0 127 0" type="matrix" in="SourceAlpha"/>
<feOffset dy="7.99998"/>
<feGaussianBlur stdDeviation="7.99998"/>
<feComposite operator="out" in2="hardAlpha"/>
<feColorMatrix values="0 0 0 0 0 0 0 0 0 0 0 0 0 0 0 0 0 0 0.1 0" type="matrix"/>
<feBlend result="effect2_dropShadow_12_12051" in2="effect1_backgroundBlur_12_12051" mode="normal"/>
<feBlend result="shape" in2="effect2_dropShadow_12_12051" in="SourceGraphic" mode="normal"/>
</filter>
<linearGradient gradientUnits="userSpaceOnUse" y2="96.1544" x2="82.4272" y1="21.9386" x1="19.5854" id="paint0_linear_12_12051">
<stop stop-color="white"/>
<stop stop-opacity="0" stop-color="white" offset="1"/>
</linearGradient>
<linearGradient gradientUnits="userSpaceOnUse" y2="40" x2="87.335" y1="8" x1="87.335" id="paint1_linear_12_12051">
<stop stop-opacity="0" stop-color="white"/>
<stop stop-color="white" offset="0.504792"/>
<stop stop-opacity="0" stop-color="white" offset="1"/>
</linearGradient>
<linearGradient gradientUnits="userSpaceOnUse" y2="9.33339" x2="-0.333335" y1="0" x1="-0.333335" id="paint2_linear_12_12051">
<stop stop-opacity="0" stop-color="white"/>
<stop stop-color="white" offset="0.504792"/>
<stop stop-opacity="0" stop-color="white" offset="1"/>
</linearGradient>
<linearGradient gradientUnits="userSpaceOnUse" y2="9.33339" x2="-0.333335" y1="0" x1="-0.333335" id="paint3_linear_12_12051">
<stop stop-opacity="0" stop-color="white"/>
<stop stop-color="white" offset="0.504792"/>
<stop stop-opacity="0" stop-color="white" offset="1"/>
</linearGradient>
<linearGradient gradientUnits="userSpaceOnUse" y2="40.0009" x2="87.3342" y1="8.00047" x1="87.3342" id="paint4_linear_12_12051">
<stop stop-opacity="0" stop-color="white"/>
<stop stop-color="white" offset="0.504792"/>
<stop stop-opacity="0" stop-color="white" offset="1"/>
</linearGradient>
<linearGradient gradientUnits="userSpaceOnUse" y2="85.3333" x2="26.9239" y1="64" x1="26.9239" id="paint5_linear_12_12051">
<stop stop-opacity="0" stop-color="white"/>
<stop stop-color="white" offset="0.504792"/>
<stop stop-opacity="0" stop-color="white" offset="1"/>
</linearGradient>
<linearGradient gradientUnits="userSpaceOnUse" y2="85.7456" x2="26.6668" y1="64.412" x1="26.6668" id="paint6_linear_12_12051">
<stop stop-opacity="0" stop-color="white"/>
<stop stop-color="white" offset="0.504792"/>
<stop stop-opacity="0" stop-color="white" offset="1"/>
</linearGradient>
</defs>
</svg>