<svg width="160" height="160" viewBox="0 0 160 160" fill="none" xmlns="http://www.w3.org/2000/svg">
<g filter="url(#filter0_d_12_11813)">
<path d="M49.3485 70.4155C47.3491 63.681 51.1876 56.6007 57.9221 54.6013L107.88 39.7689C114.615 37.7695 121.695 41.608 123.694 48.3425L138.527 98.3005C140.526 105.035 136.688 112.115 129.953 114.115L79.9951 128.947C73.2606 130.947 66.1803 127.108 64.1809 120.374L49.3485 70.4155Z" fill="#2D2D2D"/>
</g>
<g filter="url(#filter1_bd_12_11813)">
<path d="M24.8518 29.9948C25.6655 18.3589 35.7578 9.58583 47.3936 10.3995L108.205 14.6518C119.841 15.4655 128.614 25.5578 127.8 37.1937L123.548 98.0052C122.734 109.641 112.642 118.414 101.006 117.6L40.1947 113.348C28.5589 112.534 19.7858 102.442 20.5994 90.8063L24.8518 29.9948Z" fill="white" fill-opacity="0.1" shape-rendering="crispEdges"/>
<path d="M25.3506 30.0297C26.145 18.6693 35.9984 10.1039 47.3587 10.8983L108.17 15.1506C119.531 15.945 128.096 25.7984 127.302 37.1588L123.049 97.9703C122.255 109.331 112.401 117.896 101.041 117.102L40.2296 112.849C28.8692 112.055 20.3038 102.202 21.0982 90.8412L25.3506 30.0297Z" stroke="url(#paint0_linear_12_11813)" stroke-opacity="0.5" shape-rendering="crispEdges"/>
</g>
<g filter="url(#filter2_d_12_11813)">
<path fill-rule="evenodd" clip-rule="evenodd" d="M70.9639 39.5339C73.6836 37.1846 77.7928 37.4848 80.1421 40.2045C81.2361 41.4709 81.7555 43.0386 81.7237 44.5896L91.089 48.904L91.1629 48.8392C93.8825 46.4899 97.9918 46.7901 100.341 49.5098C102.69 52.2295 102.39 56.3387 99.6705 58.688C96.9508 61.0373 92.8416 60.7371 90.4923 58.0175C89.3983 56.751 88.8788 55.1832 88.9107 53.6321L79.5456 49.3178C79.5211 49.3396 79.4964 49.3612 79.4716 49.3827C77.2061 51.3397 73.9763 51.4582 71.6029 49.8711L59.7378 57.4858C60.0809 59.6376 59.3357 61.9122 57.5656 63.4413C54.8459 65.7906 50.7367 65.4904 48.3874 62.7708C46.038 60.0511 46.3383 55.9418 49.0579 53.5925C51.3235 51.6355 54.5533 51.517 56.9268 53.1042L68.7918 45.4896C68.4485 43.3377 69.1937 41.063 70.9639 39.5339Z" fill="white"/>
<path d="M94.5632 65.4456C95.9969 65.5504 97.0743 66.7975 96.9695 68.2313L95.6418 86.4032C95.5371 87.8369 94.2899 88.9143 92.8562 88.8095C91.4224 88.7048 90.3451 87.4576 90.4498 86.0239L91.7775 67.8519C91.8823 66.4182 93.1295 65.3408 94.5632 65.4456Z" fill="white"/>
<path d="M76.7706 58.9259C76.8753 57.4922 75.798 56.245 74.3642 56.1403C72.9305 56.0355 71.6833 57.1129 71.5786 58.5466L69.6819 84.5065C69.5771 85.9403 70.6545 87.1875 72.0882 87.2922C73.5219 87.397 74.7691 86.3196 74.8739 84.8859L76.7706 58.9259Z" fill="white"/>
<path d="M52.4583 70.1989C53.892 70.3036 54.9693 71.5508 54.8646 72.9846L54.1059 83.3685C54.0012 84.8023 52.754 85.8796 51.3203 85.7749C49.8865 85.6701 48.8092 84.4229 48.9139 82.9892L49.6726 72.6052C49.7774 71.1715 51.0245 70.0941 52.4583 70.1989Z" fill="white"/>
</g>
<ellipse cx="125.301" cy="25.6001" rx="0.19286" ry="12" fill="url(#paint1_linear_12_11813)"/>
<ellipse cx="-0.250003" cy="3.50005" rx="-0.250003" ry="3.50005" transform="matrix(0.707114 -0.7071 0.707114 0.7071 141.911 23.6741)" fill="url(#paint2_linear_12_11813)"/>
<ellipse cx="-0.250003" cy="3.50005" rx="-0.250003" ry="3.50005" transform="matrix(0.707114 0.7071 -0.707114 0.7071 146.861 24.0269)" fill="url(#paint3_linear_12_11813)"/>
<ellipse cx="125.301" cy="25.5994" rx="0.192858" ry="12.0003" transform="rotate(-90 125.301 25.5994)" fill="url(#paint4_linear_12_11813)"/>
<g opacity="0.5">
<ellipse cx="28.3929" cy="108" rx="0.192862" ry="8.00002" fill="url(#paint5_linear_12_11813)"/>
<ellipse cx="28.2001" cy="108.308" rx="0.192856" ry="8.00018" transform="rotate(-90 28.2001 108.308)" fill="url(#paint6_linear_12_11813)"/>
</g>
<defs>
<filter id="filter0_d_12_11813" x="28.8191" y="29.2395" width="130.237" height="130.237" filterUnits="userSpaceOnUse" color-interpolation-filters="sRGB">
<feFlood flood-opacity="0" result="BackgroundImageFix"/>
<feColorMatrix in="SourceAlpha" type="matrix" values="0 0 0 0 0 0 0 0 0 0 0 0 0 0 0 0 0 0 127 0" result="hardAlpha"/>
<feOffset dy="10"/>
<feGaussianBlur stdDeviation="10"/>
<feComposite in2="hardAlpha" operator="out"/>
<feColorMatrix type="matrix" values="0 0 0 0 0 0 0 0 0 0 0 0 0 0 0 0 0 0 0.2 0"/>
<feBlend mode="normal" in2="BackgroundImageFix" result="effect1_dropShadow_12_11813"/>
<feBlend mode="normal" in="SourceGraphic" in2="effect1_dropShadow_12_11813" result="shape"/>
</filter>
<filter id="filter1_bd_12_11813" x="0.547119" y="-5.65283" width="147.306" height="153.306" filterUnits="userSpaceOnUse" color-interpolation-filters="sRGB">
<feFlood flood-opacity="0" result="BackgroundImageFix"/>
<feGaussianBlur in="BackgroundImageFix" stdDeviation="8"/>
<feComposite in2="SourceAlpha" operator="in" result="effect1_backgroundBlur_12_11813"/>
<feColorMatrix in="SourceAlpha" type="matrix" values="0 0 0 0 0 0 0 0 0 0 0 0 0 0 0 0 0 0 127 0" result="hardAlpha"/>
<feOffset dy="10"/>
<feGaussianBlur stdDeviation="10"/>
<feComposite in2="hardAlpha" operator="out"/>
<feColorMatrix type="matrix" values="0 0 0 0 0 0 0 0 0 0 0 0 0 0 0 0 0 0 0.1 0"/>
<feBlend mode="normal" in2="effect1_backgroundBlur_12_11813" result="effect2_dropShadow_12_11813"/>
<feBlend mode="normal" in="SourceGraphic" in2="effect2_dropShadow_12_11813" result="shape"/>
</filter>
<filter id="filter2_d_12_11813" x="46.8043" y="37.9509" width="63.1198" height="58.8657" filterUnits="userSpaceOnUse" color-interpolation-filters="sRGB">
<feFlood flood-opacity="0" result="BackgroundImageFix"/>
<feColorMatrix in="SourceAlpha" type="matrix" values="0 0 0 0 0 0 0 0 0 0 0 0 0 0 0 0 0 0 127 0" result="hardAlpha"/>
<feOffset dx="4" dy="4"/>
<feGaussianBlur stdDeviation="2"/>
<feComposite in2="hardAlpha" operator="out"/>
<feColorMatrix type="matrix" values="0 0 0 0 0 0 0 0 0 0 0 0 0 0 0 0 0 0 0.25 0"/>
<feBlend mode="normal" in2="BackgroundImageFix" result="effect1_dropShadow_12_11813"/>
<feBlend mode="normal" in="SourceGraphic" in2="effect1_dropShadow_12_11813" result="shape"/>
</filter>
<linearGradient id="paint0_linear_12_11813" x1="29.6836" y1="27.1822" x2="103.875" y2="128.342" gradientUnits="userSpaceOnUse">
<stop stop-color="white"/>
<stop offset="1" stop-color="white" stop-opacity="0"/>
</linearGradient>
<linearGradient id="paint1_linear_12_11813" x1="125.301" y1="13.6001" x2="125.301" y2="37.6002" gradientUnits="userSpaceOnUse">
<stop stop-color="white" stop-opacity="0"/>
<stop offset="0.504792" stop-color="white"/>
<stop offset="1" stop-color="white" stop-opacity="0"/>
</linearGradient>
<linearGradient id="paint2_linear_12_11813" x1="-0.250003" y1="0" x2="-0.250003" y2="7.00009" gradientUnits="userSpaceOnUse">
<stop stop-color="white" stop-opacity="0"/>
<stop offset="0.504792" stop-color="white"/>
<stop offset="1" stop-color="white" stop-opacity="0"/>
</linearGradient>
<linearGradient id="paint3_linear_12_11813" x1="-0.250003" y1="0" x2="-0.250003" y2="7.00009" gradientUnits="userSpaceOnUse">
<stop stop-color="white" stop-opacity="0"/>
<stop offset="0.504792" stop-color="white"/>
<stop offset="1" stop-color="white" stop-opacity="0"/>
</linearGradient>
<linearGradient id="paint4_linear_12_11813" x1="125.301" y1="13.5991" x2="125.301" y2="37.5997" gradientUnits="userSpaceOnUse">
<stop stop-color="white" stop-opacity="0"/>
<stop offset="0.504792" stop-color="white"/>
<stop offset="1" stop-color="white" stop-opacity="0"/>
</linearGradient>
<linearGradient id="paint5_linear_12_11813" x1="28.3929" y1="100" x2="28.3929" y2="116" gradientUnits="userSpaceOnUse">
<stop stop-color="white" stop-opacity="0"/>
<stop offset="0.504792" stop-color="white"/>
<stop offset="1" stop-color="white" stop-opacity="0"/>
</linearGradient>
<linearGradient id="paint6_linear_12_11813" x1="28.2001" y1="100.308" x2="28.2001" y2="116.309" gradientUnits="userSpaceOnUse">
<stop stop-color="white" stop-opacity="0"/>
<stop offset="0.504792" stop-color="white"/>
<stop offset="1" stop-color="white" stop-opacity="0"/>
</linearGradient>
</defs>
</svg>
