<svg xmlns="http://www.w3.org/2000/svg" fill="none" viewBox="15.481611208406305 7.378 101.22591943957968 80.92" style="max-height: 500px" width="101.22591943957968" height="80.92">
<g filter="url(#filter0_d_12_12028)">
<ellipse fill="#2D2D2D" ry="33.3338" rx="33.3337" cy="48.0017" cx="82.6675"/>
</g>
<g filter="url(#filter1_bd_12_12028)">
<ellipse shape-rendering="crispEdges" fill-opacity="0.1" fill="white" ry="40" rx="40.0005" cy="48" cx="56.0007"/>
<path shape-rendering="crispEdges" stroke-width="0.799999" stroke-opacity="0.5" stroke="url(#paint0_linear_12_12028)" d="M95.6012 48C95.6012 69.8705 77.8715 87.6 56.0007 87.6C34.13 87.6 16.4002 69.8705 16.4002 48C16.4002 26.1295 34.13 8.4 56.0007 8.4C77.8715 8.4 95.6012 26.1295 95.6012 48Z"/>
</g>
<path fill="white" d="M82.668 44.177H77.469C77.3741 43.5044 77.1802 42.9069 76.8874 42.3847C76.5946 41.8545 76.2187 41.4034 75.7598 41.0315C75.3008 40.6596 74.7706 40.3747 74.1692 40.1769C73.5757 39.979 72.9308 39.8801 72.2344 39.8801C70.9763 39.8801 69.8803 40.1927 68.9465 40.8178C68.0128 41.4351 67.2887 42.3372 66.7744 43.5242C66.26 44.7032 66.0028 46.1355 66.0028 47.821C66.0028 49.554 66.26 51.01 66.7744 52.1891C67.2966 53.3682 68.0246 54.2584 68.9584 54.8598C69.8921 55.4612 70.9723 55.7619 72.1988 55.7619C72.8873 55.7619 73.5243 55.6709 74.1099 55.4889C74.7034 55.3069 75.2296 55.0418 75.6885 54.6936C76.1475 54.3376 76.5273 53.9063 76.828 53.3998C77.1367 52.8934 77.4246 52.3395 77.5432 51.6906C77.6619 51.0417 77.6476 50.6017 77.6476 50.6017H82.668V51.6906C82.5334 52.8063 82.1971 53.8825 81.659 54.9192C81.1289 55.9479 80.4127 56.8698 79.5106 57.6848C78.6164 58.492 77.5481 59.133 76.3058 59.6077C75.0713 60.0746 73.6746 60.3081 72.1157 60.3081C69.9475 60.3081 68.0088 59.8174 66.2996 58.8362C64.5982 57.855 63.253 56.4346 62.2638 54.5749C61.2826 52.7153 60.792 50.464 60.792 47.821C60.792 45.1701 61.2905 42.9148 62.2876 41.0552C63.2846 39.1956 64.6378 37.7792 66.347 36.8058C68.0563 35.8246 69.9792 35.334 72.1157 35.334C73.5243 35.334 74.83 35.5318 76.0328 35.9275C77.2435 36.3231 78.3157 36.9008 79.2495 37.6605C80.1832 38.4122 80.9429 39.3341 81.5285 40.4261C82.122 41.5182 82.5018 42.7684 82.668 44.177Z"/>
<path fill="white" d="M58.4853 35.6699V59.9793H53.3457V35.6699H58.4853Z"/>
<rect fill="white" height="8.03495" width="5.35661" y="51.9414" x="29.3335" opacity="0.8"/>
<rect fill="white" height="17.3303" width="5.35661" y="42.6465" x="37.2109" opacity="0.8"/>
<rect fill="white" height="11.8161" width="5.35661" y="48.1602" x="45.0889" opacity="0.8"/>
<ellipse fill="url(#paint1_linear_12_12028)" ry="16.0002" rx="0.257146" cy="24.0002" cx="87.3338"/>
<ellipse fill="url(#paint2_linear_12_12028)" transform="matrix(0.707106 -0.707107 0.707106 0.707107 84.333 20.4727)" ry="4.66673" rx="-0.333338" cy="4.66673" cx="-0.333338"/>
<ellipse fill="url(#paint3_linear_12_12028)" transform="matrix(0.707106 0.707107 -0.707106 0.707107 90.9331 20.9434)" ry="4.66673" rx="-0.333338" cy="4.66673" cx="-0.333338"/>
<ellipse fill="url(#paint4_linear_12_12028)" transform="rotate(-90 87.3342 24.0007)" ry="16.0002" rx="0.257146" cy="24.0007" cx="87.3342"/>
<g opacity="0.5">
<ellipse fill="url(#paint5_linear_12_12028)" ry="10.6668" rx="0.257146" cy="74.6668" cx="26.9237"/>
<ellipse fill="url(#paint6_linear_12_12028)" transform="rotate(-90 26.6673 75.0768)" ry="10.6668" rx="0.257146" cy="75.0768" cx="26.6673"/>
</g>
<defs>
<filter color-interpolation-filters="sRGB" filterUnits="userSpaceOnUse" height="106.668" width="106.668" y="11.7346" x="29.3335" id="filter0_d_12_12028">
<feFlood result="BackgroundImageFix" flood-opacity="0"/>
<feColorMatrix result="hardAlpha" values="0 0 0 0 0 0 0 0 0 0 0 0 0 0 0 0 0 0 127 0" type="matrix" in="SourceAlpha"/>
<feOffset dy="17.0669"/>
<feGaussianBlur stdDeviation="10.0001"/>
<feComposite operator="out" in2="hardAlpha"/>
<feColorMatrix values="0 0 0 0 0 0 0 0 0 0 0 0 0 0 0 0 0 0 0.5 0" type="matrix"/>
<feBlend result="effect1_dropShadow_12_12028" in2="BackgroundImageFix" mode="normal"/>
<feBlend result="shape" in2="effect1_dropShadow_12_12028" in="SourceGraphic" mode="normal"/>
</filter>
<filter color-interpolation-filters="sRGB" filterUnits="userSpaceOnUse" height="128" width="128.001" y="-16" x="-7.99974" id="filter1_bd_12_12028">
<feFlood result="BackgroundImageFix" flood-opacity="0"/>
<feGaussianBlur stdDeviation="12" in="BackgroundImageFix"/>
<feComposite result="effect1_backgroundBlur_12_12028" operator="in" in2="SourceAlpha"/>
<feColorMatrix result="hardAlpha" values="0 0 0 0 0 0 0 0 0 0 0 0 0 0 0 0 0 0 127 0" type="matrix" in="SourceAlpha"/>
<feOffset dy="7.99999"/>
<feGaussianBlur stdDeviation="7.99999"/>
<feComposite operator="out" in2="hardAlpha"/>
<feColorMatrix values="0 0 0 0 0 0 0 0 0 0 0 0 0 0 0 0 0 0 0.1 0" type="matrix"/>
<feBlend result="effect2_dropShadow_12_12028" in2="effect1_backgroundBlur_12_12028" mode="normal"/>
<feBlend result="shape" in2="effect2_dropShadow_12_12028" in="SourceGraphic" mode="normal"/>
</filter>
<linearGradient gradientUnits="userSpaceOnUse" y2="96.1518" x2="82.4276" y1="21.9358" x1="19.5847" id="paint0_linear_12_12028">
<stop stop-color="white"/>
<stop stop-opacity="0" stop-color="white" offset="1"/>
</linearGradient>
<linearGradient gradientUnits="userSpaceOnUse" y2="40.0004" x2="87.3338" y1="8" x1="87.3338" id="paint1_linear_12_12028">
<stop stop-opacity="0" stop-color="white"/>
<stop stop-color="white" offset="0.504792"/>
<stop stop-opacity="0" stop-color="white" offset="1"/>
</linearGradient>
<linearGradient gradientUnits="userSpaceOnUse" y2="9.33345" x2="-0.333338" y1="0" x1="-0.333338" id="paint2_linear_12_12028">
<stop stop-opacity="0" stop-color="white"/>
<stop stop-color="white" offset="0.504792"/>
<stop stop-opacity="0" stop-color="white" offset="1"/>
</linearGradient>
<linearGradient gradientUnits="userSpaceOnUse" y2="9.33345" x2="-0.333338" y1="0" x1="-0.333338" id="paint3_linear_12_12028">
<stop stop-opacity="0" stop-color="white"/>
<stop stop-color="white" offset="0.504792"/>
<stop stop-opacity="0" stop-color="white" offset="1"/>
</linearGradient>
<linearGradient gradientUnits="userSpaceOnUse" y2="40.0009" x2="87.3342" y1="8.00047" x1="87.3342" id="paint4_linear_12_12028">
<stop stop-opacity="0" stop-color="white"/>
<stop stop-color="white" offset="0.504792"/>
<stop stop-opacity="0" stop-color="white" offset="1"/>
</linearGradient>
<linearGradient gradientUnits="userSpaceOnUse" y2="85.3336" x2="26.9236" y1="64" x1="26.9236" id="paint5_linear_12_12028">
<stop stop-opacity="0" stop-color="white"/>
<stop stop-color="white" offset="0.504792"/>
<stop stop-opacity="0" stop-color="white" offset="1"/>
</linearGradient>
<linearGradient gradientUnits="userSpaceOnUse" y2="85.7436" x2="26.6673" y1="64.41" x1="26.6673" id="paint6_linear_12_12028">
<stop stop-opacity="0" stop-color="white"/>
<stop stop-color="white" offset="0.504792"/>
<stop stop-opacity="0" stop-color="white" offset="1"/>
</linearGradient>
</defs>
</svg>