<svg xmlns="http://www.w3.org/2000/svg" fill="none" viewBox="15.481611208406305 7.378 101.22591943957968 80.92" style="max-height: 500px" width="101.22591943957968" height="80.92">
<g filter="url(#filter0_d_12_12076)">
<ellipse fill="#2D2D2D" ry="33.3333" rx="33.3339" cy="48.0022" cx="82.6679"/>
</g>
<g filter="url(#filter1_bd_12_12076)">
<ellipse shape-rendering="crispEdges" fill-opacity="0.1" fill="white" ry="39.9994" rx="40.0007" cy="48.0024" cx="56.0012"/>
<path shape-rendering="crispEdges" stroke-width="0.799999" stroke-opacity="0.5" stroke="url(#paint0_linear_12_12076)" d="M95.6019 48.0024C95.6019 69.8725 77.872 87.6018 56.0012 87.6018C34.1303 87.6018 16.4005 69.8725 16.4005 48.0024C16.4005 26.1322 34.1303 8.40293 56.0012 8.40293C77.872 8.40293 95.6019 26.1322 95.6019 48.0024Z"/>
</g>
<path fill="white" d="M34.8615 29.0648C35.6639 28.3908 39.0365 27.5215 46.2483 28.3185C55.1796 29.3056 61.9443 31.2314 66.9997 33.0129C68.8614 33.6709 73.0807 35.3769 75.0644 36.9368C77.544 38.8868 78.9643 40.5719 78.9161 44.0625C78.8776 46.855 75.6582 51.774 74.0533 53.8844C72.8088 55.5209 70.7558 57.9627 68.3238 60.2397C65.926 62.4846 63.0276 64.5729 60.7647 65.7766C59.1517 66.6593 55.04 68.3283 51.4963 67.9432C47.0668 67.4617 45.0005 66.3333 41.4336 62.7674C38.6011 59.9358 36.0652 53.5474 35.1985 50.6586C34.4244 48.2449 32.99 42.3185 32.7137 36C32.6749 35.1134 32.667 34.6667 32.6708 33.3258C32.7119 32.8662 32.8402 32.1722 33.0924 31.4635C33.4302 30.5144 33.9904 29.5389 34.8615 29.0648ZM39.7964 39.465L41.5056 34.9392H57.659C60.1385 34.7787 65.324 35.9936 66.2292 42.1371C66.7299 46.0274 65.7637 48.7172 65.2181 49.5758C64.4959 50.8436 63.0274 52.9219 59.3923 53.596C56.4457 53.9812 53.077 53.933 51.7609 53.8608V61.7087H46.7296V41.8242H51.7609V49.2387H57.4664C58.7824 49.1264 61.4048 47.9677 61.3663 44.2315C61.3278 40.4953 58.8787 39.4971 57.659 39.465H39.7964Z" clip-rule="evenodd" fill-rule="evenodd"/>
<ellipse fill="url(#paint1_linear_12_12076)" ry="16" rx="0.257147" cy="24" cx="87.3343"/>
<ellipse fill="url(#paint2_linear_12_12076)" transform="matrix(0.707113 -0.7071 0.707113 0.7071 84.333 20.4727)" ry="4.6667" rx="-0.333336" cy="4.6667" cx="-0.333336"/>
<ellipse fill="url(#paint3_linear_12_12076)" transform="matrix(0.707113 0.7071 -0.707113 0.7071 90.9331 20.9434)" ry="4.6667" rx="-0.333336" cy="4.6667" cx="-0.333336"/>
<ellipse fill="url(#paint4_linear_12_12076)" transform="rotate(-90 87.3338 24.0007)" ry="16.0003" rx="0.257142" cy="24.0007" cx="87.3338"/>
<g opacity="0.5">
<ellipse fill="url(#paint5_linear_12_12076)" ry="10.6667" rx="0.257147" cy="74.6666" cx="26.9237"/>
<ellipse fill="url(#paint6_linear_12_12076)" transform="rotate(-90 26.6668 75.0788)" ry="10.6668" rx="0.257142" cy="75.0788" cx="26.6668"/>
</g>
<defs>
<filter color-interpolation-filters="sRGB" filterUnits="userSpaceOnUse" height="106.667" width="106.668" y="11.7356" x="29.3338" id="filter0_d_12_12076">
<feFlood result="BackgroundImageFix" flood-opacity="0"/>
<feColorMatrix result="hardAlpha" values="0 0 0 0 0 0 0 0 0 0 0 0 0 0 0 0 0 0 127 0" type="matrix" in="SourceAlpha"/>
<feOffset dy="17.0668"/>
<feGaussianBlur stdDeviation="10.0001"/>
<feComposite operator="out" in2="hardAlpha"/>
<feColorMatrix values="0 0 0 0 0 0 0 0 0 0 0 0 0 0 0 0 0 0 0.5 0" type="matrix"/>
<feBlend result="effect1_dropShadow_12_12076" in2="BackgroundImageFix" mode="normal"/>
<feBlend result="shape" in2="effect1_dropShadow_12_12076" in="SourceGraphic" mode="normal"/>
</filter>
<filter color-interpolation-filters="sRGB" filterUnits="userSpaceOnUse" height="127.999" width="128.001" y="-15.9971" x="-7.99949" id="filter1_bd_12_12076">
<feFlood result="BackgroundImageFix" flood-opacity="0"/>
<feGaussianBlur stdDeviation="12" in="BackgroundImageFix"/>
<feComposite result="effect1_backgroundBlur_12_12076" operator="in" in2="SourceAlpha"/>
<feColorMatrix result="hardAlpha" values="0 0 0 0 0 0 0 0 0 0 0 0 0 0 0 0 0 0 127 0" type="matrix" in="SourceAlpha"/>
<feOffset dy="7.99999"/>
<feGaussianBlur stdDeviation="7.99999"/>
<feComposite operator="out" in2="hardAlpha"/>
<feColorMatrix values="0 0 0 0 0 0 0 0 0 0 0 0 0 0 0 0 0 0 0.1 0" type="matrix"/>
<feBlend result="effect2_dropShadow_12_12076" in2="effect1_backgroundBlur_12_12076" mode="normal"/>
<feBlend result="shape" in2="effect2_dropShadow_12_12076" in="SourceGraphic" mode="normal"/>
</filter>
<linearGradient gradientUnits="userSpaceOnUse" y2="96.1547" x2="82.4267" y1="21.9386" x1="19.5849" id="paint0_linear_12_12076">
<stop stop-color="white"/>
<stop stop-opacity="0" stop-color="white" offset="1"/>
</linearGradient>
<linearGradient gradientUnits="userSpaceOnUse" y2="40" x2="87.3343" y1="8" x1="87.3343" id="paint1_linear_12_12076">
<stop stop-opacity="0" stop-color="white"/>
<stop stop-color="white" offset="0.504792"/>
<stop stop-opacity="0" stop-color="white" offset="1"/>
</linearGradient>
<linearGradient gradientUnits="userSpaceOnUse" y2="9.33341" x2="-0.333336" y1="0" x1="-0.333336" id="paint2_linear_12_12076">
<stop stop-opacity="0" stop-color="white"/>
<stop stop-color="white" offset="0.504792"/>
<stop stop-opacity="0" stop-color="white" offset="1"/>
</linearGradient>
<linearGradient gradientUnits="userSpaceOnUse" y2="9.33341" x2="-0.333336" y1="0" x1="-0.333336" id="paint3_linear_12_12076">
<stop stop-opacity="0" stop-color="white"/>
<stop stop-color="white" offset="0.504792"/>
<stop stop-opacity="0" stop-color="white" offset="1"/>
</linearGradient>
<linearGradient gradientUnits="userSpaceOnUse" y2="40.0009" x2="87.3338" y1="8.00039" x1="87.3338" id="paint4_linear_12_12076">
<stop stop-opacity="0" stop-color="white"/>
<stop stop-color="white" offset="0.504792"/>
<stop stop-opacity="0" stop-color="white" offset="1"/>
</linearGradient>
<linearGradient gradientUnits="userSpaceOnUse" y2="85.3333" x2="26.9237" y1="64" x1="26.9237" id="paint5_linear_12_12076">
<stop stop-opacity="0" stop-color="white"/>
<stop stop-color="white" offset="0.504792"/>
<stop stop-opacity="0" stop-color="white" offset="1"/>
</linearGradient>
<linearGradient gradientUnits="userSpaceOnUse" y2="85.7456" x2="26.6668" y1="64.4119" x1="26.6668" id="paint6_linear_12_12076">
<stop stop-opacity="0" stop-color="white"/>
<stop stop-color="white" offset="0.504792"/>
<stop stop-opacity="0" stop-color="white" offset="1"/>
</linearGradient>
</defs>
</svg>