<svg width="50" height="50" viewBox="0 0 50 50" fill="none" xmlns="http://www.w3.org/2000/svg">
<rect x="0.5" y="0.5" width="49" height="49" rx="24.5" stroke="white" stroke-opacity="0.1"/>
<path d="M27.8382 17.2354C27.6396 17.591 27.4626 17.9584 27.3082 18.3354C25.791 18.0954 24.2455 18.0954 22.7282 18.3354C22.5738 17.9584 22.3968 17.591 22.1982 17.2354C20.769 17.4796 19.3796 17.9169 18.0682 18.5354C15.7232 21.9196 14.6597 26.0283 15.0682 30.1254C16.5965 31.2742 18.3117 32.1504 20.1382 32.7154C20.5541 32.166 20.9253 31.5841 21.2482 30.9754C20.6523 30.7556 20.0795 30.4776 19.5382 30.1454C19.6867 30.0466 19.8271 29.9362 19.9582 29.8154C21.5367 30.5757 23.2662 30.9705 25.0182 30.9705C26.7703 30.9705 28.4998 30.5757 30.0782 29.8154C30.2182 29.9354 30.3582 30.0454 30.4982 30.1454C29.954 30.475 29.3818 30.7561 28.7882 30.9854C29.0977 31.6079 29.459 32.2033 29.8682 32.7654C31.6925 32.2024 33.4047 31.3259 34.9282 30.1754C35.3466 26.0776 34.2822 21.9655 31.9282 18.5854C30.6316 17.9541 29.2559 17.5 27.8382 17.2354ZM21.6982 27.7854C21.1978 27.7494 20.7308 27.521 20.3951 27.1481C20.0595 26.7752 19.8814 26.2868 19.8982 25.7854C19.8789 25.2833 20.0561 24.7934 20.3922 24.42C20.7284 24.0465 21.1969 23.8188 21.6982 23.7854C22.1996 23.8188 22.6681 24.0465 23.0042 24.42C23.3403 24.7934 23.5176 25.2833 23.4982 25.7854C23.5176 26.2874 23.3403 26.7773 23.0042 27.1507C22.6681 27.5242 22.1996 27.7519 21.6982 27.7854ZM28.3382 27.7854C27.8378 27.7494 27.3708 27.521 27.0351 27.1481C26.6995 26.7752 26.5214 26.2868 26.5382 25.7854C26.5189 25.2833 26.6961 24.7934 27.0322 24.42C27.3684 24.0465 27.8369 23.8188 28.3382 23.7854C28.8405 23.8163 29.3105 24.0433 29.6472 24.4173C29.9838 24.7913 30.1602 25.2826 30.1382 25.7854C30.1602 26.2881 29.9838 26.7794 29.6472 27.1534C29.3105 27.5274 28.8405 27.7544 28.3382 27.7854Z" fill="white"/>
</svg>
