<svg width="244" height="125" viewBox="0 0 244 125" fill="none" xmlns="http://www.w3.org/2000/svg">
<g clip-path="url(#clip0_492_2695)">
<rect x="0.800049" y="0.799805" width="242.667" height="123.067" rx="20.8" fill="url(#paint0_linear_492_2695)"/>
<g opacity="0.5">
<mask id="mask0_492_2695" style="mask-type:alpha" maskUnits="userSpaceOnUse" x="-118" y="-7" width="480" height="189">
<ellipse cx="122.133" cy="87.9" rx="239.66" ry="94.0333" fill="url(#paint1_linear_492_2695)"/>
</mask>
<g mask="url(#mask0_492_2695)">
<path opacity="0.5" d="M-70.2605 -241.466H6.69704M-70.2605 -241.466V-164.509M-70.2605 -241.466L-31.7817 -202.988M6.69704 -241.466H83.6546M6.69704 -241.466L29.7843 -202.988M-70.2605 -164.509V-87.5512M-70.2605 -164.509L-31.7817 -141.422M-70.2605 -87.5512V-10.5937M-70.2605 -87.5512L-31.7817 -79.8555M-70.2605 -10.5937V66.3639M-70.2605 -10.5937L-31.7817 -18.2894M-70.2605 66.3639V143.321M-70.2605 66.3639L-31.7817 43.2766M6.69704 143.321H-70.2605M6.69704 143.321H83.6546M6.69704 143.321L29.7843 104.843M-70.2605 143.321L-31.7817 104.843M83.6546 -241.466H160.612M83.6546 -241.466L91.3503 -202.988M83.6546 143.321H160.612M83.6546 143.321L91.3503 104.843M160.612 -241.466H237.57M160.612 -241.466L152.916 -202.988M160.612 143.321H237.57M160.612 143.321L152.916 104.843M237.57 -241.466H314.527M237.57 -241.466L214.482 -202.988M237.57 143.321H314.527M237.57 143.321L214.482 104.843M314.527 -241.466V-164.509M314.527 -241.466L276.048 -202.988M314.527 -164.509V-87.5512M314.527 -164.509L276.048 -141.422M314.527 -87.5512V-10.5937M314.527 -87.5512L276.048 -79.8555M314.527 -10.5937V66.3639M314.527 -10.5937L276.048 -18.2894M314.527 66.3639V143.321M314.527 66.3639L276.048 43.2766M314.527 143.321L276.048 104.843M-31.7817 -202.988L6.69704 -164.509M-31.7817 -202.988V-141.422M-31.7817 -202.988H29.7843M276.048 -202.988V-141.422M276.048 -202.988L237.57 -164.509M276.048 -202.988H214.482M276.048 104.843L237.57 66.3639M276.048 104.843V43.2766M276.048 104.843H214.482M-31.7817 104.843H29.7843M-31.7817 104.843L6.69704 66.3639M-31.7817 104.843V43.2766M6.69704 -164.509L45.1758 -126.03M6.69704 -164.509V-118.334M6.69704 -164.509H52.8716M237.57 -164.509V-118.334M237.57 -164.509L199.091 -126.03M237.57 -164.509H191.395M237.57 66.3639L199.091 27.8851M237.57 66.3639V20.1893M237.57 66.3639H191.395M6.69704 66.3639H52.8716M6.69704 66.3639L45.1758 27.8851M6.69704 66.3639V20.1893M45.1758 -126.03L83.6546 -87.5512M45.1758 -126.03V-95.247M45.1758 -126.03H75.9588M199.091 -126.03L160.612 -87.5512M199.091 -126.03V-95.247M199.091 -126.03H168.308M199.091 27.8851L160.612 -10.5937M199.091 27.8851V-2.89793M199.091 27.8851H168.308M45.1758 27.8851L83.6546 -10.5937M45.1758 27.8851H75.9588M45.1758 27.8851V-2.89793M83.6546 -87.5512H99.0461M83.6546 -87.5512V-72.1597M160.612 -87.5512V-72.1597M160.612 -87.5512H145.221M160.612 -10.5937H145.221M160.612 -10.5937V-25.9852M83.6546 -10.5937V-25.9852M83.6546 -10.5937H99.0461M129.829 -10.5937H114.438M129.829 -10.5937H145.221M129.829 -10.5937L137.525 27.8851M114.438 -10.5937H99.0461M114.438 -10.5937L106.742 27.8851M145.221 -10.5937L168.308 27.8851M160.612 -25.9852V-41.3767M160.612 -25.9852L199.091 -2.89793M160.612 -41.3767V-56.7682M160.612 -41.3767L199.091 -33.6809M160.612 -72.1597V-56.7682M160.612 -72.1597L199.091 -95.247M160.612 -56.7682L199.091 -64.464M145.221 -87.5512H129.829M145.221 -87.5512L168.308 -126.03M114.438 -87.5512H129.829M114.438 -87.5512H99.0461M114.438 -87.5512L106.742 -126.03M129.829 -87.5512L137.525 -126.03M99.0461 -87.5512L75.9588 -126.03M83.6546 -72.1597V-56.7682M83.6546 -72.1597L45.1758 -95.247M83.6546 -56.7682V-41.3767M83.6546 -56.7682L45.1758 -64.464M83.6546 -25.9852V-41.3767M83.6546 -25.9852L45.1758 -2.89793M83.6546 -41.3767L45.1758 -33.6809M99.0461 -10.5937L75.9588 27.8851M45.1758 -95.247L6.69704 -118.334M45.1758 -95.247V-64.464M75.9588 27.8851L52.8716 66.3639M75.9588 27.8851H106.742M199.091 -2.89793L237.57 20.1893M199.091 -2.89793V-33.6809M199.091 -95.247L237.57 -118.334M199.091 -95.247V-64.464M29.7843 104.843L52.8716 66.3639M29.7843 104.843H91.3503M52.8716 66.3639H99.0461M237.57 20.1893L276.048 43.2766M237.57 20.1893V-25.9852M276.048 43.2766V-18.2894M276.048 -141.422L237.57 -118.334M276.048 -141.422V-79.8555M237.57 -118.334V-72.1597M6.69704 -118.334L-31.7817 -141.422M6.69704 -118.334V-72.1597M-31.7817 -141.422V-79.8555M168.308 27.8851H137.525M168.308 27.8851L191.395 66.3639M106.742 27.8851H137.525M106.742 27.8851L99.0461 66.3639M137.525 27.8851L145.221 66.3639M199.091 -33.6809V-64.464M199.091 -33.6809L237.57 -25.9852M199.091 -64.464L237.57 -72.1597M168.308 -126.03H137.525M168.308 -126.03L191.395 -164.509M137.525 -126.03H106.742M137.525 -126.03L145.221 -164.509M106.742 -126.03H75.9588M106.742 -126.03L99.0461 -164.509M75.9588 -126.03L52.8716 -164.509M45.1758 -64.464V-33.6809M45.1758 -64.464L6.69704 -72.1597M45.1758 -2.89793V-33.6809M45.1758 -2.89793L6.69704 20.1893M45.1758 -33.6809L6.69704 -25.9852M6.69704 -72.1597V-25.9852M6.69704 -72.1597L-31.7817 -79.8555M6.69704 -25.9852V20.1893M6.69704 -25.9852L-31.7817 -18.2894M99.0461 -164.509H52.8716M99.0461 -164.509H145.221M99.0461 -164.509L91.3503 -202.988M52.8716 -164.509L29.7843 -202.988M145.221 -164.509H191.395M145.221 -164.509L152.916 -202.988M191.395 -164.509L214.482 -202.988M237.57 -25.9852V-72.1597M237.57 -25.9852L276.048 -18.2894M237.57 -72.1597L276.048 -79.8555M145.221 66.3639H191.395M145.221 66.3639H99.0461M145.221 66.3639L152.916 104.843M191.395 66.3639L214.482 104.843M99.0461 66.3639L91.3503 104.843M6.69704 20.1893L-31.7817 43.2766M91.3503 104.843H152.916M152.916 104.843H214.482M276.048 -18.2894V-79.8555M214.482 -202.988H152.916M152.916 -202.988H91.3503M91.3503 -202.988H29.7843M-31.7817 -79.8555V-18.2894M-31.7817 -18.2894V43.2766" stroke="white" stroke-width="0.332861"/>
<path d="M122.133 -29.9682C288.056 -29.9682 422.562 22.7874 422.562 87.8647H360.498C360.498 -9.7269 122.133 -29.9682 122.133 -29.9682Z" fill="url(#paint2_linear_492_2695)"/>
<path d="M122.133 -29.9682C-43.789 -29.9682 -178.296 22.7874 -178.296 87.8647H-116.231C-116.231 -9.7269 122.133 -29.9682 122.133 -29.9682Z" fill="url(#paint3_linear_492_2695)"/>
<path d="M128.791 0.190918H361.793V192.252L245.292 86.2356L128.791 0.190918Z" fill="url(#paint4_linear_492_2695)"/>
<path d="M115.476 0.190918H-117.527V192.252L-1.02563 86.2356L115.476 0.190918Z" fill="url(#paint5_linear_492_2695)"/>
</g>
</g>
<path d="M72.6101 39.5996V24.7276H75.2309L82.1365 36.1676H82.1781V24.7276H84.4869V39.5996H81.8661L74.9397 28.1596H74.8981V39.5996H72.6101ZM91.1465 39.9116C87.7769 39.9116 85.9049 37.5196 85.9049 34.2748C85.9049 30.9468 87.9017 28.6588 91.1465 28.6588C94.3705 28.6588 96.1801 30.7804 96.1801 34.0668C96.1801 34.358 96.1801 34.67 96.1593 34.8364H88.0057C88.0473 36.6044 89.0873 38.2476 91.1881 38.2476C93.0601 38.2476 93.7881 37.0412 93.9753 36.334H96.0553C95.4937 38.3724 93.9337 39.9116 91.1465 39.9116ZM88.0057 33.2348H94.0585C94.0585 31.5708 92.8937 30.3228 91.0841 30.3228C89.3785 30.3228 88.1305 31.4876 88.0057 33.2348ZM102.187 39.9116C98.8171 39.9116 96.9451 37.5196 96.9451 34.2748C96.9451 30.9468 98.9419 28.6588 102.187 28.6588C105.411 28.6588 107.22 30.7804 107.22 34.0668C107.22 34.358 107.22 34.67 107.2 34.8364H99.0459C99.0875 36.6044 100.128 38.2476 102.228 38.2476C104.1 38.2476 104.828 37.0412 105.016 36.334H107.096C106.534 38.3724 104.974 39.9116 102.187 39.9116ZM99.0459 33.2348H105.099C105.099 31.5708 103.934 30.3228 102.124 30.3228C100.419 30.3228 99.1707 31.4876 99.0459 33.2348ZM112.749 39.8908C110.045 39.8908 107.985 37.79 107.985 34.2956C107.985 30.8012 110.045 28.6796 112.749 28.6796C114.413 28.6796 115.432 29.4492 116.014 30.2812H116.056V24.7276H118.094V39.5996H116.056V38.3516H116.014C115.432 39.1004 114.413 39.8908 112.749 39.8908ZM110.107 34.2956C110.107 36.3756 111.085 38.206 113.081 38.206C114.912 38.206 116.035 36.6876 116.035 34.2956C116.035 31.8828 114.912 30.3852 113.081 30.3852C111.085 30.3852 110.107 32.2156 110.107 34.2956ZM124.236 39.5996V24.7276H126.524V30.9468H133.825V24.7276H136.134V39.5996H133.825V32.9228H126.524V39.5996H124.236ZM142.773 39.9116C139.403 39.9116 137.531 37.5196 137.531 34.2748C137.531 30.9468 139.528 28.6588 142.773 28.6588C145.997 28.6588 147.806 30.7804 147.806 34.0668C147.806 34.358 147.806 34.67 147.786 34.8364H139.632C139.674 36.6044 140.714 38.2476 142.814 38.2476C144.686 38.2476 145.414 37.0412 145.602 36.334H147.682C147.12 38.3724 145.56 39.9116 142.773 39.9116ZM139.632 33.2348H145.685C145.685 31.5708 144.52 30.3228 142.71 30.3228C141.005 30.3228 139.757 31.4876 139.632 33.2348ZM149.112 39.5996V24.7276H151.151V39.5996H149.112ZM158.368 39.8908C156.704 39.8908 155.685 39.142 155.103 38.2892H155.061V43.2812H153.023V28.9916H155.061V30.2396H155.103C155.685 29.4908 156.704 28.6796 158.368 28.6796C161.072 28.6796 163.132 30.8012 163.132 34.2956C163.132 37.79 161.072 39.8908 158.368 39.8908ZM155.082 34.2956C155.082 36.6876 156.205 38.206 158.036 38.206C160.032 38.206 160.989 36.3756 160.989 34.2956C160.989 32.2156 160.032 30.3852 158.036 30.3852C156.205 30.3852 155.082 31.8828 155.082 34.2956ZM166.151 39.5996V37.3324H168.418V39.5996H166.151ZM162.886 29.574C162.886 26.6412 164.633 24.4364 167.982 24.4364C170.79 24.4364 172.641 26.0172 172.641 28.3468C172.641 30.0732 171.642 30.8636 170.436 31.7788C169.209 32.694 168.273 33.1932 168.273 35.5436H166.193C166.193 32.8396 167.233 31.9868 168.564 30.9676C169.646 30.1356 170.394 29.6364 170.394 28.3468C170.394 27.1404 169.562 26.3708 168.023 26.3708C166.401 26.3708 165.153 27.2236 165.153 29.574H162.886Z" fill="white"/>
<path opacity="0.5" d="M42.0236 61.5327L39.8396 52.8574H40.7738L42.5453 60.2708H42.5696L44.608 52.8574H45.5908L47.6292 60.2708H47.6656L49.437 52.8574H50.3592L48.1873 61.5327H47.2045L45.1176 53.9008H45.0812L42.9942 61.5327H42.0236ZM53.1902 61.7026C51.2974 61.7026 50.2418 60.3194 50.2418 58.4387C50.2418 56.461 51.4066 55.187 53.1902 55.187C54.9738 55.187 55.9809 56.4367 55.9809 58.1596C55.9809 58.3295 55.9809 58.4994 55.9687 58.5964H51.0669C51.079 59.8462 51.7463 61.0231 53.2023 61.0231C54.4763 61.0231 54.9738 60.1495 55.0951 59.6399H55.8959C55.5926 60.7683 54.7433 61.7026 53.1902 61.7026ZM51.0669 57.9048H55.1437C55.1437 56.8007 54.4278 55.8664 53.1538 55.8664C51.9526 55.8664 51.1275 56.7522 51.0669 57.9048ZM60.9538 61.6904C59.7162 61.6904 58.9276 60.9988 58.9276 59.9675C58.9276 58.6328 59.874 58.2082 61.4756 57.9291C62.4948 57.7471 63.15 57.6743 63.15 56.9342C63.15 56.3032 62.7374 55.8786 61.7425 55.8786C60.5413 55.8786 60.1166 56.3032 60.056 57.2132H59.2188C59.2794 56.1212 59.971 55.187 61.7668 55.187C62.9073 55.187 63.9144 55.6723 63.9144 57.1526V60.2466C63.9144 60.744 63.9872 60.9746 64.2662 60.9746C64.3148 60.9746 64.3633 60.9746 64.4361 60.9624V61.5327C64.3026 61.557 64.1692 61.5812 64.0236 61.5812C63.5018 61.5812 63.1985 61.375 63.15 60.5984H63.1257C62.701 61.3022 61.9609 61.6904 60.9538 61.6904ZM59.7526 59.8947C59.7526 60.6106 60.153 60.9988 61.0509 60.9988C62.3128 60.9988 63.15 60.3315 63.15 59.2152V58.0626C62.968 58.3174 62.3128 58.463 61.5726 58.5843C60.3714 58.8027 59.7526 59.106 59.7526 59.8947ZM66.0337 58.0747V61.5327H65.2451V55.3447H66.0337V56.6066H66.058C66.3735 55.7936 66.9437 55.1991 67.8173 55.1991C68.0357 55.1991 68.2056 55.2112 68.3512 55.2355V56.012C68.2299 55.9878 68.0964 55.9756 67.9751 55.9756C66.8588 55.9756 66.0337 56.8735 66.0337 58.0747ZM71.2253 61.7026C69.3325 61.7026 68.2769 60.3194 68.2769 58.4387C68.2769 56.461 69.4417 55.187 71.2253 55.187C73.0089 55.187 74.0159 56.4367 74.0159 58.1596C74.0159 58.3295 74.0159 58.4994 74.0038 58.5964H69.1019C69.1141 59.8462 69.7814 61.0231 71.2374 61.0231C72.5114 61.0231 73.0089 60.1495 73.1302 59.6399H73.931C73.6277 60.7683 72.7783 61.7026 71.2253 61.7026ZM69.1019 57.9048H73.1787C73.1787 56.8007 72.4629 55.8664 71.1889 55.8664C69.9877 55.8664 69.1626 56.7522 69.1019 57.9048ZM81.4641 57.3588C81.4641 56.5702 81.1001 55.8907 80.0324 55.8907C78.8554 55.8907 78.0789 56.7158 78.0789 57.6258V61.5327H77.2902V52.8574H78.0789V56.2304H78.1032C78.455 55.7208 79.1224 55.1991 80.2265 55.1991C81.3306 55.1991 82.2528 55.8179 82.2528 57.189V61.5327H81.4641V57.3588ZM86.0431 61.7026C84.1503 61.7026 83.0947 60.3194 83.0947 58.4387C83.0947 56.461 84.2595 55.187 86.0431 55.187C87.8267 55.187 88.8338 56.4367 88.8338 58.1596C88.8338 58.3295 88.8338 58.4994 88.8216 58.5964H83.9198C83.9319 59.8462 84.5992 61.0231 86.0552 61.0231C87.3292 61.0231 87.8267 60.1495 87.948 59.6399H88.7488C88.4455 60.7683 87.5962 61.7026 86.0431 61.7026ZM83.9198 57.9048H87.9966C87.9966 56.8007 87.2807 55.8664 86.0067 55.8664C84.8055 55.8664 83.9804 56.7522 83.9198 57.9048ZM90.4852 58.0747V61.5327H89.6966V55.3447H90.4852V56.6066H90.5095C90.825 55.7936 91.3952 55.1991 92.2688 55.1991C92.4872 55.1991 92.6571 55.2112 92.8027 55.2355V56.012C92.6814 55.9878 92.5479 55.9756 92.4266 55.9756C91.3103 55.9756 90.4852 56.8735 90.4852 58.0747ZM95.6768 61.7026C93.784 61.7026 92.7284 60.3194 92.7284 58.4387C92.7284 56.461 93.8932 55.187 95.6768 55.187C97.4604 55.187 98.4675 56.4367 98.4675 58.1596C98.4675 58.3295 98.4675 58.4994 98.4553 58.5964H93.5535C93.5656 59.8462 94.2329 61.0231 95.6889 61.0231C96.9629 61.0231 97.4604 60.1495 97.5817 59.6399H98.3825C98.0792 60.7683 97.2299 61.7026 95.6768 61.7026ZM93.5535 57.9048H97.6303C97.6303 56.8007 96.9144 55.8664 95.6404 55.8664C94.4392 55.8664 93.6141 56.7522 93.5535 57.9048ZM103.537 61.5812C102.64 61.5812 102.081 61.2779 102.081 59.9311V56.0363H101.171V55.3447H102.081V53.282H102.87V55.3447H104.12V56.0363H102.87V59.9432C102.87 60.7076 103.04 60.8896 103.647 60.8896C103.841 60.8896 103.938 60.8775 104.12 60.8654V61.5327C103.877 61.5691 103.732 61.5812 103.537 61.5812ZM107.39 61.7026C105.534 61.7026 104.418 60.3679 104.418 58.4508C104.418 56.5216 105.534 55.187 107.39 55.187C109.247 55.187 110.363 56.5216 110.363 58.4508C110.363 60.3679 109.247 61.7026 107.39 61.7026ZM105.243 58.4508C105.243 59.8704 105.947 61.011 107.39 61.011C108.834 61.011 109.538 59.8704 109.538 58.4508C109.538 57.0191 108.834 55.8786 107.39 55.8786C105.947 55.8786 105.243 57.0191 105.243 58.4508ZM117.819 57.3588C117.819 56.5702 117.455 55.8907 116.387 55.8907C115.21 55.8907 114.433 56.7158 114.433 57.6258V61.5327H113.645V52.8574H114.433V56.2304H114.458C114.81 55.7208 115.477 55.1991 116.581 55.1991C117.685 55.1991 118.607 55.8179 118.607 57.189V61.5327H117.819V57.3588ZM122.398 61.7026C120.505 61.7026 119.449 60.3194 119.449 58.4387C119.449 56.461 120.614 55.187 122.398 55.187C124.181 55.187 125.188 56.4367 125.188 58.1596C125.188 58.3295 125.188 58.4994 125.176 58.5964H120.274C120.286 59.8462 120.954 61.0231 122.41 61.0231C123.684 61.0231 124.181 60.1495 124.303 59.6399H125.103C124.8 60.7683 123.951 61.7026 122.398 61.7026ZM120.274 57.9048H124.351C124.351 56.8007 123.635 55.8664 122.361 55.8664C121.16 55.8664 120.335 56.7522 120.274 57.9048ZM126.051 61.5327V52.8574H126.84V61.5327H126.051ZM130.948 61.6783C129.868 61.6783 129.225 61.1444 128.861 60.4892H128.837V63.6803H128.048V55.3447H128.837V56.3396H128.861C129.225 55.7451 129.868 55.187 130.948 55.187C132.464 55.187 133.678 56.4003 133.678 58.4387C133.678 60.465 132.464 61.6783 130.948 61.6783ZM128.837 58.4387C128.837 59.9918 129.674 60.9867 130.863 60.9867C132.149 60.9867 132.853 59.8219 132.853 58.4387C132.853 57.0434 132.149 55.8786 130.863 55.8786C129.674 55.8786 128.837 56.8735 128.837 58.4387ZM134.571 61.5327V60.5135H135.59V61.5327H134.571ZM134.632 55.4782V52.8574H135.542V55.4782L135.336 59.3002H134.838L134.632 55.4782ZM142.564 61.6904C140.477 61.6904 138.973 60.6106 138.851 58.6571H139.773C139.895 60.0039 140.72 60.9139 142.528 60.9139C144.129 60.9139 144.675 60.1495 144.675 59.191C144.687 57.9048 143.79 57.6864 142.006 57.286C140.586 56.9584 139.215 56.5216 139.215 54.9322C139.215 53.549 140.319 52.6996 142.103 52.6996C143.984 52.6996 145.173 53.6582 145.306 55.3568H144.384C144.239 54.1556 143.571 53.4762 142.103 53.4762C140.829 53.4762 140.137 53.9979 140.137 54.8958C140.137 56.0606 141.169 56.3032 142.443 56.5823C144.226 56.9706 145.597 57.4074 145.597 59.1667C145.597 60.5742 144.627 61.6904 142.564 61.6904ZM148.464 61.6783C147.359 61.6783 146.437 61.0595 146.437 59.6884V55.3447H147.226V59.5186C147.226 60.3072 147.59 60.9867 148.658 60.9867C149.835 60.9867 150.611 60.1616 150.611 59.2516V55.3447H151.4V61.5327H150.611V60.6591H150.587C150.235 61.1687 149.568 61.6783 148.464 61.6783ZM155.518 61.6783C154.438 61.6783 153.795 61.1444 153.431 60.4892H153.407V63.6803H152.618V55.3447H153.407V56.3396H153.431C153.795 55.7451 154.438 55.187 155.518 55.187C157.034 55.187 158.248 56.4003 158.248 58.4387C158.248 60.465 157.034 61.6783 155.518 61.6783ZM153.407 58.4387C153.407 59.9918 154.244 60.9867 155.433 60.9867C156.719 60.9867 157.423 59.8219 157.423 58.4387C157.423 57.0434 156.719 55.8786 155.433 55.8786C154.244 55.8786 153.407 56.8735 153.407 58.4387ZM162.029 61.6783C160.949 61.6783 160.306 61.1444 159.942 60.4892H159.918V63.6803H159.129V55.3447H159.918V56.3396H159.942C160.306 55.7451 160.949 55.187 162.029 55.187C163.546 55.187 164.759 56.4003 164.759 58.4387C164.759 60.465 163.546 61.6783 162.029 61.6783ZM159.918 58.4387C159.918 59.9918 160.755 60.9867 161.944 60.9867C163.23 60.9867 163.934 59.8219 163.934 58.4387C163.934 57.0434 163.23 55.8786 161.944 55.8786C160.755 55.8786 159.918 56.8735 159.918 58.4387ZM168.273 61.7026C166.417 61.7026 165.301 60.3679 165.301 58.4508C165.301 56.5216 166.417 55.187 168.273 55.187C170.13 55.187 171.246 56.5216 171.246 58.4508C171.246 60.3679 170.13 61.7026 168.273 61.7026ZM166.126 58.4508C166.126 59.8704 166.829 61.011 168.273 61.011C169.717 61.011 170.421 59.8704 170.421 58.4508C170.421 57.0191 169.717 55.8786 168.273 55.8786C166.829 55.8786 166.126 57.0191 166.126 58.4508ZM172.905 58.0747V61.5327H172.116V55.3447H172.905V56.6066H172.929C173.244 55.7936 173.815 55.1991 174.688 55.1991C174.907 55.1991 175.077 55.2112 175.222 55.2355V56.012C175.101 55.9878 174.967 55.9756 174.846 55.9756C173.73 55.9756 172.905 56.8735 172.905 58.0747ZM177.615 61.5812C176.717 61.5812 176.159 61.2779 176.159 59.9311V56.0363H175.249V55.3447H176.159V53.282H176.947V55.3447H178.197V56.0363H176.947V59.9432C176.947 60.7076 177.117 60.8896 177.724 60.8896C177.918 60.8896 178.015 60.8775 178.197 60.8654V61.5327C177.955 61.5691 177.809 61.5812 177.615 61.5812ZM181.037 61.5327C181.037 59.9796 181.995 58.827 183.512 57.9776C185.041 57.104 185.878 56.74 185.878 55.466C185.878 54.641 185.477 53.7674 184.191 53.7674C182.735 53.7674 182.189 54.7866 182.189 55.9756H181.279C181.279 54.3498 182.226 52.9908 184.203 52.9908C185.635 52.9908 186.8 53.8887 186.8 55.4539C186.8 57.0434 185.55 57.7714 184.325 58.463C183.306 59.0454 182.25 59.6156 182.092 60.7319V60.7562H186.715V61.5327H181.037ZM191.209 61.5327V59.4943H187.108V58.7178L191.209 53.1486H192.082V58.7178H193.272V59.4943H192.082V61.5327H191.209ZM188.018 58.7178H191.209V54.3983L188.018 58.7178ZM193.521 61.5327L196.93 52.8574H197.731L194.322 61.5327H193.521ZM199.066 61.5327C199.066 58.8755 200.559 55.551 202.439 53.9494V53.9251H197.744V53.1486H203.446V53.828C201.214 55.6359 199.988 58.9726 199.988 61.5327H199.066Z" fill="white"/>
<g filter="url(#filter0_b_492_2695)">
<rect x="74.5" y="77.8667" width="95.2667" height="32.1333" rx="16.0667" fill="white" fill-opacity="0.1"/>
<rect x="74.9333" y="78.3" width="94.4" height="31.2667" rx="15.6333" stroke="white" stroke-opacity="0.1" stroke-width="0.866667"/>
<path d="M96.1891 98.1035C93.6897 98.1035 92.2822 96.2107 92.2822 93.5899C92.2822 90.9812 93.8717 89.0884 96.3469 89.0884C98.5915 89.0884 99.7806 90.2896 100.06 91.9397H98.6643C98.4338 90.8477 97.6209 90.2411 96.3347 90.2411C94.4177 90.2411 93.6775 91.964 93.6775 93.5899C93.6775 95.2279 94.2357 96.9508 96.2619 96.9508C97.6937 96.9508 98.8342 95.9559 98.8463 94.512H96.2862V93.3957H100.205V97.9336H99.2831L98.9555 96.7324H98.9313C98.3246 97.6181 97.5117 98.1035 96.1891 98.1035ZM103.905 98.1156C101.939 98.1156 100.847 96.7203 100.847 94.8275C100.847 92.8861 102.012 91.5515 103.905 91.5515C105.786 91.5515 106.841 92.7891 106.841 94.7061C106.841 94.876 106.841 95.058 106.829 95.1551H102.073C102.097 96.1864 102.704 97.1449 103.929 97.1449C105.021 97.1449 105.446 96.4412 105.555 96.0287H106.768C106.441 97.2177 105.531 98.1156 103.905 98.1156ZM102.073 94.2208H105.604C105.604 93.2501 104.924 92.5221 103.869 92.5221C102.874 92.5221 102.146 93.2016 102.073 94.2208ZM109.529 98.0064C108.51 98.0064 107.891 97.6181 107.891 96.1864V92.7284H106.993V91.7456H107.891V89.7557H109.08V91.7456H110.269V92.7284H109.08V96.2228C109.08 96.878 109.262 97.0236 109.772 97.0236C109.978 97.0236 110.075 97.0115 110.282 96.9751V97.9336C109.978 97.9943 109.784 98.0064 109.529 98.0064ZM113.469 97.9336V89.2583H114.803V92.8861H119.062V89.2583H120.409V97.9336H119.062V94.0388H114.803V97.9336H113.469ZM124.264 98.1156C122.299 98.1156 121.207 96.7203 121.207 94.8275C121.207 92.8861 122.371 91.5515 124.264 91.5515C126.145 91.5515 127.2 92.7891 127.2 94.7061C127.2 94.876 127.2 95.058 127.188 95.1551H122.432C122.456 96.1864 123.063 97.1449 124.288 97.1449C125.38 97.1449 125.805 96.4412 125.914 96.0287H127.128C126.8 97.2177 125.89 98.1156 124.264 98.1156ZM122.432 94.2208H125.963C125.963 93.2501 125.283 92.5221 124.228 92.5221C123.233 92.5221 122.505 93.2016 122.432 94.2208ZM127.945 97.9336V89.2583H129.134V97.9336H127.945ZM133.327 98.1035C132.356 98.1035 131.762 97.6667 131.422 97.1692H131.398V100.081H130.209V91.7456H131.398V92.4736H131.422C131.762 92.0368 132.356 91.5636 133.327 91.5636C134.904 91.5636 136.106 92.8012 136.106 94.8396C136.106 96.878 134.904 98.1035 133.327 98.1035ZM131.41 94.8396C131.41 96.2349 132.065 97.1207 133.133 97.1207C134.298 97.1207 134.856 96.0529 134.856 94.8396C134.856 93.6263 134.298 92.5585 133.133 92.5585C132.065 92.5585 131.41 93.4321 131.41 94.8396Z" fill="white"/>
<path d="M145.067 98.2666L149.4 93.9333L145.067 89.5999" stroke="white" stroke-width="0.866667" stroke-linecap="round" stroke-linejoin="round"/>
</g>
</g>
<rect x="0.800049" y="0.799805" width="242.667" height="123.067" rx="20.8" stroke="white" stroke-opacity="0.1" stroke-width="0.866667"/>
<defs>
<filter id="filter0_b_492_2695" x="70.1667" y="73.5334" width="103.933" height="40.8" filterUnits="userSpaceOnUse" color-interpolation-filters="sRGB">
<feFlood flood-opacity="0" result="BackgroundImageFix"/>
<feGaussianBlur in="BackgroundImageFix" stdDeviation="2.16667"/>
<feComposite in2="SourceAlpha" operator="in" result="effect1_backgroundBlur_492_2695"/>
<feBlend mode="normal" in="SourceGraphic" in2="effect1_backgroundBlur_492_2695" result="shape"/>
</filter>
<linearGradient id="paint0_linear_492_2695" x1="194.067" y1="10.2665" x2="14.0276" y2="117.659" gradientUnits="userSpaceOnUse">
<stop stop-color="#111111" stop-opacity="0.7"/>
<stop offset="1" stop-color="#111111" stop-opacity="0"/>
</linearGradient>
<linearGradient id="paint1_linear_492_2695" x1="122.133" y1="-6.1333" x2="122.133" y2="181.933" gradientUnits="userSpaceOnUse">
<stop offset="0.0379744" stop-color="#D9D9D9" stop-opacity="0"/>
<stop offset="0.60495" stop-color="#D9D9D9"/>
<stop offset="1" stop-color="#D9D9D9" stop-opacity="0"/>
</linearGradient>
<linearGradient id="paint2_linear_492_2695" x1="351.002" y1="53.441" x2="374.16" y2="11.462" gradientUnits="userSpaceOnUse">
<stop stop-color="#08080D" stop-opacity="0"/>
<stop offset="0.589181" stop-color="#08080D" stop-opacity="0.87"/>
<stop offset="1" stop-color="#08080D"/>
</linearGradient>
<linearGradient id="paint3_linear_492_2695" x1="-106.735" y1="53.441" x2="-129.893" y2="11.462" gradientUnits="userSpaceOnUse">
<stop stop-color="#08080D" stop-opacity="0"/>
<stop offset="0.589181" stop-color="#08080D" stop-opacity="0.87"/>
<stop offset="1" stop-color="#08080D"/>
</linearGradient>
<linearGradient id="paint4_linear_492_2695" x1="361.793" y1="85.237" x2="263.766" y2="100.715" gradientUnits="userSpaceOnUse">
<stop offset="0.370007"/>
<stop offset="0.65001" stop-color="#08080D" stop-opacity="0.78"/>
<stop offset="1" stop-color="#08080D" stop-opacity="0"/>
</linearGradient>
<linearGradient id="paint5_linear_492_2695" x1="-117.527" y1="85.237" x2="-19.4994" y2="100.715" gradientUnits="userSpaceOnUse">
<stop offset="0.370007"/>
<stop offset="0.65001" stop-color="#08080D" stop-opacity="0.78"/>
<stop offset="1" stop-color="#08080D" stop-opacity="0"/>
</linearGradient>
<clipPath id="clip0_492_2695">
<rect x="0.800049" y="0.799805" width="242.667" height="123.067" rx="20.8" fill="white"/>
</clipPath>
</defs>
</svg>
