<svg width="17" height="18" viewBox="0 0 17 18" fill="none" xmlns="http://www.w3.org/2000/svg">
<path d="M9.80008 17.4999H6.33341M13.2667 6.2332C13.2667 4.85408 12.7189 3.53144 11.7437 2.55625C10.7685 1.58106 9.44587 1.0332 8.06675 1.0332C6.68762 1.0332 5.36498 1.58106 4.38979 2.55625C3.4146 3.53144 2.86675 4.85408 2.86675 6.2332C2.86675 8.91136 2.19116 10.745 1.43646 11.9579C0.799858 12.981 0.481558 13.4925 0.49323 13.6352C0.506153 13.7932 0.539627 13.8535 0.666954 13.9479C0.781946 14.0332 1.30033 14.0332 2.33709 14.0332H13.7964C14.8332 14.0332 15.3516 14.0332 15.4665 13.9479C15.5939 13.8535 15.6273 13.7932 15.6403 13.6352C15.6519 13.4925 15.3336 12.981 14.697 11.9579C13.9423 10.745 13.2667 8.91136 13.2667 6.2332Z" stroke="white" stroke-width="0.866667" stroke-linecap="round" stroke-linejoin="round"/>
</svg>
