<svg width="19" height="19" viewBox="0 0 19 19" fill="none" xmlns="http://www.w3.org/2000/svg">
<path d="M6.4 13.5408H12.4667M8.68842 2.74517L3.54517 6.74548C3.20137 7.01288 3.02947 7.14658 2.90562 7.31402C2.79592 7.46234 2.7142 7.62943 2.66447 7.80709C2.60834 8.00764 2.60834 8.22542 2.60834 8.66097V14.1475C2.60834 14.9969 2.60834 15.4216 2.77364 15.746C2.91905 16.0314 3.15107 16.2634 3.43645 16.4088C3.76088 16.5741 4.18559 16.5741 5.035 16.5741H13.8317C14.6811 16.5741 15.1058 16.5741 15.4302 16.4088C15.7156 16.2634 15.9476 16.0314 16.093 15.746C16.2583 15.4216 16.2583 14.9969 16.2583 14.1475V8.66097C16.2583 8.22542 16.2583 8.00764 16.2022 7.80709C16.1525 7.62943 16.0708 7.46234 15.9611 7.31402C15.8372 7.14658 15.6653 7.01288 15.3215 6.74548L10.1783 2.74517C9.91183 2.53796 9.77862 2.43435 9.63153 2.39452C9.50174 2.35938 9.36494 2.35938 9.23515 2.39452C9.08806 2.43435 8.95484 2.53796 8.68842 2.74517Z" stroke="white" stroke-width="0.758333" stroke-linecap="round" stroke-linejoin="round"/>
</svg>
