<svg width="22" height="21" viewBox="0 0 22 21" fill="none" xmlns="http://www.w3.org/2000/svg">
<path d="M5.00021 19.0999H17.1335M2.83354 6.9666H19.3002M9.33354 1.7666L7.60021 6.9666L11.0669 16.0666L14.5335 6.9666L12.8002 1.7666M11.5799 15.9356L19.3276 7.41319C19.4715 7.25489 19.5434 7.17574 19.5721 7.08561C19.5974 7.0062 19.5992 6.92118 19.5774 6.84075C19.5526 6.74947 19.4841 6.66729 19.3472 6.50294L15.6081 2.01607C15.5317 1.92437 15.4935 1.87852 15.4466 1.84556C15.4051 1.81635 15.3588 1.79467 15.3098 1.78148C15.2545 1.7666 15.1948 1.7666 15.0755 1.7666H7.05828C6.93891 1.7666 6.87923 1.7666 6.82392 1.78148C6.77492 1.79467 6.72861 1.81635 6.68711 1.84556C6.64027 1.87852 6.60207 1.92437 6.52565 2.01607L2.78659 6.50294C2.64963 6.66729 2.58115 6.74947 2.55638 6.84074C2.53456 6.92118 2.53639 7.0062 2.56166 7.08561C2.59033 7.17574 2.66229 7.25489 2.8062 7.41319L10.5539 15.9356C10.7317 16.1312 10.8206 16.2291 10.9251 16.2652C11.017 16.297 11.1168 16.297 11.2086 16.2652C11.3131 16.2291 11.402 16.1312 11.5799 15.9356Z" stroke="white" stroke-width="0.866667" stroke-linecap="round" stroke-linejoin="round"/>
</svg>
