<svg width="22" height="21" viewBox="0 0 22 21" fill="none" xmlns="http://www.w3.org/2000/svg">
<path d="M11.0666 13.1002C12.5025 13.1002 13.6666 11.9361 13.6666 10.5002C13.6666 9.06422 12.5025 7.90016 11.0666 7.90016C9.63063 7.90016 8.46657 9.06422 8.46657 10.5002C8.46657 11.9361 9.63063 13.1002 11.0666 13.1002Z" stroke="white" stroke-width="0.866667" stroke-linecap="round" stroke-linejoin="round"/>
<path d="M16.8969 12.8638C16.792 13.1014 16.7607 13.365 16.8071 13.6206C16.8534 13.8762 16.9752 14.1121 17.1569 14.2977L17.2041 14.345C17.3507 14.4914 17.4669 14.6651 17.5462 14.8564C17.6255 15.0477 17.6663 15.2528 17.6663 15.4599C17.6663 15.6669 17.6255 15.872 17.5462 16.0633C17.4669 16.2546 17.3507 16.4284 17.2041 16.5747C17.0578 16.7212 16.884 16.8374 16.6927 16.9167C16.5014 16.996 16.2964 17.0369 16.0893 17.0369C15.8822 17.0369 15.6772 16.996 15.4859 16.9167C15.2946 16.8374 15.1208 16.7212 14.9744 16.5747L14.9272 16.5274C14.7415 16.3458 14.5056 16.224 14.2501 16.1776C13.9945 16.1313 13.7309 16.1626 13.4932 16.2674C13.2602 16.3673 13.0615 16.5331 12.9215 16.7445C12.7815 16.9559 12.7064 17.2036 12.7054 17.4571V17.5911C12.7054 18.009 12.5393 18.4098 12.2438 18.7053C11.9483 19.0008 11.5475 19.1668 11.1296 19.1668C10.7117 19.1668 10.3109 19.0008 10.0154 18.7053C9.71986 18.4098 9.55384 18.009 9.55384 17.5911V17.5202C9.54774 17.2594 9.46333 17.0065 9.31158 16.7943C9.15983 16.5821 8.94775 16.4205 8.70293 16.3305C8.4653 16.2256 8.20169 16.1943 7.94611 16.2406C7.69052 16.287 7.45468 16.4088 7.26899 16.5905L7.22172 16.6377C7.07538 16.7842 6.90159 16.9005 6.71029 16.9798C6.519 17.0591 6.31395 17.0999 6.10687 17.0999C5.89979 17.0999 5.69475 17.0591 5.50345 16.9798C5.31216 16.9005 5.13837 16.7842 4.99202 16.6377C4.84552 16.4914 4.72929 16.3176 4.64999 16.1263C4.57069 15.935 4.52987 15.73 4.52987 15.5229C4.52987 15.3158 4.57069 15.1108 4.64999 14.9195C4.72929 14.7282 4.84552 14.5544 4.99202 14.408L5.0393 14.3608C5.22093 14.1751 5.34278 13.9392 5.38912 13.6837C5.43546 13.4281 5.40417 13.1645 5.2993 12.9268C5.19942 12.6938 5.03359 12.4951 4.82221 12.3551C4.61083 12.2151 4.36313 12.14 4.1096 12.139H3.97566C3.55774 12.139 3.15694 11.9729 2.86143 11.6774C2.56592 11.3819 2.3999 10.9811 2.3999 10.5632C2.3999 10.1453 2.56592 9.74448 2.86143 9.44896C3.15694 9.15345 3.55774 8.98744 3.97566 8.98744H4.04657C4.30735 8.98134 4.56027 8.89692 4.77244 8.74517C4.98461 8.59342 5.14622 8.38135 5.23627 8.13653C5.34114 7.89889 5.37243 7.63528 5.32609 7.3797C5.27975 7.12412 5.1579 6.88827 4.97627 6.70259L4.92899 6.65531C4.78248 6.50897 4.66626 6.33518 4.58696 6.14389C4.50766 5.95259 4.46684 5.74754 4.46684 5.54047C4.46684 5.33339 4.50766 5.12834 4.58696 4.93704C4.66626 4.74575 4.78248 4.57196 4.92899 4.42562C5.07534 4.27911 5.24913 4.16288 5.44042 4.08358C5.63171 4.00428 5.83676 3.96347 6.04384 3.96347C6.25092 3.96347 6.45597 4.00428 6.64726 4.08358C6.83856 4.16288 7.01234 4.27911 7.15869 4.42562L7.20596 4.47289C7.39165 4.65453 7.62749 4.77637 7.88307 4.82271C8.13866 4.86905 8.40227 4.83777 8.6399 4.73289H8.70293C8.93596 4.63302 9.1347 4.46718 9.27469 4.2558C9.41468 4.04442 9.4898 3.79672 9.49081 3.54319V3.40925C9.49081 2.99134 9.65683 2.59054 9.95234 2.29502C10.2479 1.99951 10.6487 1.8335 11.0666 1.8335C11.4845 1.8335 11.8853 1.99951 12.1808 2.29502C12.4763 2.59054 12.6423 2.99134 12.6423 3.40925V3.48016C12.6433 3.73369 12.7185 3.98139 12.8584 4.19277C12.9984 4.40415 13.1972 4.56999 13.4302 4.66986C13.6678 4.77474 13.9314 4.80602 14.187 4.75968C14.4426 4.71334 14.6785 4.59149 14.8641 4.40986L14.9114 4.36259C15.0578 4.21608 15.2316 4.09985 15.4228 4.02055C15.6141 3.94125 15.8192 3.90044 16.0263 3.90044C16.2333 3.90044 16.4384 3.94125 16.6297 4.02055C16.821 4.09985 16.9948 4.21608 17.1411 4.36259C17.2876 4.50893 17.4038 4.68272 17.4831 4.87401C17.5624 5.06531 17.6033 5.27036 17.6033 5.47744C17.6033 5.68451 17.5624 5.88956 17.4831 6.08086C17.4038 6.27215 17.2876 6.44594 17.1411 6.59228L17.0938 6.63956C16.9122 6.82524 16.7904 7.06108 16.744 7.31667C16.6977 7.57225 16.729 7.83586 16.8338 8.0735V8.13653C16.9337 8.36956 17.0996 8.5683 17.3109 8.70828C17.5223 8.84827 17.77 8.92339 18.0235 8.92441H18.1575C18.5754 8.92441 18.9762 9.09042 19.2717 9.38593C19.5672 9.68145 19.7332 10.0822 19.7332 10.5002C19.7332 10.9181 19.5672 11.3189 19.2717 11.6144C18.9762 11.9099 18.5754 12.0759 18.1575 12.0759H18.0866C17.833 12.0769 17.5853 12.1521 17.374 12.292C17.1626 12.432 16.9967 12.6308 16.8969 12.8638Z" stroke="white" stroke-width="0.866667" stroke-linecap="round" stroke-linejoin="round"/>
</svg>
