<svg width="22" height="22" viewBox="0 0 22 22" fill="none" xmlns="http://www.w3.org/2000/svg">
<path d="M9.33327 7.7354C9.48597 7.30131 9.78738 6.93527 10.1841 6.70211C10.5808 6.46895 11.0473 6.38372 11.5008 6.46151C11.9544 6.53931 12.3657 6.77511 12.6621 7.12715C12.9584 7.47919 13.1206 7.92475 13.1199 8.38492C13.1199 9.68395 11.1714 10.3335 11.1714 10.3335M11.1965 12.9335H11.2052M9.2466 17.0068L10.5119 18.6939C10.7001 18.9448 10.7942 19.0702 10.9095 19.1151C11.0106 19.1544 11.1226 19.1544 11.2237 19.1151C11.339 19.0702 11.4331 18.9448 11.6213 18.6939L12.8866 17.0068C13.1407 16.6681 13.2677 16.4987 13.4226 16.3694C13.6292 16.1969 13.8731 16.075 14.135 16.0132C14.3314 15.9668 14.5432 15.9668 14.9666 15.9668C16.178 15.9668 16.7838 15.9668 17.2616 15.7689C17.8987 15.505 18.4048 14.9988 18.6687 14.3618C18.8666 13.884 18.8666 13.2782 18.8666 12.0668V7.1268C18.8666 5.67066 18.8666 4.94259 18.5832 4.38642C18.3339 3.8972 17.9362 3.49945 17.447 3.25018C16.8908 2.9668 16.1627 2.9668 14.7066 2.9668H7.4266C5.97047 2.9668 5.2424 2.9668 4.68623 3.25018C4.197 3.49945 3.79926 3.8972 3.54998 4.38642C3.2666 4.94259 3.2666 5.67066 3.2666 7.1268V12.0668C3.2666 13.2782 3.2666 13.884 3.46451 14.3618C3.7284 14.9988 4.23455 15.505 4.87162 15.7689C5.34943 15.9668 5.95515 15.9668 7.1666 15.9668C7.59004 15.9668 7.80175 15.9668 7.99817 16.0132C8.26007 16.075 8.50397 16.1969 8.71056 16.3694C8.86551 16.4987 8.99254 16.6681 9.2466 17.0068Z" stroke="white" stroke-width="0.866667" stroke-linecap="round" stroke-linejoin="round"/>
</svg>
